<svg xmlns="http://www.w3.org/2000/svg" xmlns:xlink="http://www.w3.org/1999/xlink" viewBox="0 0 766.52 511.01" xmlns:v="https://vecta.io/nano"><defs><clipPath id="A"><path d="M174.8 293.46c21.16-38.52 57.33-71.93 59.54-115.83 1-20.82-6-42-1.33-62.29 11.23-49.21 61.2-78.4 109.13-79.15 33.69-.52 61.73 23.23 78.34 29.25 32.8 11.88 66.21 7.47 86.16 40.73 19.41 32.35 9.36 70.39 17.71 107.17 8.74 38.48 48.08 61.58 67.3 96 14.5 26 22.46 58.53 21.53 87.93-.79 25-6.12 63-25.18 81.6-16 15.52-39.65 16.81-60.67 17.19q-116.11 2.07-232.1-6.62-29-2.17-57.85-5-14-1.38-27.92-2.9c-8.1-.89-21.53.14-28.83-3.33-6.45-3.06-4.22-6.61-6.58-13.33-2.61-7.44-7-14.42-9.69-21.91A185 185 0 0 1 154 396.26c-3.14-35.26 3.68-71.65 20.8-102.8z" fill="none"/></clipPath><clipPath id="B"><path d="M462.12 472.89h-168a14.66 14.66 0 0 1-14.64-14.65v-350.6A14.66 14.66 0 0 1 294.07 93h168.05a14.66 14.66 0 0 1 14.65 14.64v350.6a14.66 14.66 0 0 1-14.65 14.65zm-168-375.34A10.1 10.1 0 0 0 284 107.64v350.6a10.11 10.11 0 0 0 10.09 10.1h168.03a10.11 10.11 0 0 0 10.1-10.1v-350.6a10.1 10.1 0 0 0-10.1-10.09z" fill="none"/></clipPath><clipPath id="C"><circle cx="379.5" cy="182.77" r="59.9" fill="#fff"/></clipPath><clipPath id="D"><ellipse cx="379.5" cy="257.03" rx="58.24" ry="61.83" fill="none"/></clipPath><clipPath id="E"><circle cx="378.81" cy="173.25" r="17.8" fill="none"/></clipPath><clipPath id="F"><rect x="340.39" y="349.51" width="76.77" height="26.16" rx="13.08" fill="none"/></clipPath><path id="G" d="M283.98 445.89l188.24 6.76v5.55l-188.24-6.76v-5.55z"/><path id="H" d="M283.98 434.78l188.24 6.77v5.55l-188.24-6.76v-5.56z"/><path id="I" d="M283.98 429.23l188.24 6.76v5.56l-188.24-6.77v-5.55z"/><path id="J" d="M283.98 412.57l188.24 6.76v5.56l-188.24-6.76v-5.56z"/><path id="K" d="M279.43 456.83l197.34 7.09v5.55l-197.34-7.09v-5.55z"/><path id="L" d="M279.43 445.73l197.34 7.08v5.56l-197.34-7.09v-5.55z"/><path id="M" d="M279.43 440.17l197.34 7.09v5.55l-197.34-7.08v-5.56z"/><path id="N" d="M279.43 423.51l197.34 7.09v5.56l-197.34-7.09v-5.56z"/><path id="O" d="M437.74 196.97l-116.48 2v-1.22l116.48-2v1.22z"/><path id="P" d="M437.74 198.2l-116.48 2v-1.23l116.48-2v1.23z"/><path id="Q" d="M396.61 157.37l-35.61.61v-1.22l35.61-.61v1.22z"/><path id="R" d="M415.16 375.67l-.84-26.16h1.19l.84 26.16h-1.19z"/><path id="S" d="M413.98 375.67l-.84-26.16h1.18l.84 26.16h-1.18z"/><path id="T" d="M400.92 375.67l-.83-26.16h1.18l.84 26.16h-1.19z"/><path id="U" d="M399.74 375.67l-.84-26.16h1.19l.83 26.16h-1.18z"/><path id="V" d="M462.12 95.27h-73.77L281.7 201.91v96.67l192.67-192.66a12.37 12.37 0 0 0-12.25-10.65z"/></defs><g clip-path="url(#A)"><path d="M614.11 40.18l-296.57-4.51h296.57v4.51z" fill="#f2f2f7"/><path d="M614.11 70.88L154.85 63.9l.43-28.23h162.26l296.57 4.51v30.7z" fill="#f3f3f8"/><path d="M614.11 101.59L154.38 94.6l.47-30.7 459.26 6.98v30.71z" fill="#f4f4f9"/><path d="M614.11 132.29l-460.19-6.99.46-30.7 459.73 6.99v30.7z" fill="#f5f5f9"/><path d="M614.11 163l-460.66-7.01.47-30.69 460.19 6.99V163z" fill="#f6f6fa"/><path d="M614.11 193.7l-461.12-7.01.46-30.7L614.11 163v30.7z" fill="#f7f7fa"/><path d="M614.11 224.4l-461.59-7.01.47-30.7 461.12 7.01v30.7z" fill="#f8f8fb"/><path d="M614.11 255.11l-462.06-7.02.47-30.7 461.59 7.01v30.71z" fill="#f9f9fb"/><path d="M614.11 285.81l-462.52-7.03.46-30.69 462.06 7.02v30.7z" fill="#fafafc"/><path d="M614.11 316.52l-462.99-7.04.47-30.7 462.52 7.03v30.71z" fill="#fbfbfd"/><path d="M614.11 347.22l-463.25-7.04v-13.59l.26-17.11 462.99 7.04v30.7z" fill="#fcfcfd"/><path d="M614.11 377.93l-463.25-7.05v-30.7l463.25 7.04v30.71z" fill="#fdfdfe"/><path d="M614.11 402.29l-.09 6.34-463.16-7.04v-30.71l463.25 7.05v24.36z" fill="#fefefe"/><g fill="#fff"><path d="M614.02 408.63l-.47 30.69-462.69-7.03v-30.7l463.16 7.04z"/><path d="M613.55 439.32l-.88 58.17H150.86v-65.2l462.69 7.03z"/></g></g><path d="M223.57 395a186.11 186.11 0 0 0-12.9 13.77 136.44 136.44 0 0 1-6.12-8.37l-24.27-36 34.13-2.33c42.35-2.89 78.52 15.83 102.3 53l24 37.5-48.44-1.75c-30.51-1.1-57.18-14-77.55-37.16z" fill="#e0e8ff"/><path d="M324.43 442.12a.2.2 0 0 1-.13 0L189 368.88a.27.27 0 0 1-.12-.37.29.29 0 0 1 .38-.11l135.28 73.2a.28.28 0 0 1 .11.37.29.29 0 0 1-.22.15z" fill="#fff"/><path d="M286,382.6a187.22,187.22,0,0,1-11.92,14.63q4.39,2.61,9.11,4.94l38.93,19.24-2.26-34.14c-2.81-42.36-26.21-75.69-66.19-94.28l-40.37-18.78L221.54,322c5.18,30.09,21.5,54.8,47.21,71.88Z" fill="#f9dbe7"/><path d="M316.77 413.46a.27.27 0 0 1-.22-.11l-90.66-124.26a.28.28 0 0 1 .06-.39.27.27 0 0 1 .38.06L317 413a.28.28 0 0 1-.06.39.33.33 0 0 1-.17.07z" fill="#fff"/><path d="M476.9 195.17h0a2.35 2.35 0 0 1-2.34-2.35v-23.88a2.35 2.35 0 0 1 2.34-2.35h0a2.35 2.35 0 0 1 2.35 2.35v23.88a2.35 2.35 0 0 1-2.35 2.35zm0 52.76h0a2.35 2.35 0 0 1-2.34-2.35v-39.87a2.34 2.34 0 0 1 2.34-2.34h0a2.35 2.35 0 0 1 2.35 2.34v39.87a2.35 2.35 0 0 1-2.35 2.35z" fill="#382a73"/><rect x="281.7" y="95.27" width="192.79" height="375.34" rx="12.37" fill="#d9e1ff"/><g clip-path="url(#B)"><g fill="#7c6ed8"><path d="M283.98 468.1l6.62.24h-6.62v-.24z"/><path d="M283.98 462.55l161.22 5.79H290.6l-6.62-.24v-5.55z"/></g><path d="M283.98 457l188.24 6.76v4.58H445.2l-161.22-5.79V457z" fill="#7d6fd9"/><path d="M283.98 451.44l188.24 6.76v5.56L283.98 457v-5.56z" fill="#7d70d9"/><use xlink:href="#G" fill="#7e71da"/><path d="M283.98 440.34l188.24 6.76v5.55l-188.24-6.76v-5.55z" fill="#7e72da"/><use xlink:href="#H" fill="#7f73db"/><use xlink:href="#I" fill="#7f74db"/><path d="M283.98 423.68l188.24 6.76v5.55l-188.24-6.76v-5.55z" fill="#8075dc"/><path d="M283.98 418.13l188.24 6.76v5.55l-188.24-6.76v-5.55z" fill="#8076dc"/><use xlink:href="#J" fill="#8177dd"/><path d="M283.98 407.02l188.24 6.76v5.55l-188.24-6.76v-5.55z" fill="#8178dd"/><path d="M283.98 401.47l188.24 6.76v5.55l-188.24-6.76v-5.55z" fill="#8279de"/><path d="M283.98 395.91l188.24 6.77v5.55l-188.24-6.76v-5.56z" fill="#827ade"/><path d="M283.98 390.36l188.24 6.76v5.56l-188.24-6.77v-5.55z" fill="#837bdf"/><path d="M283.98 384.81l188.24 6.76v5.55l-188.24-6.76v-5.55z" fill="#847cdf"/><path d="M283.98 379.25l188.24 6.77v5.55l-188.24-6.76v-5.56z" fill="#847de0"/><path d="M283.98 373.7l188.24 6.76v5.56l-188.24-6.77v-5.55z" fill="#857ee0"/><path d="M283.98 368.15l188.24 6.76v5.55l-188.24-6.76v-5.55z" fill="#857fe1"/><path d="M283.98 362.6l188.24 6.76v5.55l-188.24-6.76v-5.55z" fill="#8680e1"/><path d="M283.98 357.04l188.24 6.77v5.55l-188.24-6.76v-5.56z" fill="#8681e2"/><path d="M283.98 351.49l188.24 6.76v5.56l-188.24-6.77v-5.55z" fill="#8782e2"/><path d="M283.98 345.94l188.24 6.76v5.55l-188.24-6.76v-5.55z" fill="#8783e3"/><path d="M283.98 340.38l188.24 6.77v5.55l-188.24-6.76v-5.56z" fill="#8884e3"/><path d="M283.98 334.83l188.24 6.76v5.56l-188.24-6.77v-5.55z" fill="#8885e4"/><path d="M283.98 329.28l188.24 6.76v5.55l-188.24-6.76v-5.55z" fill="#8986e4"/><path d="M283.98 323.73l188.24 6.76v5.55l-188.24-6.76v-5.55z" fill="#8987e5"/><path d="M283.98 318.17l188.24 6.77v5.55l-188.24-6.76v-5.56z" fill="#8a88e5"/><path d="M283.98 312.62l188.24 6.76v5.56l-188.24-6.77v-5.55z" fill="#8b89e6"/><path d="M283.98 307.07l188.24 6.76v5.55l-188.24-6.76v-5.55z" fill="#8b8ae6"/><path d="M283.98 301.51l188.24 6.77v5.55l-188.24-6.76v-5.56z" fill="#8c8be7"/><path d="M283.98 295.96l188.24 6.76v5.56l-188.24-6.77v-5.55z" fill="#8c8ce7"/><path d="M283.98 290.41l188.24 6.76v5.55l-188.24-6.76v-5.55z" fill="#8d8de8"/><path d="M283.98 284.86l188.24 6.76v5.55l-188.24-6.76v-5.55z" fill="#8d8ee8"/><path d="M283.98 279.3l188.24 6.76v5.56l-188.24-6.76v-5.56z" fill="#8e8fe9"/><path d="M283.98 273.75l188.24 6.76v5.55l-188.24-6.76v-5.55z" fill="#8e90e9"/><path d="M283.98 268.2l188.24 6.76v5.55l-188.24-6.76v-5.55z" fill="#8f91ea"/><path d="M283.98 262.64l188.24 6.77v5.55l-188.24-6.76v-5.56z" fill="#8f92ea"/><path d="M283.98 257.09l188.24 6.76v5.56l-188.24-6.77v-5.55z" fill="#9093eb"/><path d="M283.98 251.54l188.24 6.76v5.55l-188.24-6.76v-5.55z" fill="#9094eb"/><path d="M283.98 245.99l188.24 6.76v5.55l-188.24-6.76v-5.55z" fill="#9196ec"/><path d="M283.98 240.43l188.24 6.76v5.56l-188.24-6.76v-5.56z" fill="#9297ec"/><path d="M283.98 234.88l188.24 6.76v5.55l-188.24-6.76v-5.55z" fill="#9298ed"/><path d="M283.98 229.33l188.24 6.76v5.55l-188.24-6.76v-5.55z" fill="#9399ed"/><path d="M283.98 223.78l188.24 6.76v5.55l-188.24-6.76v-5.55z" fill="#939aee"/><path d="M283.98 218.22l188.24 6.76v5.56l-188.24-6.76v-5.56z" fill="#949bee"/><path d="M283.98 212.67l188.24 6.76v5.55l-188.24-6.76v-5.55z" fill="#949cef"/><path d="M283.98 207.12l188.24 6.76v5.55l-188.24-6.76v-5.55z" fill="#959def"/><path d="M283.98 201.56l188.24 6.76v5.56l-188.24-6.76v-5.56z" fill="#959ef0"/><path d="M283.98 196.01l188.24 6.76v5.55l-188.24-6.76v-5.55z" fill="#969ff0"/><path d="M283.98 190.46l188.24 6.76v5.55l-188.24-6.76v-5.55z" fill="#96a0f1"/><path d="M283.98 184.91l188.24 6.76v5.55l-188.24-6.76v-5.55z" fill="#97a1f1"/><path d="M283.98 179.35l188.24 6.76v5.56l-188.24-6.76v-5.56z" fill="#97a2f2"/><path d="M283.98 173.8l188.24 6.76v5.55l-188.24-6.76v-5.55z" fill="#98a3f2"/><path d="M283.98 168.25l188.24 6.76v5.55l-188.24-6.76v-5.55z" fill="#99a4f3"/><path d="M283.98 162.69l188.24 6.76v5.56l-188.24-6.76v-5.56z" fill="#99a5f3"/><path d="M283.98 157.14l188.24 6.76v5.55l-188.24-6.76v-5.55z" fill="#9aa6f4"/><path d="M283.98 151.59l188.24 6.76v5.55l-188.24-6.76v-5.55z" fill="#9aa7f4"/><path d="M283.98 146.03l188.24 6.77v5.55l-188.24-6.76v-5.56z" fill="#9ba8f5"/><path d="M283.98 140.48l188.24 6.76v5.56l-188.24-6.77v-5.55z" fill="#9ba9f5"/><path d="M283.98 134.93l188.24 6.76v5.55l-188.24-6.76v-5.55z" fill="#9caaf6"/><path d="M283.98 129.38l188.24 6.76v5.55l-188.24-6.76v-5.55z" fill="#9cabf6"/><path d="M283.98 123.82l188.24 6.76v5.56l-188.24-6.76v-5.56z" fill="#9dacf7"/><path d="M283.98 118.27l188.24 6.76v5.55l-188.24-6.76v-5.55z" fill="#9dadf7"/><path d="M283.98 112.72l188.24 6.76v5.55l-188.24-6.76v-5.55z" fill="#9eaef8"/><path d="M283.98 107.16l188.24 6.76v5.56l-188.24-6.76v-5.56z" fill="#9eaff8"/><path d="M283.98 101.61l188.24 6.76v5.55l-188.24-6.76v-5.55z" fill="#9fb0f9"/><path d="M325.38 97.55l146.84 5.27v5.55l-188.24-6.76v-4.06h41.4z" fill="#a0b1f9"/><path d="M472.22 102.82l-146.84-5.27h146.84v5.27z" fill="#a0b2fa"/><g fill="#7c6ed8"><path d="M279.43 467.94l137.83 4.95H279.43v-4.95z"/><path d="M279.43 462.38l197.34 7.09v3.42h-59.51l-137.83-4.95v-5.56z"/></g><use xlink:href="#K" fill="#7d6fd9"/><path d="M279.43 451.28l197.34 7.09v5.55l-197.34-7.09v-5.55z" fill="#7d70d9"/><use xlink:href="#L" fill="#7e71da"/><use xlink:href="#M" fill="#7e72da"/><path d="M279.43 434.62l197.34 7.09v5.55l-197.34-7.09v-5.55z" fill="#7f73db"/><path d="M279.43 429.07l197.34 7.09v5.55l-197.34-7.09v-5.55z" fill="#7f74db"/><use xlink:href="#N" fill="#8075dc"/><path d="M279.43 417.96l197.34 7.09v5.55l-197.34-7.09v-5.55z" fill="#8076dc"/><path d="M279.43 412.41l197.34 7.09v5.55l-197.34-7.09v-5.55z" fill="#8177dd"/><path d="M279.43 406.86l197.34 7.08v5.56l-197.34-7.09v-5.55z" fill="#8178dd"/><path d="M279.43 401.3l197.34 7.09v5.55l-197.34-7.08v-5.56z" fill="#8279de"/><path d="M279.43 395.75l197.34 7.09v5.55l-197.34-7.09v-5.55z" fill="#827ade"/><path d="M279.43 390.2l197.34 7.09v5.55l-197.34-7.09v-5.55z" fill="#837bdf"/><path d="M279.43 384.64l197.34 7.09v5.56l-197.34-7.09v-5.56z" fill="#847cdf"/><path d="M279.43 379.09l197.34 7.09v5.55l-197.34-7.09v-5.55z" fill="#847de0"/><path d="M279.43 373.54l197.34 7.09v5.55l-197.34-7.09v-5.55z" fill="#857ee0"/><path d="M279.43 367.99l197.34 7.08v5.56l-197.34-7.09v-5.55z" fill="#857fe1"/><path d="M279.43 362.43l197.34 7.09v5.55l-197.34-7.08v-5.56z" fill="#8680e1"/><path d="M279.43 356.88l197.34 7.09v5.55l-197.34-7.09v-5.55z" fill="#8681e2"/><path d="M279.43 351.33l197.34 7.09v5.55l-197.34-7.09v-5.55z" fill="#8782e2"/><path d="M279.43 345.77l197.34 7.09v5.56l-197.34-7.09v-5.56z" fill="#8783e3"/><path d="M279.43 340.22l197.34 7.09v5.55l-197.34-7.09v-5.55z" fill="#8884e3"/><path d="M279.43 334.67l197.34 7.09v5.55l-197.34-7.09v-5.55z" fill="#8885e4"/><path d="M279.43 329.12l197.34 7.08v5.56l-197.34-7.09v-5.55z" fill="#8986e4"/><path d="M279.43 323.56l197.34 7.09v5.55l-197.34-7.08v-5.56z" fill="#8987e5"/><path d="M279.43 318.01l197.34 7.09v5.55l-197.34-7.09v-5.55z" fill="#8a88e5"/><path d="M279.43 312.46l197.34 7.09v5.55l-197.34-7.09v-5.55z" fill="#8b89e6"/><path d="M279.43 306.9l197.34 7.09v5.56l-197.34-7.09v-5.56z" fill="#8b8ae6"/><path d="M279.43 301.35l197.34 7.09v5.55l-197.34-7.09v-5.55z" fill="#8c8be7"/><path d="M279.43 295.8l197.34 7.09v5.55l-197.34-7.09v-5.55z" fill="#8c8ce7"/><path d="M279.43 290.25l197.34 7.08v5.56l-197.34-7.09v-5.55z" fill="#8d8de8"/><path d="M279.43 284.69l197.34 7.09v5.55l-197.34-7.08v-5.56z" fill="#8d8ee8"/><path d="M279.43 279.14l197.34 7.09v5.55l-197.34-7.09v-5.55z" fill="#8e8fe9"/><path d="M279.43 273.59l197.34 7.09v5.55l-197.34-7.09v-5.55z" fill="#8e90e9"/><path d="M279.43 268.03l197.34 7.09v5.56l-197.34-7.09v-5.56z" fill="#8f91ea"/><path d="M279.43 262.48l197.34 7.09v5.55l-197.34-7.09v-5.55z" fill="#8f92ea"/><path d="M279.43 256.93l197.34 7.09v5.55l-197.34-7.09v-5.55z" fill="#9093eb"/><path d="M279.43 251.38l197.34 7.08v5.56l-197.34-7.09v-5.55z" fill="#9094eb"/><path d="M279.43 245.82l197.34 7.09v5.55l-197.34-7.08v-5.56z" fill="#9196ec"/><path d="M279.43 240.27l197.34 7.09v5.55l-197.34-7.09v-5.55z" fill="#9297ec"/><path d="M279.43 234.72l197.34 7.09v5.55l-197.34-7.09v-5.55z" fill="#9298ed"/><path d="M279.43 229.16l197.34 7.09v5.56l-197.34-7.09v-5.56z" fill="#9399ed"/><path d="M279.43 223.61l197.34 7.09v5.55l-197.34-7.09v-5.55z" fill="#939aee"/><path d="M279.43 218.06l197.34 7.09v5.55l-197.34-7.09v-5.55z" fill="#949bee"/><path d="M279.43 212.51l197.34 7.08v5.56l-197.34-7.09v-5.55z" fill="#949cef"/><path d="M279.43 206.95l197.34 7.09v5.55l-197.34-7.08v-5.56z" fill="#959def"/><path d="M279.43 201.4l197.34 7.09v5.55l-197.34-7.09v-5.55z" fill="#959ef0"/><path d="M279.43 195.85l197.34 7.09v5.55l-197.34-7.09v-5.55z" fill="#969ff0"/><path d="M279.43 190.29l197.34 7.09v5.56l-197.34-7.09v-5.56z" fill="#96a0f1"/><path d="M279.43 184.74l197.34 7.09v5.55l-197.34-7.09v-5.55z" fill="#97a1f1"/><path d="M279.43 179.19l197.34 7.09v5.55l-197.34-7.09v-5.55z" fill="#97a2f2"/><path d="M279.43 173.64l197.34 7.08v5.56l-197.34-7.09v-5.55z" fill="#98a3f2"/><path d="M279.43 168.08l197.34 7.09v5.55l-197.34-7.08v-5.56z" fill="#99a4f3"/><path d="M279.43 162.53l197.34 7.09v5.55l-197.34-7.09v-5.55z" fill="#99a5f3"/><path d="M279.43 156.98l197.34 7.08v5.56l-197.34-7.09v-5.55z" fill="#9aa6f4"/><path d="M279.43 151.42l197.34 7.09v5.55l-197.34-7.08v-5.56z" fill="#9aa7f4"/><path d="M279.43 145.87l197.34 7.09v5.55l-197.34-7.09v-5.55z" fill="#9ba8f5"/><path d="M279.43 140.32l197.34 7.09v5.55l-197.34-7.09v-5.55z" fill="#9ba9f5"/><path d="M279.43 134.76l197.34 7.09v5.56l-197.34-7.09v-5.56z" fill="#9caaf6"/><path d="M279.43 129.21l197.34 7.09v5.55l-197.34-7.09v-5.55z" fill="#9cabf6"/><path d="M279.43 123.66l197.34 7.09v5.55l-197.34-7.09v-5.55z" fill="#9dacf7"/><path d="M279.43 118.11l197.34 7.08v5.56l-197.34-7.09v-5.55z" fill="#9dadf7"/><path d="M279.43 112.55l197.34 7.09v5.55l-197.34-7.08v-5.56z" fill="#9eaef8"/><path d="M279.43 107l197.34 7.09v5.55l-197.34-7.09V107z" fill="#9eaff8"/><path d="M279.43 101.45l197.34 7.09v5.55L279.43 107v-5.55z" fill="#9fb0f9"/><path d="M279.43 95.89l197.34 7.09v5.56l-197.34-7.09v-5.56z" fill="#a0b1f9"/><path d="M353.32 93l123.45 4.43v5.55l-197.34-7.09V93h73.89z" fill="#a0b2fa"/><path d="M476.77 97.43L353.32 93h123.45v4.43z" fill="#a1b3fa"/></g><path d="M462.12 473h-168a14.8 14.8 0 0 1-14.78-14.79V107.64a14.8 14.8 0 0 1 14.78-14.78h168a14.8 14.8 0 0 1 14.79 14.78v350.6A14.81 14.81 0 0 1 462.12 473zm-168-379.9a14.52 14.52 0 0 0-14.5 14.51v350.6a14.52 14.52 0 0 0 14.5 14.51h168a14.53 14.53 0 0 0 14.51-14.51V107.64a14.53 14.53 0 0 0-14.51-14.51zm168 375.38h-168a10.24 10.24 0 0 1-10.23-10.24v-350.6a10.24 10.24 0 0 1 10.23-10.23h168a10.24 10.24 0 0 1 10.24 10.23v350.6a10.25 10.25 0 0 1-10.24 10.24zm-168-370.8a10 10 0 0 0-9.95 10v350.6a10 10 0 0 0 9.95 10h168a10 10 0 0 0 10-10V107.64a10 10 0 0 0-10-10z" fill="#efefef"/><circle cx="379.5" cy="182.77" r="59.9" fill="#fff"/><g clip-path="url(#C)"><g clip-path="url(#D)"><path d="M327.88 195.2l-6.62.11v-.11h6.62z" fill="#8d8ee8"/><path d="M399.03 195.2l-77.77 1.33v-1.22l6.62-.11h71.15z" fill="#8e8fe9"/><path d="M437.74 195.75l-116.48 2v-1.22l77.77-1.33h38.71v.55z" fill="#8e90e9"/><use xlink:href="#O" fill="#8f91ea"/><use xlink:href="#P" fill="#8f92ea"/><path d="M437.74 199.42l-116.48 2v-1.22l116.48-2v1.22z" fill="#9093eb"/><path d="M437.74 200.64l-116.48 2v-1.22l116.48-2v1.22z" fill="#9094eb"/><path d="M437.74 201.86l-116.48 2v-1.22l116.48-2v1.22z" fill="#9196ec"/><path d="M437.74 203.08l-116.48 2v-1.22l116.48-2v1.22z" fill="#9297ec"/><path d="M437.74 204.3l-116.48 2v-1.22l116.48-2v1.22z" fill="#9298ed"/><path d="M437.74 205.53l-116.48 2v-1.23l116.48-2v1.23z" fill="#9399ed"/><path d="M437.74 206.75l-116.48 2v-1.22l116.48-2v1.22z" fill="#939aee"/><path d="M437.74 207.97l-116.48 2v-1.22l116.48-2v1.22z" fill="#949bee"/><path d="M437.74 209.19l-116.48 2v-1.22l116.48-2v1.22z" fill="#949cef"/><path d="M437.74 210.41l-116.48 2v-1.22l116.48-2v1.22z" fill="#959def"/><path d="M437.74 211.63l-116.48 2v-1.22l116.48-2v1.22z" fill="#959ef0"/><path d="M437.74 212.85l-116.48 2v-1.22l116.48-2v1.22z" fill="#969ff0"/><path d="M437.74 214.07l-116.48 2v-1.22l116.48-2v1.22z" fill="#96a0f1"/><path d="M437.74 215.3l-116.48 2v-1.23l116.48-2v1.23z" fill="#97a1f1"/><path d="M437.74 216.52l-116.48 2v-1.22l116.48-2v1.22z" fill="#97a2f2"/><path d="M437.74 217.74l-116.48 2v-1.22l116.48-2v1.22z" fill="#98a3f2"/><path d="M437.74 218.96l-116.48 2v-1.22l116.48-2v1.22z" fill="#99a4f3"/><path d="M437.74 220.18l-116.48 2v-1.22l116.48-2v1.22z" fill="#99a5f3"/><path d="M437.74 221.4l-116.48 2v-1.22l116.48-2v1.22z" fill="#9aa6f4"/><path d="M437.74 222.63l-116.48 2v-1.23l116.48-2v1.23z" fill="#9aa7f4"/><path d="M437.74 223.85l-116.48 2v-1.22l116.48-2v1.22z" fill="#9ba8f5"/><path d="M437.74 225.07l-116.48 2v-1.22l116.48-2v1.22z" fill="#9ba9f5"/><path d="M437.74 226.29l-116.48 2v-1.22l116.48-2v1.22z" fill="#9caaf6"/><path d="M437.74 227.51l-116.48 2v-1.22l116.48-2v1.22z" fill="#9cabf6"/><path d="M437.74 228.73l-116.48 2v-1.22l116.48-2v1.22z" fill="#9dacf7"/><path d="M437.74 229.96l-116.48 1.99v-1.22l116.48-2v1.23z" fill="#9dadf7"/><path d="M437.74 231.18l-116.48 2v-1.23l116.48-1.99v1.22z" fill="#9eaef8"/><path d="M437.74 232.4l-116.48 2v-1.22l116.48-2v1.22z" fill="#9eaff8"/><path d="M437.74 233.62l-116.48 2v-1.22l116.48-2v1.22z" fill="#9fb0f9"/><path d="M437.74 234.84l-116.48 2v-1.22l116.48-2v1.22z" fill="#a0b1f9"/><path d="M437.74 236.06l-116.48 2v-1.22l116.48-2v1.22z" fill="#a0b2fa"/><path d="M437.74 237.28l-116.48 2v-1.22l116.48-2v1.22z" fill="#a1b3fa"/><path d="M437.74 238.5l-116.48 2v-1.22l116.48-2v1.22z" fill="#a1b4fb"/><path d="M437.74 239.73l-116.48 2v-1.23l116.48-2v1.23z" fill="#a2b5fb"/><path d="M437.74 240.95l-116.48 2v-1.22l116.48-2v1.22z" fill="#a2b6fc"/><path d="M437.74 242.17l-116.48 2v-1.22l116.48-2v1.22z" fill="#a3b7fc"/><path d="M437.74 243.39l-116.48 2v-1.22l116.48-2v1.22z" fill="#a3b8fd"/><path d="M437.74 244.61l-116.48 2v-1.22l116.48-2v1.22z" fill="#a4b9fd"/><path d="M437.74 245.83l-116.48 2v-1.22l116.48-2v1.22z" fill="#a4bafe"/><path d="M437.74 247.06l-116.48 2v-1.23l116.48-2v1.23z" fill="#a5bbfe"/><path d="M437.74 248.28l-116.48 2v-1.22l116.48-2v1.22z" fill="#a5bcff"/><g fill="#a6bdff"><path d="M437.74 249.5l-116.48 2v-1.22l116.48-2v1.22z"/><path d="M321.26 251.5l116.48-2v69.36H321.26V251.5z"/></g></g><g clip-path="url(#E)"><path d="M366.4 155.45l-5.4.09v-.09h5.4z" fill="#7c6ed8"/><path d="M396.61 156.15l-35.61.61v-1.22l5.4-.09h30.21v.7z" fill="#7d6fd9"/><use xlink:href="#Q" fill="#7d70d9"/><path d="M396.61 158.59l-35.61.61v-1.22l35.61-.61v1.22z" fill="#7e71da"/><path d="M396.61 159.81l-35.61.62v-1.23l35.61-.61v1.22z" fill="#7e72da"/><path d="M396.61 161.04l-35.61.61v-1.22l35.61-.62v1.23z" fill="#7f73db"/><path d="M396.61 162.26l-35.61.61v-1.22l35.61-.61v1.22z" fill="#7f74db"/><path d="M396.61 163.48l-35.61.61v-1.22l35.61-.61v1.22z" fill="#8075dc"/><path d="M396.61 164.7l-35.61.61v-1.22l35.61-.61v1.22z" fill="#8076dc"/><path d="M396.61 165.92l-35.61.61v-1.22l35.61-.61v1.22z" fill="#8177dd"/><path d="M396.61 167.14l-35.61.61v-1.22l35.61-.61v1.22z" fill="#8178dd"/><path d="M396.61 168.37l-35.61.61v-1.23l35.61-.61v1.23z" fill="#8279de"/><path d="M396.61 169.59l-35.61.61v-1.22l35.61-.61v1.22z" fill="#827ade"/><path d="M396.61 170.81l-35.61.61v-1.22l35.61-.61v1.22z" fill="#837bdf"/><path d="M396.61 172.03l-35.61.61v-1.22l35.61-.61v1.22z" fill="#847cdf"/><path d="M396.61 173.25l-35.61.61v-1.22l35.61-.61v1.22z" fill="#847de0"/><path d="M396.61 174.47l-35.61.61v-1.22l35.61-.61v1.22z" fill="#857ee0"/><path d="M396.61 175.69l-35.61.62v-1.23l35.61-.61v1.22z" fill="#857fe1"/><path d="M396.61 176.91l-35.61.62v-1.22l35.61-.62v1.22z" fill="#8680e1"/><path d="M396.61 178.14l-35.61.61v-1.22l35.61-.62v1.23z" fill="#8681e2"/><path d="M396.61 179.36l-35.61.61v-1.22l35.61-.61v1.22z" fill="#8782e2"/><path d="M396.61 180.58l-35.61.61v-1.22l35.61-.61v1.22z" fill="#8783e3"/><path d="M396.61 181.8l-35.61.61v-1.22l35.61-.61v1.22z" fill="#8884e3"/><path d="M396.61 183.02l-35.61.61v-1.22l35.61-.61v1.22z" fill="#8885e4"/><path d="M396.61 184.24l-35.61.61v-1.22l35.61-.61v1.22z" fill="#8986e4"/><path d="M396.61 185.47l-35.61.61v-1.23l35.61-.61v1.23z" fill="#8987e5"/><path d="M396.61 186.69l-35.61.61v-1.22l35.61-.61v1.22z" fill="#8a88e5"/><path d="M396.61 187.91l-35.61.61v-1.22l35.61-.61v1.22z" fill="#8b89e6"/><path d="M396.61 189.13l-35.61.61v-1.22l35.61-.61v1.22z" fill="#8b8ae6"/><path d="M396.61 190.35l-35.61.61v-1.22l35.61-.61v1.22z" fill="#8c8be7"/><path d="M361 190.96l35.61-.61v.71H361v-.1z" fill="#8c8ce7"/></g></g><g clip-path="url(#F)"><path d="M417.15 363.74l-.45-14.23h.45v14.23z" fill="#f995bd"/><path d="M416.35 375.67l-.84-26.16h1.19l.45 14.23v11.93h-.8z" fill="#f994bd"/><use xlink:href="#R" fill="#f993bc"/><use xlink:href="#S" fill="#f992bc"/><path d="M412.79 375.67l-.84-26.16h1.19l.84 26.16h-1.19z" fill="#f991bb"/><path d="M411.6 375.67l-.84-26.16h1.19l.84 26.16h-1.19z" fill="#f990ba"/><path d="M410.42 375.67l-.84-26.16h1.18l.84 26.16h-1.18z" fill="#f98fba"/><path d="M409.23 375.67l-.84-26.16h1.19l.84 26.16h-1.19z" fill="#f98eb9"/><path d="M408.04 375.67l-.84-26.16h1.19l.84 26.16h-1.19z" fill="#f98db9"/><path d="M406.86 375.67l-.84-26.16h1.18l.84 26.16h-1.18z" fill="#f98cb8"/><path d="M405.67 375.67l-.84-26.16h1.19l.84 26.16h-1.19z" fill="#f98ab7"/><path d="M404.48 375.67l-.84-26.16h1.19l.84 26.16h-1.19z" fill="#f989b7"/><path d="M403.3 375.67l-.84-26.16h1.18l.84 26.16h-1.18z" fill="#f988b6"/><path d="M402.11 375.67l-.84-26.16h1.19l.84 26.16h-1.19z" fill="#f987b6"/><use xlink:href="#T" fill="#f986b5"/><use xlink:href="#U" fill="#f985b4"/><path d="M398.55 375.67l-.84-26.16h1.19l.84 26.16h-1.19z" fill="#f984b4"/><path d="M397.36 375.67l-.83-26.16h1.18l.84 26.16h-1.19z" fill="#f983b3"/><path d="M396.18 375.67l-.84-26.16h1.19l.83 26.16h-1.18z" fill="#f982b3"/><path d="M394.99 375.67l-.84-26.16h1.19l.84 26.16h-1.19z" fill="#f981b2"/><path d="M393.81 375.67l-.84-26.16h1.18l.84 26.16h-1.18z" fill="#f980b1"/><path d="M392.62 375.67l-.84-26.16h1.19l.84 26.16h-1.19z" fill="#f97fb1"/><path d="M391.43 375.67l-.84-26.16h1.19l.84 26.16h-1.19z" fill="#f97eb0"/><path d="M390.25 375.67l-.84-26.16h1.18l.84 26.16h-1.18z" fill="#f97db0"/><path d="M389.06 375.67l-.84-26.16h1.19l.84 26.16h-1.19z" fill="#f97caf"/><path d="M387.87 375.67l-.84-26.16h1.19l.84 26.16h-1.19z" fill="#f97baf"/><path d="M386.69 375.67l-.84-26.16h1.18l.84 26.16h-1.18z" fill="#f97aae"/><path d="M385.5 375.67l-.84-26.16h1.19l.84 26.16h-1.19z" fill="#f979ad"/><path d="M384.31 375.67l-.84-26.16h1.19l.84 26.16h-1.19z" fill="#f978ad"/><path d="M383.13 375.67l-.84-26.16h1.18l.84 26.16h-1.18z" fill="#f977ac"/><path d="M381.94 375.67l-.84-26.16h1.19l.84 26.16h-1.19z" fill="#f976ac"/><path d="M380.75 375.67l-.83-26.16h1.18l.84 26.16h-1.19z" fill="#f975ab"/><path d="M379.57 375.67l-.84-26.16h1.19l.83 26.16h-1.18z" fill="#f974aa"/><path d="M378.38 375.67l-.84-26.16h1.19l.84 26.16h-1.19z" fill="#f973aa"/><path d="M377.19 375.67l-.83-26.16h1.18l.84 26.16h-1.19z" fill="#f972a9"/><path d="M376.01 375.67l-.84-26.16h1.19l.83 26.16h-1.18z" fill="#f971a9"/><path d="M374.82 375.67l-.84-26.16h1.19l.84 26.16h-1.19z" fill="#f970a8"/><path d="M373.63 375.67l-.83-26.16h1.18l.84 26.16h-1.19z" fill="#f96fa7"/><path d="M372.45 375.67l-.84-26.16h1.19l.83 26.16h-1.18z" fill="#f96ea7"/><path d="M371.26 375.67l-.84-26.16h1.19l.84 26.16h-1.19z" fill="#f96da6"/><path d="M370.07 375.67l-.83-26.16h1.18l.84 26.16h-1.19z" fill="#f96ca6"/><path d="M368.89 375.67l-.84-26.16h1.19l.83 26.16h-1.18z" fill="#f96ba5"/><path d="M367.7 375.67l-.84-26.16h1.19l.84 26.16h-1.19z" fill="#f96aa4"/><path d="M366.51 375.67l-.83-26.16h1.18l.84 26.16h-1.19z" fill="#f969a4"/><path d="M365.33 375.67l-.84-26.16h1.19l.83 26.16h-1.18z" fill="#f968a3"/><path d="M364.14 375.67l-.84-26.16h1.19l.84 26.16h-1.19z" fill="#f967a3"/><path d="M362.95 375.67l-.83-26.16h1.18l.84 26.16h-1.19z" fill="#f966a2"/><path d="M361.77 375.67l-.84-26.16h1.19l.83 26.16h-1.18z" fill="#f965a1"/><path d="M360.58 375.67l-.84-26.16h1.19l.84 26.16h-1.19z" fill="#f964a1"/><path d="M359.4 375.67l-.84-26.16h1.18l.84 26.16h-1.18z" fill="#f963a0"/><path d="M358.21 375.67l-.84-26.16h1.19l.84 26.16h-1.19z" fill="#f962a0"/><path d="M357.02 375.67l-.84-26.16h1.19l.84 26.16h-1.19z" fill="#f9619f"/><path d="M355.84 375.67l-.84-26.16h1.18l.84 26.16h-1.18z" fill="#f9609f"/><path d="M354.65 375.67l-.84-26.16H355l.84 26.16h-1.19z" fill="#f95f9e"/><path d="M353.46 375.67l-.83-26.16h1.18l.84 26.16h-1.19z" fill="#f95e9d"/><path d="M352.28 375.67l-.84-26.16h1.19l.83 26.16h-1.18z" fill="#f95d9d"/><path d="M351.09 375.67l-.84-26.16h1.19l.84 26.16h-1.19z" fill="#f95c9c"/><path d="M349.9 375.67l-.84-26.16h1.19l.84 26.16h-1.19z" fill="#f95b9c"/><path d="M348.72 375.67l-.84-26.16h1.18l.84 26.16h-1.18z" fill="#f95a9b"/><path d="M347.53 375.67l-.84-26.16h1.19l.84 26.16h-1.19z" fill="#f9599a"/><path d="M346.34 375.67l-.83-26.16h1.18l.84 26.16h-1.19z" fill="#f9589a"/><path d="M345.16 375.67l-.84-26.16h1.19l.83 26.16h-1.18z" fill="#f95799"/><path d="M343.97 375.67l-.84-26.16h1.19l.84 26.16h-1.19z" fill="#f95699"/><g fill="#f95598"><path d="M342.79 375.67l-.84-26.16h1.18l.84 26.16h-1.18z"/><path d="M341.95 349.51l.84 26.16h-2.4v-26.16h1.56z"/></g></g><g fill="#fff"><rect x="293.1" y="268.62" width="171.14" height="28.71" rx="14.35"/><rect x="293.1" y="305.61" width="171.14" height="28.71" rx="14.35"/></g><g fill="#5c49d8"><circle cx="307.18" cy="320.24" r="3.86" transform="matrix(.158675 -.987331 .987331 .158675 -57.76 572.7)"/><circle cx="321.53" cy="320.24" r="3.86"/><circle cx="335.89" cy="320.24" r="3.86"/><circle cx="350.24" cy="320.24" r="3.86" transform="matrix(.160226 -.98708 .98708 .160226 -21.97 614.66)"/><circle cx="364.59" cy="320.24" r="3.86"/><circle cx="378.95" cy="320.24" r="3.86"/><circle cx="393.3" cy="320.24" r="3.86"/><rect x="303.31" y="279.66" width="77.01" height="6.62" rx="3.31"/><rect x="388.33" y="279.66" width="45.55" height="6.62" rx="3.31"/></g><g opacity=".27" fill="#fff"><path d="M474.49,214.76,281.7,407.55v50.69a12.37,12.37,0,0,0,12.37,12.37h51l129.4-129.4Z"/><path d="M474.49,214.76,281.7,407.55v50.69a12.37,12.37,0,0,0,12.37,12.37h51l129.4-129.4Z"/><use xlink:href="#V"/><use xlink:href="#V"/></g><path d="M424.63 412.33c2.16.59 10.93-.42 20.5-2.56 4 4.67 13.47 11.82 33.85 12.34 30.46.78 28.44-1.94 28.44-1.94 4.18-2.37 10.31-15.2 15.86-28.8 4.07 3.73 15.3 13.83 19.15 15.2 4.74 1.69 13.88 2 17.26-4.74s-2.37-17.94-2.37-17.94a281.12 281.12 0 0 0-16.25-33.51c-3.6-6.14-6.31-9.39-8.27-11.07a6.61 6.61 0 0 0-2.86-1.87l-23.58-8-37.5 2.92a6.53 6.53 0 0 0-3.81 1.64h0c-2.34.73-6.36 3.12-13 9.94-12.87 13.2-29.46 41.63-31.82 52.13s.67 15.24 4.4 16.26z" fill="#fff"/><path d="M510.1 417.87a.24.24 0 0 1-.16-.05.26.26 0 0 1 0-.35c3.36-4.23 7.79-13.05 13.15-26.19l.13-.33.26.24c3.22 2.95 11.25 10.19 16.22 13.54a.26.26 0 0 1 .07.35.25.25 0 0 1-.35.06c-4.86-3.29-12.63-10.25-16-13.35-5.32 13-9.72 21.75-13.08 26a.25.25 0 0 1-.24.08zm48.7-14.33a.3.3 0 0 1-.15-.05.26.26 0 0 1 0-.35 8.84 8.84 0 0 0 .87-1.42c3.29-6.58-2.31-17.61-2.37-17.72a282.63 282.63 0 0 0-16.24-33.5c-3.1-5.28-5.87-9-8.22-11h0a6.18 6.18 0 0 0-2.75-1.8l-9.62-3.26a.25.25 0 0 1-.15-.32.24.24 0 0 1 .31-.15l9.62 3.26a6.75 6.75 0 0 1 3 1.93c2.4 2.05 5.19 5.79 8.32 11.11a283.71 283.71 0 0 1 16.26 33.55c.23.44 5.76 11.34 2.36 18.14a10.33 10.33 0 0 1-.91 1.5.26.26 0 0 1-.33.08z" fill="#5c49d8"/><path d="M530.92 453.63c1 0 4.74-1 20-2s24.34 1.37 24.34 1.37 5.08 2 5.08 7.11-3.05 8.46-6.43 9.14-22 2-27.42 1.35-16.93-3.38-20-6.43 4.43-10.54 4.43-10.54zm-14.06-71.52h-13.21a2.35 2.35 0 0 1-2.37-3.25l9.27-29.86a4.89 4.89 0 0 1 4.39-3.25h13.2a2.36 2.36 0 0 1 2.38 3.25l-9.27 29.84a4.88 4.88 0 0 1-4.39 3.27z" fill="#382a73"/><g fill="#5c49d8"><path d="M466.94 418.08l40.62 2s28.44-12.49 37.91-14.18 15.58-1 20 5.41 2.7 17.94-5.08 25.05-26.07 15.91-26.07 15.91-28.09 11.17-38.25 13.2-11.51 2-11.51 2-3.38 1.36-4.74-14.89-6.82-10.8-6.82-10.8l-6.06-23.7z"/><path d="M462.2 468.18s-21.33-8.46-29.45-22.34-8.46-23.36-6.09-30.13 15.57-8.46 15.57-8.46 6.43-1 20.65 5.42 54.84 30.46 54.84 30.46l7.11 4.4s2 4.74-3.05 11.51-10.78 6.09-10.78 6.09l-30.13-9.47-6.48 3.34-4.07 8.13z"/></g><path d="M477.09,457.37s-6.77-2.05-18.28-2.05-21.66.68-24.37,3.08-4.4,6.5-2.71,9.58,5,6.75,15.58,6.84c12.89.1,17.6.34,27.42-3.42s7.78-10.61,7.78-10.61Z" fill="#382a73"/><path d="M480.82 455l-7.34 1.8s-1.46 4.29.91 7.68a40.17 40.17 0 0 0 3.72 4.74l10.16-2.37a26.91 26.91 0 0 1-5.76-6.1c-2.71-4.08-1.69-5.75-1.69-5.75zm42.65-9.16L538.7 454s2.71 4.07 1 7.45a14.69 14.69 0 0 1-4.06 5.08l-16.93-4.4s2.71-1.36 4.74-7.11.02-9.18.02-9.18z" fill="#fcc5b6"/><path d="M533.63,374.41l-2.5-12.35-8-3.76-10.2-.18a.8.8,0,0,0-.73,1.15h0a3.49,3.49,0,0,0,3.13,1.94H520l5,1.59-7.51,1-4.72,2.92a2.39,2.39,0,0,0-.87,3.16l1.14,2.18.4,3.49,1.74,1.92a4.1,4.1,0,0,0,3.65,1.3l1.24-.19,2.72,4c1.82,1.35,5.54,3.67,7.7,3h0a5.83,5.83,0,0,0,3.94-7.27Z" fill="#fcb19c"/><path d="M487.25,375.77l6-7.66,5.28-4.48a5.36,5.36,0,0,1,1.25-.81l6.24-2.87v.11a6,6,0,0,1-2.67,5.57l-4,2.73,9.24-1.76,7.09-3.53a3.32,3.32,0,0,1,3.66.12h0a4.35,4.35,0,0,1,1.69,3.58l-.05,3a7.45,7.45,0,0,1-2.59,5.41l-6.81,6a7.48,7.48,0,0,1-2.6,1.51l-18.82,5.52a3.92,3.92,0,0,1-4.27-1.44h0a7.56,7.56,0,0,1-.26-8.6Z" fill="#fcc5b6"/><path d="M503.19 372.05a.25.25 0 0 1-.06-.49l5.44-1.3a11.32 11.32 0 0 0 3.37-1.39l7.11-4.94a.25.25 0 1 1 .29.4l-7.13 4.95a11.77 11.77 0 0 1-3.52 1.46l-5.44 1.3zm1.34 4.32a.25.25 0 0 1-.24-.18.24.24 0 0 1 .17-.3l4.73-1.36a11 11 0 0 0 2.84-1.28l7.82-5.74a.25.25 0 1 1 .29.4l-7.83 5.75a11.71 11.71 0 0 1-3 1.34l-4.73 1.36zm1.09 3.96a.24.24 0 0 1-.23-.17.25.25 0 0 1 .15-.31l4.48-1.54a11 11 0 0 0 3.41-1.94l6.93-5.74a.24.24 0 0 1 .35 0 .25.25 0 0 1 0 .35l-6.93 5.74a11.78 11.78 0 0 1-3.56 2l-4.49 1.54z" fill="#1a1a1a"/><path d="M491.78,322.44l-3.92,10.2a10.79,10.79,0,0,0-.65,5h0a10.18,10.18,0,0,0,11,9.08h0a5.79,5.79,0,0,0,4.72-3.25l7.73-16Z" fill="#fcc5b6"/><path d="M504.18 463h-.05c-15.76-3-57.19-23.51-57.61-23.72a.25.25 0 0 1 .22-.44c.41.2 41.79 20.67 57.48 23.67a.25.25 0 0 1 .2.29.25.25 0 0 1-.24.2zm17.6-17.93h-.12L476 420a.25.25 0 1 1 .24-.43l45.7 25.05a.25.25 0 0 1-.12.46zm-13.54-9.14a.24.24 0 0 1-.22-.14.25.25 0 0 1 .11-.33l27.76-13.2a.244.244 0 1 1 .21.44l-27.76 13.21zm-10.83-9.82a.25.25 0 0 1-.24-.16.24.24 0 0 1 .15-.31 120.15 120.15 0 0 0 11.82-5.41.25.25 0 0 1 .33.11.24.24 0 0 1-.1.33 121 121 0 0 1-11.88 5.43z" fill="#fff"/><g fill="#1a1a1a"><path d="M434.78 384.48a.25.25 0 0 1-.24-.2.25.25 0 0 1 .19-.29l37.24-7.45 7.49-1.36h5.08a.25.25 0 1 1 0 .5h-5.05l-7.43 1.32c-13 2.37-37 7.39-37.23 7.44zm20.65 22a.25.25 0 0 1-.06-.49c12-2.91 28.24-10.91 29.34-11.46l3.35-5a.25.25 0 0 1 .34-.07.24.24 0 0 1 .07.34l-3.42 5.14h-.06c-.17.09-17.09 8.51-29.5 11.53z"/><path d="M453.74 380.41a.24.24 0 0 1-.16-.05.25.25 0 0 1 0-.34l11.17-14.22a.24.24 0 0 1 .35 0 .23.23 0 0 1 0 .34l-11.17 14.22a.25.25 0 0 1-.19.05zm100.2 2.71a.23.23 0 0 1-.14 0A52.54 52.54 0 0 0 541 377h-5.72a.25.25 0 1 1 0-.49h5.82a52.1 52.1 0 0 1 12.93 6.12.24.24 0 0 1 .07.34.23.23 0 0 1-.16.15zm-27.42 8.8a.25.25 0 0 1-.25-.2l-1-6.1a.25.25 0 0 1 .2-.28.26.26 0 0 1 .29.2l1 6.1a.25.25 0 0 1-.2.28z"/></g><path d="M523 319.48a22.44 22.44 0 0 0 1.91-5.17l.74-2.61a8.92 8.92 0 0 0 .48-3.14 3.92 3.92 0 0 0-1.65-2.88 3.17 3.17 0 0 0-3.25-.17 5.76 5.76 0 0 0-1.77 1.93l-2 3.11a12.25 12.25 0 0 0-1.72 3.28 10.4 10.4 0 0 0 .47 6 5.85 5.85 0 0 0 1.1 2.2c2 2.33 4.6-.7 5.69-2.55z" fill="#5c49d8"/><path d="M524,302c-1.25-2.64-4.17-4.07-7-4.8a25.28,25.28,0,0,0-17,1.7,14.11,14.11,0,0,0-4.94,3.66c-2.5,3.12-2.84,7.47-4.7,11a3.52,3.52,0,0,0-1.43-.55,4.49,4.49,0,0,0-3.76,1.5,6.92,6.92,0,0,0-1.62,3.81,6.26,6.26,0,0,0,1.07,4.64c1.38,1.76,3.79,2.26,6,2.64-.94,4,.46,8.21,2.68,11.49a16.9,16.9,0,0,0,11.05,7.2A10,10,0,0,0,514.67,340c2.15-3,3.08-6.63,4-10.19l5.78-23.09A7.31,7.31,0,0,0,524,302Z" fill="#fcc5b6"/><path d="M502.78 314.5a5.84 5.84 0 0 0-1.43-.05c-.43.06-.75.24-.71.49s.67.69 1.28.93a21.38 21.38 0 0 0 4.67 1.13 4.52 4.52 0 0 0 2.08 0c.41-.18.41-.55.05-.88a2.94 2.94 0 0 0-1.07-.47 24.81 24.81 0 0 0-4.87-1.15zm16.49 2.91a5.6 5.6 0 0 1 1.3.62c.35.25.55.57.4.79s-.92.34-1.58.29a20.31 20.31 0 0 1-4.67-1.1 4.35 4.35 0 0 1-1.85-1c-.28-.35-.11-.71.36-.85a2.76 2.76 0 0 1 1.17 0 23.23 23.23 0 0 1 4.87 1.25z" fill="#5c49d8"/><g fill="#1a1a1a"><ellipse cx="502.91" cy="320.75" rx="1.42" ry=".85" transform="matrix(.231748 -.972776 .972776 .231748 74.32 735.62)"/><ellipse cx="514.81" cy="323.7" rx="1.42" ry=".85" transform="matrix(.231748 -.972776 .972776 .231748 80.6 749.47)"/></g><path d="M507.63 334.35h-.05a7.75 7.75 0 0 1-5.67-4.74.27.27 0 0 1 .16-.35.26.26 0 0 1 .35.15 7.2 7.2 0 0 0 5.26 4.41.27.27 0 0 1 .22.32.28.28 0 0 1-.27.21zm-5.22 9.49h-.06A15.9 15.9 0 0 1 490 328.31a.27.27 0 0 1 .27-.27h0a.27.27 0 0 1 .27.27 15.39 15.39 0 0 0 11.93 15 .26.26 0 0 1 .2.32.27.27 0 0 1-.26.21z"/><path d="M490.15 316.19a.75.75 0 0 0 .4-.16 22.14 22.14 0 0 0 3.63-4c1.22-1.44 3.16-1.57 4.38-3 .61-.72.47-2.76 1.11-3.46.27-.3 1.38-1.84 1.77-1.84 4.85.48 9 2.6 13.7 3.88 2.35.64 5.11.61 7.7 1.05 1.14.19 2.46.92 3.33.06a15.82 15.82 0 0 0 2-2.38 8.5 8.5 0 0 0 1.32-3.13c.52-2.86-.79-5.7-2.07-8.32a13.86 13.86 0 0 0-5.29-5.65c-1.91-.92-4.22-.59-6.17-1.41-1.45-.61-2.64-1.83-4.18-2.15s-3.35.43-5 1a21.49 21.49 0 0 1-8.06 1.27 37.9 37.9 0 0 0-4.64-.12 5.8 5.8 0 0 0-4.08 1.95c-1.16 1.48-1.13 3.54-1.79 5.3-.72 1.91-2.22 3.4-3.21 5.18-1.15 2.08-.21 4.79-.61 7.13a6.76 6.76 0 0 0 0 3.16 6.84 6.84 0 0 0 2.85 3.16c.81.58.27.86 1.08 1.44.57.38 1.19 1.11 1.83 1.04z" fill="#5c49d8"/><path d="M511 321.71a4.51 4.51 0 0 0 .49 1.1 11.84 11.84 0 0 1 1.16 3.06 1.51 1.51 0 0 1 0 .73 1.42 1.42 0 0 1-.67.74 10.58 10.58 0 0 1-2.88 1.06.85.85 0 0 1-.75 0 .72.72 0 0 1-.18-.72c.19-1.2.79-2.31 1-3.5.18-1 .1-2 .29-3a1.83 1.83 0 0 1 .37-.87.92.92 0 0 1 .89-.33.55.55 0 0 1 .44.7 1.51 1.51 0 0 0-.16 1.03z" fill="#fcc5b6"/><path d="M509 329a.27.27 0 0 1-.11-.52l2.81-1.27a1.39 1.39 0 0 0 .73-1.76l-1.46-3.82a1.91 1.91 0 0 1 .22-1.79.27.27 0 1 1 .44.32 1.39 1.39 0 0 0-.16 1.28l1.47 3.81a1.94 1.94 0 0 1-1 2.46l-2.88 1.29z"/><path d="M490.86 313.55a3.11 3.11 0 0 1 1.43 1 3 3 0 0 1 .4 2 3.14 3.14 0 0 1-.72 1.9 2.77 2.77 0 0 1-1.7.78 4.3 4.3 0 0 1-3.13-.86 2.14 2.14 0 0 1-.84-1.21 2.78 2.78 0 0 1 .27-1.54c.2-.53-.66-1.26-.45-1.8.13-.34 1.29-.6 1.69-.7a5.71 5.71 0 0 1 3.05.43z" fill="#fcc5b6"/><path d="M487.24 320.51h-.07a.27.27 0 0 1-.19-.33 4.89 4.89 0 0 1 3.46-3.39.28.28 0 0 1 .33.2.29.29 0 0 1-.2.33 4.34 4.34 0 0 0-3.07 3 .27.27 0 0 1-.26.19z"/><path d="M497.07 352a13.64 13.64 0 0 1-6.48-1.6 14 14 0 0 1-7.13-12.2.24.24 0 0 1 .25-.24h0a.23.23 0 0 1 .24.25 13.15 13.15 0 0 0 20.48 11.12.25.25 0 0 1 .34.07.24.24 0 0 1-.07.34 13.72 13.72 0 0 1-7.63 2.26z" fill="#1a1a1a"/><path d="M435.37 420.94h-.12a.26.26 0 0 1-.1-.34 54.4 54.4 0 0 1 5.51-8.28.25.25 0 1 1 .38.31 52.92 52.92 0 0 0-5.45 8.21.26.26 0 0 1-.22.1zM566 414.53h-.08l-5.85-2.1a.25.25 0 0 1-.14-.32.24.24 0 0 1 .31-.14l5.84 2.1a.25.25 0 0 1-.08.48zm-112.21 52.63a.28.28 0 0 1-.2-.08.27.27 0 0 1-.09-.2l-.17-5.43a.28.28 0 0 1 .26-.29l16.76-1.65a.3.3 0 0 1 .32.26.29.29 0 0 1-.26.32l-16.49 1.62.15 4.86 16.47-.65a.3.3 0 0 1 .3.28.3.3 0 0 1-.28.3l-16.76.66zM437.78 471a.3.3 0 0 1-.25-.14 11 11 0 0 1 .59-11.8.29.29 0 0 1 .41-.06.3.3 0 0 1 .06.4 10.43 10.43 0 0 0-.56 11.17.29.29 0 0 1-.1.39.28.28 0 0 1-.15.04zm117.68-8.4c-4.13 0-8.85-.05-11.15-.21a.291.291 0 1 1 .04-.58c4.17.3 16.36.19 18.41.17l-.15-5.51-18.61-.32a.3.3 0 0 1-.28-.3.28.28 0 0 1 .29-.28h0l18.9.33a.28.28 0 0 1 .28.28l.17 6.08a.27.27 0 0 1-.29.29c-.07.01-3.56.05-7.61.05zm19.54 2.57a.28.28 0 0 1-.24-.45 8 8 0 0 0-.11-8.89.29.29 0 0 1 .47-.33 8.64 8.64 0 0 1 .12 9.54.28.28 0 0 1-.24.13z" fill="#fff"/><g opacity=".2"><ellipse cx="419.01" cy="473.18" rx="185.63" ry="5.24" fill="#5c49d8"/></g></svg>