<svg id="Layer_1" enable-background="new 0 0 512 512" viewBox="0 0 512 512" xmlns="http://www.w3.org/2000/svg"><g><g><path clip-rule="evenodd" d="m107.955 236.124h13.517v-64.938c0-52.076 42.6-94.676 94.676-94.676 52.047 0 94.647 42.6 94.647 94.676v64.938h13.517c28.884 0 52.531 23.648 52.531 52.503v164.252c0 28.884-23.648 52.503-52.531 52.503h-216.357c-28.884 0-52.503-23.619-52.503-52.503v-164.252c.001-28.855 23.62-52.503 52.503-52.503zm68.837 0h78.683v-64.938c0-21.542-17.814-39.356-39.327-39.356-21.542 0-39.356 17.814-39.356 39.356z" fill="#23a8fe" fill-rule="evenodd"/></g><g><path clip-rule="evenodd" d="m376.843 306.27v133.348h-124.271l-57.027 55.235v-30.62-24.615-133.348z" fill="#0083e0" fill-rule="evenodd"/></g><path clip-rule="evenodd" d="m428.13 182.54c-8.124-43.792-29.63-83.979-62.25-115.46-40.4-38.99-93.575-60.463-149.732-60.463-118.909.001-215.648 96.727-215.648 215.621 0 6.09 4.954 11.045 11.044 11.045s11.044-4.955 11.044-11.045c0-106.713 86.831-193.53 193.559-193.53 93.478 0 171.285 65.376 189.498 153.833h-29.855l43.539 50.824 43.51-50.824h-34.709z" fill="#ffb74d" fill-rule="evenodd"/><g><path clip-rule="evenodd" d="m208.578 76.824c2.504-.199 5.008-.313 7.569-.313 52.047 0 94.647 42.6 94.647 94.676v64.91c-1.024-.057-2.077-.085-3.13-.085h-13.517v-64.967c.001-49.003-37.733-89.611-85.569-94.221zm102.814 159.3h12.919c28.884 0 52.531 23.648 52.531 52.503v164.252c0 28.884-23.648 52.503-52.531 52.503h-2.134c22.025-6.659 38.018-28.599 38.018-52.645v-164.224c.001-27.631-21.626-50.453-48.803-52.389zm-103.269-103.44c-17.757 3.756-31.331 19.72-31.331 38.502v64.824h-16.647v-64.967c0-21.513 17.814-39.327 39.356-39.327 2.959.001 5.833.342 8.622.968z" fill="#0083e0" fill-rule="evenodd"/></g><g><path clip-rule="evenodd" d="m481.791 285.44h-322.642c-16.334 0-29.709 13.375-29.709 29.709v73.902c0 16.363 13.375 29.709 29.709 29.709h36.396v55.263l57.027-55.263h229.219c16.334 0 29.709-13.346 29.709-29.709v-73.902c0-16.334-13.375-29.709-29.709-29.709z" fill="#ffb74d" fill-rule="evenodd"/></g><g fill="#eaf6ff"><path d="m259.883 332.777c-1.942-3.362-6.24-4.513-9.602-2.572l-16.832 9.719v-19.426c0-3.882-3.147-7.029-7.029-7.029s-7.029 3.147-7.029 7.029v19.426l-16.831-9.719c-3.362-1.939-7.661-.79-9.602 2.572s-.79 7.661 2.572 9.602l16.834 9.721-16.834 9.721c-3.362 1.941-4.513 6.24-2.572 9.602 1.302 2.255 3.665 3.516 6.093 3.516 1.193 0 2.401-.304 3.509-.943l16.831-9.719v19.426c0 3.882 3.147 7.029 7.029 7.029s7.029-3.147 7.029-7.029v-19.426l16.832 9.719c1.107.639 2.316.943 3.509.943 2.429 0 4.792-1.261 6.093-3.516 1.941-3.362.79-7.661-2.572-9.602l-16.834-9.721 16.834-9.721c3.362-1.941 4.513-6.24 2.572-9.602z"/><path d="m353.933 332.777c-1.942-3.362-6.24-4.513-9.602-2.572l-16.832 9.72v-19.426c0-3.882-3.147-7.029-7.029-7.029s-7.029 3.147-7.029 7.029v19.426l-16.831-9.719c-3.361-1.939-7.661-.79-9.602 2.572s-.79 7.661 2.572 9.602l16.834 9.721-16.834 9.721c-3.362 1.941-4.514 6.24-2.572 9.602 1.302 2.255 3.665 3.516 6.093 3.516 1.193 0 2.401-.304 3.509-.943l16.831-9.719v19.426c0 3.882 3.147 7.029 7.029 7.029s7.029-3.147 7.029-7.029v-19.426l16.832 9.72c1.107.639 2.316.943 3.509.943 2.429 0 4.792-1.261 6.093-3.516 1.941-3.362.79-7.661-2.572-9.602l-16.834-9.721 16.834-9.721c3.362-1.943 4.513-6.242 2.572-9.604z"/><path d="m445.382 361.821-16.827-9.722 16.827-9.722c3.361-1.942 4.512-6.241 2.57-9.603s-6.242-4.514-9.602-2.57l-16.802 9.708v-19.415c0-3.882-3.147-7.029-7.029-7.029s-7.029 3.147-7.029 7.029v19.432l-16.831-9.724c-3.36-1.943-7.661-.792-9.602 2.57-1.942 3.362-.791 7.661 2.57 9.603l16.827 9.722-16.827 9.722c-3.361 1.942-4.512 6.241-2.57 9.603 1.302 2.254 3.664 3.514 6.092 3.514 1.193 0 2.403-.304 3.51-.944l16.831-9.724v19.432c0 3.882 3.147 7.029 7.029 7.029s7.029-3.147 7.029-7.029v-19.415l16.802 9.708c1.107.64 2.316.944 3.51.944 2.428 0 4.791-1.26 6.092-3.514 1.942-3.364.792-7.662-2.57-9.605z"/></g><g><path clip-rule="evenodd" d="m140.339 304.25h219.857 16.647 86.11c16.334 0 29.709 13.375 29.709 29.709v73.93c0 3.273-.541 6.403-1.508 9.362 11.781-3.956 20.347-15.111 20.347-28.201v-73.902c0-16.334-13.375-29.709-29.709-29.709h-105.063-16.647-200.933c-13.062 0-24.245 8.537-28.201 20.347 2.96-.996 6.119-1.536 9.391-1.536z" fill="#e09109" fill-rule="evenodd"/></g></g></svg>