<svg id="Layer_1" data-name="Layer 1" xmlns="http://www.w3.org/2000/svg" xmlns:xlink="http://www.w3.org/1999/xlink" viewBox="0 0 300 300"><defs><style>.cls-1,.cls-3{fill:#fcd777;}.cls-2{fill:#fef0ca;}.cls-14,.cls-15,.cls-16,.cls-19,.cls-3{opacity:0.5;}.cls-4{fill:#eda49a;}.cls-5{fill:#0eafe9;}.cls-6{fill:#123a76;}.cls-18,.cls-7,.cls-8{fill:#235da3;}.cls-7{opacity:0.25;}.cls-9{fill:#1b4c8d;}.cls-10{fill:url(#linear-gradient);}.cls-11{fill:url(#linear-gradient-2);}.cls-12,.cls-18{opacity:0.2;}.cls-13,.cls-15{fill:#d8776a;}.cls-14{fill:#1c8ef4;}.cls-16,.cls-22{fill:#fabd23;}.cls-17{fill:url(#linear-gradient-3);}.cls-19{fill:#00cfdd;}.cls-20{fill:#e38e82;}.cls-21{opacity:0.52;}</style><linearGradient id="linear-gradient" x1="117.6" y1="166.15" x2="206.35" y2="42.27" gradientUnits="userSpaceOnUse"><stop offset="0" stop-color="#1c8ef4"/><stop offset="1" stop-color="#00cfdd"/></linearGradient><linearGradient id="linear-gradient-2" x1="122.18" y1="169.52" x2="211" y2="45.55" xlink:href="#linear-gradient"/><linearGradient id="linear-gradient-3" x1="109.91" y1="157.33" x2="194.13" y2="39.78" xlink:href="#linear-gradient"/></defs><path class="cls-1" d="M177,32.76V21a3,3,0,0,0-3-3H46.27a3,3,0,0,0-3,3V32.76Z"/><path class="cls-2" d="M43.25,32.13v71.18a3,3,0,0,0,3,3H174a3,3,0,0,0,3-3V32.13Z"/><polygon class="cls-3" points="165.61 82.24 177.01 78 177.01 87.35 157.99 95.18 165.61 82.24"/><circle class="cls-2" cx="154.45" cy="24.86" r="1.53"/><circle class="cls-2" cx="159.72" cy="24.86" r="1.53"/><circle class="cls-2" cx="164.98" cy="24.86" r="1.53"/><path class="cls-3" d="M62.29,51.74H80.35a1.59,1.59,0,1,0,0-3.18H62.29a1.59,1.59,0,1,0,0,3.18Z"/><path class="cls-3" d="M86.34,51.74h6.94a1.59,1.59,0,1,0,0-3.18H86.34a1.59,1.59,0,1,0,0,3.18Z"/><path class="cls-1" d="M99.27,51.74h14a1.59,1.59,0,0,0,0-3.18h-14a1.59,1.59,0,1,0,0,3.18Z"/><path class="cls-1" d="M62.29,58.67h7.76a1.6,1.6,0,0,0,0-3.19H62.29a1.6,1.6,0,0,0,0,3.19Z"/><path class="cls-3" d="M100.39,55.48H76a1.6,1.6,0,1,0,0,3.19h24.35a1.6,1.6,0,1,0,0-3.19Z"/><path class="cls-1" d="M113.23,55.48h-6.85a1.6,1.6,0,0,0,0,3.19h6.85a1.6,1.6,0,0,0,0-3.19Z"/><path class="cls-3" d="M81,62.4H62.29a1.6,1.6,0,0,0,0,3.19H81a1.6,1.6,0,1,0,0-3.19Z"/><path class="cls-1" d="M93.28,62.4H87a1.6,1.6,0,0,0,0,3.19h6.26a1.6,1.6,0,0,0,0-3.19Z"/><path class="cls-1" d="M62.29,78h7.76a1.6,1.6,0,0,0,0-3.19H62.29a1.6,1.6,0,0,0,0,3.19Z"/><path class="cls-3" d="M100.39,74.81H76A1.6,1.6,0,1,0,76,78h24.35a1.6,1.6,0,1,0,0-3.19Z"/><path class="cls-1" d="M113.23,74.81h-6.85a1.6,1.6,0,0,0,0,3.19h6.85a1.6,1.6,0,0,0,0-3.19Z"/><path class="cls-3" d="M81,81.73H62.29a1.6,1.6,0,0,0,0,3.19H81a1.6,1.6,0,1,0,0-3.19Z"/><path class="cls-1" d="M93.28,81.73H87a1.6,1.6,0,0,0,0,3.19h6.26a1.6,1.6,0,0,0,0-3.19Z"/><path class="cls-3" d="M154.61,57.48H153V55.67A6.91,6.91,0,0,0,146,48.76h-6.12A6.91,6.91,0,0,0,133,55.67v1.81h-.86a5,5,0,0,0-4.95,5v20a5,5,0,0,0,4.95,5h22.47a5,5,0,0,0,4.95-5v-20A5,5,0,0,0,154.61,57.48Zm-8.05-4.7a2.7,2.7,0,0,1,0,5.4h-6.37a2.7,2.7,0,1,1,0-5.4Z"/><path class="cls-2" d="M74.15,279.17s66.11-.09,68.36,2.4S82.23,285,79,284.56C72.2,283.56,68,279.16,74.15,279.17Z"/><path class="cls-2" d="M187.18,278.33s66.12-.09,68.36,2.4-60.27,3.45-63.47,3C185.23,282.72,181,278.32,187.18,278.33Z"/><g id="Foot"><polygon class="cls-4" points="216.85 255.32 219.6 270.5 227.82 272.31 228.4 253.93 216.85 255.32"/><path class="cls-5" d="M218,265.08c-1.3-1-1.08,14.52,0,14.93s28.77,1.14,31.32,0,2.72-6.29-1.55-7.16-13.2-2.43-15.91-5.84c0,0-1.88-4.54-2.58-5s-.93,3-.93,3S221.14,267.4,218,265.08Z"/><path class="cls-6" d="M245,272.3c.06.17-.26.4-.59.85a5.81,5.81,0,0,0-.8,2.08c-.38,1.79-.4,3.39-.73,3.42s-.8-1.59-.38-3.67a4.05,4.05,0,0,1,1.35-2.4C244.49,272.14,245,272.18,245,272.3Z"/><path class="cls-6" d="M217.1,277.48c0,.54,0,2.95.94,3.14s32.24.43,32.45,0a23.47,23.47,0,0,0,.37-2.32C251,278,217.1,277.48,217.1,277.48Z"/><path class="cls-6" d="M234,271.65c-.74-.85.91-2.81,1.4-2.68S234.75,272.48,234,271.65Z"/><path class="cls-6" d="M236.71,272.52c-.75-.85.91-2.81,1.39-2.68S237.44,273.35,236.71,272.52Z"/><path class="cls-6" d="M239.51,273.22c-.74-.85.91-2.81,1.4-2.68S240.25,274.05,239.51,273.22Z"/><path class="cls-7" d="M227.85,272.63a2.68,2.68,0,1,1-2.67-2.67A2.68,2.68,0,0,1,227.85,272.63Z"/></g><path class="cls-8" d="M216.23,262.19,229.78,261s-4.53-71.45-8.46-79.48S176.07,139,176.07,139l-33.48-3.93s-1.9,30.28,12.4,39.52c7.73,5,41.37,21.5,41.37,21.5Z"/><path class="cls-9" d="M219.89,261.88l-3.66.31-19.87-66.08S162.73,179.63,155,174.62c-14.3-9.24-12.39-39.52-12.39-39.52L176.07,139s10.31,8.6,21.12,18.22c-6.72-1.35-17.4-3.34-18.24-2.81-1.24.77-7.1,19.26-5.48,22.8s20.73,14.33,23,14.49,12.86-2.93,11-1.24-10.82,3.7-4.9,4.47,13.49-7.09,12.57-3.54-9.42,7.55-9.34,11.09C205.9,205.55,215.88,248.08,219.89,261.88Z"/><g id="Foot-2" data-name="Foot"><polygon class="cls-4" points="106.59 254.47 95.64 265.7 89.96 257.94 96.9 247.78 106.59 254.47"/><path class="cls-5" d="M92.05,253.84c-.24-1.61-11,9.59-10.56,10.65s14.7,15.34,17.33,16.33,15.41-1,13-4.65c-.78-1.16-5.87,1.55-7-.17-2.29-3.65-4.62-8-4.3-11,0,0,1.87-4.57,1.68-5.36s-2.81,1.5-2.81,1.5S92.65,257.72,92.05,253.84Z"/><path class="cls-6" d="M112.27,280.58c1-1.2-.1-3.91-.2-3.81-7,6.87-13.71,2.25-13.71,2.25h0c-3.24-3.72-15.72-17-15.72-17-.4.37-2.11,2.08-1.55,2.9.43.64,15.7,17,17.73,17.91C101.76,284.12,111.24,281.78,112.27,280.58Z"/><path class="cls-6" d="M98.82,269.85c.07-1.13,2.64-1.36,2.89-.92S98.76,271,98.82,269.85Z"/><path class="cls-6" d="M100.12,272.37c.07-1.13,2.64-1.36,2.89-.92S100.06,273.49,100.12,272.37Z"/><path class="cls-6" d="M101.63,274.85c.07-1.13,2.64-1.35,2.89-.92S101.57,276,101.63,274.85Z"/><path class="cls-7" d="M94.27,264.79a2.69,2.69,0,1,1,0-3.8A2.69,2.69,0,0,1,94.27,264.79Z"/></g><path class="cls-8" d="M92.36,251.05s13.2,9.32,13.76,9.09,46.4-43.24,55.68-61.5c4.1-8.07,5.23-27.59,7.29-41.35,3.69-6,4.39-15.17,4.39-15.17H133.34l-.42,49Z"/><path class="cls-9" d="M173.47,142.12s-.69,9.16-4.38,15.16c-1.05,7-1.85,15.49-2.93,23.21-.44-7.15-1.17-17.39-1.74-19.05-.88-2.53-22.09-7.85-23.74-1.15s-2.73,27.5-.56,30.05,6.54,2.7,6.54,4.24-8.77.1-9.39,0c.66.2,11.24,3.45,11,6.54s-12.83-2.82-13.86-1.66c-.9,1-32.41,40.66-39.74,53.21-1.38-1-2.32-1.63-2.32-1.63l40.56-59.88.42-49Z"/><path class="cls-6" d="M176,144.13l-6.44,13.74s-3.11,26.86-3.94,26.08.56-24.58,1-25.85,3.93-9,3.47-8.9-7-.56-6.71-.8S176,144.13,176,144.13Z"/><path class="cls-4" d="M175.16,102.16l5,8.67,19.19-26.6,6.45,2S190,126.82,189.89,127.9s-11.79,4.43-14,4.2-13.17-25.27-13.17-25.27Z"/><path class="cls-4" d="M198.67,85.68s1.08-3.51.77-4.08a25.32,25.32,0,0,1-.77-3.7s1.15-.31,1.31.19a19.07,19.07,0,0,0,1.35,2.31s.84-2.93,1.5-2.77,6.2,2,6.24,2.62-2.31,5.78-3.43,6.47a13.23,13.23,0,0,0-2,1.54Z"/><path class="cls-10" d="M163,76.9s3.84,1.85,4.37,2.87S179,104.62,179,106.34s-14.42,7.12-14.42,7.12S155.89,95.89,156,93.88,163,76.9,163,76.9Z"/><path class="cls-11" d="M183.41,141.11c.53,1.08-14,8.86-31.35,11.39-8.23,1.2-21.23,1.51-21.28-1-.55-23.58,11.85-69.88,14.35-71.09S156.78,73.84,163,76.9,176.07,126.05,183.41,141.11Z"/><g class="cls-12"><path class="cls-8" d="M183.41,141.1c-5.21-10.7-10.25-37.08-14.93-52.54l-7.66,2.09s-1.09,19.61-7,12.77c-3.94-4.54-8.69-12.09-11.43-16.64-4.48,13.72-12,46.21-11.59,64.7.05,2.54,13.05,2.22,21.27,1C169.39,150,183.94,142.19,183.41,141.1Zm-42.24,4.83c.86,2.17-.74.15-2.13,0s1.27,1.18,1.64,4.23-3.38,0-6.73-1.76,2.32-26.12,2.78-30.28a27.19,27.19,0,0,1,4,4.62c1.88,2.77.56,14.09-1.4,15.35S140.31,143.77,141.17,145.93Zm7.11,4.23c2-1.42,5.31-2.48,2.66-2.76s-5.2-1.16-2.66-1.47,2.77-.25,1.15-1.15-4.16-1.59-3.75-3.44.29-6.59,1.44-5.15c0,0,.13,4.45,2.78,5s18.49,2,18.72,3.44S146.31,151.59,148.28,150.16Z"/></g><path class="cls-8" d="M145.05,153.4c-.08,0-.31-.57-.67-1.68a14.37,14.37,0,0,1-.54-2.06c-.15-.81-.39-1.73-.51-2.77a87.74,87.74,0,0,1-.54-16.22,160.7,160.7,0,0,1,1.53-16.14c.61-4.1,1.16-6.61,1.31-6.59s-.1,2.57-.5,6.69-.92,9.8-1.19,16.09a117.31,117.31,0,0,0,.2,16.07C144.53,150.89,145.25,153.34,145.05,153.4Z"/><path class="cls-6" d="M149.92,66s2.25,1,1.17,4.26,8.81,5.69,10.7,3.11.22-7.87,6.54-13,6.19-10,5.06-12.45-3.53-.86-3.53-.86.61-4.23-2.65-4.46-3.05,3.15-3.05,3.15-4.1-5-8.93-3.23-5,7.91-5,7.91S137.61,52.76,149.92,66Z"/><path class="cls-4" d="M151.37,77c.8-3,2.08-9.18,2.71-11.46.18-.68,7.24,5.14,7.24,5.14s1.09,6.58.62,9.92C163,82.06,150.66,79.7,151.37,77Z"/><path class="cls-13" d="M162,76.19c-.19-2.81-.63-5.47-.63-5.47s-3.5-2.89-5.63-4.34a5.31,5.31,0,0,0-.17,1C154.87,74.14,160.73,75.9,162,76.19Z"/><path class="cls-14" d="M162.24,79s3.08,4.67-1.46,4.48c-1.07,0-10-2-10.08-5.46C150.7,78.06,160.06,76.18,162.24,79Z"/><path class="cls-8" d="M150.5,77.82l1.44-3s6.05,4.1,10.23,1.9c.26.7,1.21,5.34-1.39,5.56C157.28,82.52,150.93,79,150.5,77.82Z"/><path class="cls-4" d="M168.78,69.83a5,5,0,0,1-2.23,2.82c-7.59,4.42-12.2-6.39-12.51-6.4s-.6.14-.91.17c-1.18.15-1.79-1.82-2-3-.71-3.54,1.7-3,2.38-2.21l0,.05.07.11h0c.94.92,2.21-2,1.84-4.11-.42-2.34,2.72-1.73,3.13-3,1.07-3.14,3.7-.66,5.89.84a2.66,2.66,0,0,0,2.22.45,14.07,14.07,0,0,1,.71,1.26C169.33,60.52,170.14,65.92,168.78,69.83Z"/><path class="cls-6" d="M161,67.32a7.46,7.46,0,0,0,.52,1.87,2.76,2.76,0,0,0,3,1.87c1.73-.12,2.43-3.24,2.43-3.24A8.18,8.18,0,0,1,161,67.32Z"/><path class="cls-2" d="M165.82,69.79a2.42,2.42,0,0,1-1.43,1c-1.3.32-2.07-.76-2.52-1.81A3.41,3.41,0,0,1,165.82,69.79Z"/><path class="cls-6" d="M152.49,61.62l.16,1.15-.82-.15.71.58a1.77,1.77,0,0,1,.06,1.06C153.38,63.5,152.86,62.09,152.49,61.62Z"/><path class="cls-6" d="M157.3,58.48c.21.32,1.36-.09,2.14-.62s1.46-1.23,1.25-1.54-1.23-.13-2,.4S157.08,58.17,157.3,58.48Z"/><path class="cls-6" d="M168,57.61c-.15.34-1.35.13-2.22-.27s-1.06-.82-.9-1.17.61-.47,1.48-.07S168.19,57.27,168,57.61Z"/><path class="cls-15" d="M159,62.3c0,.42.52.79,1.22.83s1.27-.27,1.29-.69-.52-.79-1.21-.83S159,61.88,159,62.3Z"/><path class="cls-15" d="M165.68,62.18c0,.43.52.8,1.21.83s1.28-.27,1.3-.69-.52-.79-1.21-.83S165.7,61.76,165.68,62.18Z"/><path class="cls-6" d="M163.67,64.52h.14a1.06,1.06,0,0,0,.9-.64c.15-.42-.06-.94-.62-1.58s-.76-2.2-1-2.22-.51,1.7.4,2.72c.43.49.5.76.47.84s-.09.1-.32.14a.38.38,0,0,0-.31.43A.36.36,0,0,0,163.67,64.52Z"/><path class="cls-6" d="M165.64,60.78c.11.65.57,1.1,1,1s.73-.66.61-1.31-.57-1.1-1-1S165.53,60.14,165.64,60.78Z"/><path class="cls-6" d="M159.38,60.81c.12.65.57,1.1,1,1s.73-.67.61-1.32-.57-1.1-1-1S159.27,60.17,159.38,60.81Z"/><path class="cls-2" d="M156.54,60.59a3.78,3.78,0,0,0,3.18,4.16,3.56,3.56,0,0,0,3.64-3.58A3.79,3.79,0,0,0,160.17,57,3.56,3.56,0,0,0,156.54,60.59Zm.84.07A2.67,2.67,0,0,1,160.11,58a2.85,2.85,0,0,1,2.41,3.13,2.69,2.69,0,0,1-2.75,2.7A2.86,2.86,0,0,1,157.38,60.66Z"/><path class="cls-2" d="M163.85,60.53A3.79,3.79,0,0,0,167,64.7a3.56,3.56,0,0,0,3.64-3.59A3.78,3.78,0,0,0,167.48,57,3.55,3.55,0,0,0,163.85,60.53Zm.84.08a2.67,2.67,0,0,1,2.73-2.7A2.85,2.85,0,0,1,169.83,61a2.69,2.69,0,0,1-2.75,2.7A2.85,2.85,0,0,1,164.69,60.61Z"/><path class="cls-2" d="M226.8,86v36.39c-4.1,19.67-31.69,30.23-31.69,30.23s-27.59-10.56-31.69-30.23V86l31.69-11.55Z"/><path class="cls-4" d="M204,76.43s-.23-1.65-2.2-.61-1.55,2.47-.83,2.54a1.65,1.65,0,0,0,1.92-.79s-.22,1,.58,1.25a1.84,1.84,0,0,0,1.44-.29s-.39.89-.08,1.17a1.76,1.76,0,0,0,2.09-.49s-.09,1.08,1.18.86,1-.53,1-.53l1.4.56a2.16,2.16,0,0,0-2.28-2.21s-.47-1.48-2-.57C206.2,77.32,205.75,75.24,204,76.43Z"/><path class="cls-13" d="M204,76.45c0,.06-.26.27-.56.59s-.49.63-.55.61,0-.42.38-.77S204,76.39,204,76.45Z"/><path class="cls-13" d="M206.22,77.27s-.07.1-.18.21l-.43.44c-.34.36-.62.65-.67.61s.15-.4.5-.77a2.15,2.15,0,0,1,.5-.41C206.09,77.26,206.2,77.25,206.22,77.27Z"/><path class="cls-13" d="M208.24,77.89s-.08.09-.2.19a4.16,4.16,0,0,0-.46.47c-.33.39-.57.74-.63.71s.1-.44.46-.86a1.74,1.74,0,0,1,.53-.45C208.11,77.86,208.23,77.86,208.24,77.89Z"/><path class="cls-3" d="M195.12,145.93c-7.78-3.51-22.66-12.42-25.54-24.24V90.31L195.11,81l25.52,9.31v31.38C217.75,133.57,202.89,142.44,195.12,145.93Z"/><path class="cls-16" d="M204.89,100.09a9.79,9.79,0,1,1-9.78-9.79A9.78,9.78,0,0,1,204.89,100.09Z"/><path class="cls-16" d="M219.09,125.87c-4.84,9.77-17.14,17-24,20.06-6.83-3.08-19.13-10.33-24-20.06a26,26,0,0,1,48,0Z"/><path class="cls-6" d="M163.43,112.22s-4.61,4.55-9.19,5.57a80.46,80.46,0,0,1-12,1.21s9.5-10,13.41-10.26S163.43,112.22,163.43,112.22Z"/><path class="cls-4" d="M160.85,106.34l-16.68,6.5s2.59,20.6,5.61,22.72c1.51,1.06,8.82.59,10.27.05s3.37-9.56,3.37-9.56Z"/><path class="cls-4" d="M160.76,121.27,202.6,140s-1.08,5.78-3.7,6.71-48.1-7.49-49.12-11.1.51-10.71,1.59-11.94S160.76,121.27,160.76,121.27Z"/><path class="cls-15" d="M162.2,111.86s-11.87,3.32-16.93,8.32l-.83-4.69s13.42-6.91,17-6.61Z"/><path class="cls-17" d="M142.2,119a29.72,29.72,0,0,1,21.23-6.78c-1.47-9-6.19-24.52-7.41-26s-5.64-8.17-7.35-7.55c-3.16,1.14-6.1,2.37-7.72,6.26C140.86,86.2,139.93,115,142.2,119Z"/><path class="cls-18" d="M163.43,112.22A29.75,29.75,0,0,0,142.2,119c-1.37-2.45-1.58-14-1.51-22.94.93,5.68,2.29,12.55,3.75,14.62,2.61,3.7,13.62-.12,14.86-2,.66-1,.88-5.92.93-10.23A136.16,136.16,0,0,1,163.43,112.22Z"/><path class="cls-8" d="M142.2,119c-.06,0-.32-.33-.63-1.09-.12-.39-.26-.86-.4-1.42s-.22-1.2-.34-1.9a91.91,91.91,0,0,1-.7-11.09c-.06-4.33.05-8.24.2-11.08s.36-4.58.51-4.57c.33,0,.33,7,.44,15.64.06,4.31.16,8.21.36,11,.06.68.12,1.31.17,1.88s.13,1,.19,1.41C142.16,118.52,142.28,119,142.2,119Z"/><path class="cls-19" d="M148.12,86.75c-8.8,4.41-1.09,24.15,2.78,21.85S150.72,85.45,148.12,86.75Z"/><path class="cls-8" d="M158,90.65s4.1,20.67,5.44,21.57S159.6,94.42,158,90.65Z"/><g id="Hand"><path class="cls-4" d="M203.17,138.16a12.7,12.7,0,0,1,5.66,2.37c1.47,1.08,5.39,6.47,5.39,6.47a3.69,3.69,0,0,1-1,.75c-.58.17-1.57-.38-2.43-1.26.48.71,1.22,2.1,1.22,2.1a3.94,3.94,0,0,1-1.29.54,3.55,3.55,0,0,1-1.86-1.14c.29.53.82,1.42.82,1.42a4.53,4.53,0,0,1-1.47.44A5.34,5.34,0,0,1,206,148a12.43,12.43,0,0,1,.88,1.92,6.87,6.87,0,0,1-1.41.2c-1.31-.21-3.89-3.35-3.89-3.35-1.13.54-3.81,1.4-5.74-.28-.31-.27,1.81-8,1.81-8A25,25,0,0,1,203.17,138.16Z"/><path class="cls-20" d="M207.83,143.07s.16.21.44.5.66.72,1.06,1.2a18.47,18.47,0,0,0,1.46,1.72,7.54,7.54,0,0,0-1.28-1.88,10.59,10.59,0,0,0-1.12-1.16A1.71,1.71,0,0,0,207.83,143.07Z"/><path class="cls-20" d="M206.11,144.67a2.19,2.19,0,0,0,.38.51l1,1.17a13.66,13.66,0,0,0,1.41,1.64,7.77,7.77,0,0,0-1.22-1.79c-.38-.46-.74-.86-1-1.14S206.13,144.64,206.11,144.67Z"/><path class="cls-20" d="M204.61,146.4a3.22,3.22,0,0,0,.68,1.07c.44.55.83,1,.88.93a3.34,3.34,0,0,0-.69-1.08C205.05,146.77,204.66,146.36,204.61,146.4Z"/></g><path class="cls-2" d="M246,46.46H203.11a5.43,5.43,0,1,0,0,10.85H246a5.43,5.43,0,1,0,0-10.85Z"/><polygon class="cls-1" points="239.03 49.58 242.03 48.83 243.56 50.81 251.01 46.46 251.01 47.37 243.44 54.83 239.03 49.58"/><path class="cls-3" d="M222.27,50.76H205A1.13,1.13,0,1,0,205,53h17.28a1.13,1.13,0,0,0,0-2.26Z"/><path class="cls-1" d="M231.38,50.76h-4.86a1.13,1.13,0,0,0,0,2.26h4.86a1.13,1.13,0,0,0,0-2.26Z"/><path class="cls-2" d="M115.21,121.52H49.84a6.6,6.6,0,0,0,0,13.19h65.37a6.6,6.6,0,0,0,0-13.19Z"/><polygon class="cls-1" points="106.76 125.31 110.4 124.4 112.26 126.81 121.31 121.52 121.31 122.63 112.12 131.69 106.76 125.31"/><path class="cls-1" d="M53.53,129.49h6.69a1.38,1.38,0,0,0,0-2.75H53.53a1.38,1.38,0,0,0,0,2.75Z"/><path class="cls-3" d="M86.39,126.74h-21a1.38,1.38,0,0,0,0,2.75h21a1.38,1.38,0,0,0,0-2.75Z"/><path class="cls-1" d="M97.46,126.74H91.55a1.38,1.38,0,0,0,0,2.75h5.91a1.38,1.38,0,0,0,0-2.75Z"/><path class="cls-2" d="M231.26,223.69S222.74,204.3,250,194C250,194,256.32,221.36,231.26,223.69Z"/><g class="cls-21"><path class="cls-22" d="M249.37,195.48l-4.08,7.61c-1.37,2.53-2.75,5-4.18,7.53-.71,1.25-1.44,2.49-2.19,3.71s-1.51,2.43-2.31,3.62-1.63,2.36-2.53,3.46a13.12,13.12,0,0,1-3.11,2.93,8.31,8.31,0,0,0,1.82-1.17,17.29,17.29,0,0,0,1.59-1.49,36.73,36.73,0,0,0,2.77-3.35,80.59,80.59,0,0,0,4.68-7.29c1.43-2.51,2.78-5.06,4-7.66S248.3,198.16,249.37,195.48Z"/></g><path class="cls-2" d="M209.48,233.1s-11.57,4.89-17.42-11.34C192.06,221.76,208.3,218.23,209.48,233.1Z"/><g class="cls-21"><path class="cls-22" d="M192.91,222.14l4.47,2.48c1.49.83,3,1.66,4.43,2.54.74.43,1.46.87,2.18,1.32s1.43.92,2.13,1.4,1.38,1,2,1.53a7.81,7.81,0,0,1,1.71,1.87,4.74,4.74,0,0,0-.68-1.09,11.25,11.25,0,0,0-.87-1,22,22,0,0,0-2-1.66,48.07,48.07,0,0,0-4.28-2.84q-2.22-1.3-4.51-2.45C196,223.51,194.49,222.79,192.91,222.14Z"/></g><path class="cls-1" d="M250.36,234.37c1.21,4.33-7.93,8-7.93,8C242.7,237.83,249.16,230,250.36,234.37Z"/><path class="cls-2" d="M87.24,206.7c4.07,6-7.91,16.21-7.91,16.21C77.4,215.92,83.17,200.74,87.24,206.7Z"/><path class="cls-1" d="M81.34,233s2.54-9.08,14.81-4.93C96.15,228,90.63,239.21,81.34,233Z"/><g class="cls-21"><path class="cls-22" d="M95.53,228.34,92,229.81c-1.18.49-2.37,1-3.56,1.42q-.9.35-1.8.66c-.6.21-1.21.41-1.82.6s-1.22.35-1.85.47a5.71,5.71,0,0,1-1.89.13,3.41,3.41,0,0,0,1,.11,7.73,7.73,0,0,0,1-.06,15.21,15.21,0,0,0,1.9-.38,31.41,31.41,0,0,0,3.67-1.19c1.2-.46,2.38-.95,3.55-1.49S94.41,229,95.53,228.34Z"/></g><path class="cls-22" d="M75.29,231.85c-2.39-1,.61,8.74,1,10.05-1.38-1.42-3.26-3.39-5.4-5.66.4-2,1.86-10-.51-10.1s-.46,7.31.2,9.77c-1.68-1.79-3.51-3.77-5.37-5.81.26-1,2.21-8.78.15-8.75s-.48,7.45-.22,8.68c-1.52-1.67-3.05-3.39-4.54-5.09.54-1.48,2.87-8.31.8-9.17s-1.22,6.92-1,9c-1.51-1.73-3-3.45-4.31-5.08,0-.1,2.78-7.53.78-8.13s-.84,7.79-.79,8.12C55,218.3,54,217,53.07,215.77c.37-.92,3.22-8.09,1.2-8.18s-1.37,6.95-1.26,8.1l-.6-.8h.09l-.13-.06a36.7,36.7,0,0,1-2.13-3.24c-.42-2-2.23-9.61-5.11-8.79-2.69.76,2.45,6.41,4.45,8.48h0a31.63,31.63,0,0,0,2,3.21c-2.08-.88-7.14-2.88-6.82-1.37s5.34,1.74,7.1,1.76c1,1.32,2.08,2.78,3.34,4.33-1.93-.93-6.29-2.85-7-1.37s5.5,1.81,7.42,1.83c1.41,1.73,3,3.55,4.58,5.39-1.61-.77-8.36-3.9-9.21-1.86s8,2.06,9.36,2c1.42,1.63,2.89,3.26,4.34,4.86-2.51-1.08-11-4.54-11.45-2.22s9.56,2.53,11.73,2.53c2,2.21,4,4.33,5.78,6.24-1.23-.42-14.22-4.82-14.43-2.8s13.4,2.78,14.45,2.83c2.2,2.34,4.11,4.33,5.47,5.74-1.53-.41-14.24-3.67-14.86-1.15s13.61,1.32,14.91,1.2c1.27,1.31,2,2.11,2.1,2.15l.3-.3L76.38,242C76.51,241.11,77.73,232.84,75.29,231.85Z"/><path class="cls-22" d="M240.43,253.73c1.56-.29-1.43,5.19-1.84,5.93,1-.69,2.38-1.64,3.94-2.75,0-1.26.09-6.25,1.53-6s-.61,4.46-1.3,5.86c1.23-.87,2.57-1.84,3.93-2.84,0-.64-.26-5.56,1-5.3s-.61,4.56-.92,5.26c1.11-.82,2.24-1.67,3.35-2.51-.14-1-.72-5.36.63-5.63s-.11,4.32-.5,5.53c1.12-.86,2.2-1.71,3.21-2.53,0-.07-.77-4.88.51-5s-.44,4.79-.51,5c.85-.69,1.63-1.35,2.33-2-.12-.6-1-5.26.27-5.07s0,4.35-.23,5l.46-.41h0l.08,0a23.9,23.9,0,0,0,1.68-1.7c.48-1.12,2.51-5.51,4.14-4.67s-2.25,3.56-3.71,4.57h0a18.57,18.57,0,0,1-1.62,1.69c1.36-.28,4.65-.87,4.27,0s-3.42.41-4.49.2c-.73.68-1.59,1.43-2.53,2.2,1.27-.32,4.13-1,4.41,0s-3.53.43-4.69.21c-1.06.87-2.22,1.78-3.41,2.69,1.06-.27,5.5-1.34,5.77,0s-5,.27-5.89.09c-1.05.81-2.13,1.61-3.2,2.4,1.64-.34,7.17-1.4,7.17.05s-6.07.37-7.38.1c-1.47,1.09-2.92,2.13-4.23,3.06.78-.1,9.14-1.18,9,.07s-8.41,0-9-.05c-1.61,1.14-3,2.11-4,2.79,1-.06,9-.48,9.09,1.11s-8.36-.85-9.13-1.08l-1.52,1-.15-.22,1.67-1.14C238.57,259.16,238.84,254,240.43,253.73Z"/><path class="cls-22" d="M76.68,252.71s-16.37-9.43-21.47-2.44S69.57,257.69,76.68,252.71Z"/><path class="cls-1" d="M219.19,248.23s-2.34-13,15.61-15.22C234.8,233,234.68,250.45,219.19,248.23Z"/><g class="cls-21"><path class="cls-22" d="M234.23,233.79l-3.57,4c-1.2,1.33-2.39,2.66-3.62,4q-.91,1-1.86,1.92t-1.92,1.86c-.66.6-1.32,1.19-2,1.72a8.32,8.32,0,0,1-2.31,1.33,5.26,5.26,0,0,0,1.28-.45c.4-.2.79-.43,1.17-.67a21.43,21.43,0,0,0,2.16-1.63,49,49,0,0,0,3.89-3.73c1.22-1.31,2.41-2.66,3.54-4S233.19,235.26,234.23,233.79Z"/></g></svg>