<svg id="_ëîé_1" data-name="‘ëîé_1" xmlns="http://www.w3.org/2000/svg" xmlns:xlink="http://www.w3.org/1999/xlink" viewBox="0 0 679.22 408.7"><defs><linearGradient id="åçûìßííûé_ãðàäèåíò_498" x1="475.54" y1="182.86" x2="475.54" y2="432.87" gradientTransform="matrix(-1, 0, 0, 1, 951.2, 0)" gradientUnits="userSpaceOnUse"><stop offset="0" stop-color="#f0e0f3"/><stop offset="1" stop-color="#f293fa"/></linearGradient><linearGradient id="åçûìßííûé_ãðàäèåíò_497" x1="688.22" y1="486.46" x2="722.47" y2="241.95" gradientTransform="matrix(-0.99, 0.12, 0.12, 0.99, 906.83, -110.31)" gradientUnits="userSpaceOnUse"><stop offset="0" stop-color="#fff"/><stop offset="0.25" stop-color="#fffcff"/><stop offset="0.43" stop-color="#fdf3fe"/><stop offset="0.6" stop-color="#fce2fe"/><stop offset="0.75" stop-color="#f9ccfd"/><stop offset="0.89" stop-color="#f5affb"/><stop offset="1" stop-color="#f293fa"/></linearGradient><linearGradient id="åçûìßííûé_ãðàäèåíò_497-2" x1="733.14" y1="491.94" x2="767.26" y2="248.36" xlink:href="#åçûìßííûé_ãðàäèåíò_497"/><linearGradient id="åçûìßííûé_ãðàäèåíò_497-3" x1="735.69" y1="491.2" x2="769.62" y2="248.96" xlink:href="#åçûìßííûé_ãðàäèåíò_497"/><linearGradient id="åçûìßííûé_ãðàäèåíò_497-4" x1="722.48" y1="489.71" x2="756.45" y2="247.21" xlink:href="#åçûìßííûé_ãðàäèåíò_497"/><linearGradient id="åçûìßííûé_ãðàäèåíò_497-5" x1="711.92" y1="488.42" x2="745.9" y2="245.86" xlink:href="#åçûìßííûé_ãðàäèåíò_497"/><linearGradient id="åçûìßííûé_ãðàäèåíò_497-6" x1="705.56" y1="487.77" x2="739.56" y2="245.08" xlink:href="#åçûìßííûé_ãðàäèåíò_497"/><linearGradient id="åçûìßííûé_ãðàäèåíò_497-7" x1="699.84" y1="487.09" x2="733.82" y2="244.46" xlink:href="#åçûìßííûé_ãðàäèåíò_497"/><linearGradient id="åçûìßííûé_ãðàäèåíò_497-8" x1="695.23" y1="486.6" x2="729.22" y2="243.92" xlink:href="#åçûìßííûé_ãðàäèåíò_497"/><linearGradient id="åçûìßííûé_ãðàäèåíò_497-9" x1="692.35" y1="486.34" x2="726.34" y2="243.67" xlink:href="#åçûìßííûé_ãðàäèåíò_497"/><linearGradient id="åçûìßííûé_ãðàäèåíò_497-10" x1="687.2" y1="485.84" x2="721.21" y2="243" xlink:href="#åçûìßííûé_ãðàäèåíò_497"/><linearGradient id="åçûìßííûé_ãðàäèåíò_497-11" x1="683.52" y1="485.49" x2="717.56" y2="242.5" xlink:href="#åçûìßííûé_ãðàäèåíò_497"/><linearGradient id="åçûìßííûé_ãðàäèåíò_497-12" x1="680.42" y1="485.19" x2="714.47" y2="242.09" xlink:href="#åçûìßííûé_ãðàäèåíò_497"/><linearGradient id="åçûìßííûé_ãðàäèåíò_497-13" x1="676.84" y1="484.8" x2="710.93" y2="241.45" xlink:href="#åçûìßííûé_ãðàäèåíò_497"/><linearGradient id="åçûìßííûé_ãðàäèåíò_497-14" x1="695.73" y1="488" x2="730.07" y2="242.84" xlink:href="#åçûìßííûé_ãðàäèåíò_497"/><linearGradient id="åçûìßííûé_ãðàäèåíò_497-15" x1="686.64" y1="486.67" x2="720.99" y2="241.47" xlink:href="#åçûìßííûé_ãðàäèåíò_497"/><linearGradient id="åçûìßííûé_ãðàäèåíò_497-16" x1="679.82" y1="485.64" x2="714.16" y2="240.43" xlink:href="#åçûìßííûé_ãðàäèåíò_497"/><linearGradient id="åçûìßííûé_ãðàäèåíò_497-17" x1="673.09" y1="484.63" x2="707.44" y2="239.4" xlink:href="#åçûìßííûé_ãðàäèåíò_497"/><linearGradient id="åçûìßííûé_ãðàäèåíò_497-18" x1="668.58" y1="483.93" x2="702.93" y2="238.71" xlink:href="#åçûìßííûé_ãðàäèåíò_497"/><linearGradient id="åçûìßííûé_ãðàäèåíò_497-19" x1="665.12" y1="483.39" x2="699.47" y2="238.17" xlink:href="#åçûìßííûé_ãðàäèåíò_497"/><linearGradient id="åçûìßííûé_ãðàäèåíò_497-20" x1="661.64" y1="482.85" x2="695.99" y2="237.62" xlink:href="#åçûìßííûé_ãðàäèåíò_497"/><linearGradient id="åçûìßííûé_ãðàäèåíò_497-21" x1="660.22" y1="482.6" x2="694.58" y2="237.35" xlink:href="#åçûìßííûé_ãðàäèåíò_497"/><linearGradient id="åçûìßííûé_ãðàäèåíò_497-22" x1="658.07" y1="482.26" x2="692.43" y2="236.97" xlink:href="#åçûìßííûé_ãðàäèåíò_497"/><linearGradient id="åçûìßííûé_ãðàäèåíò_497-23" x1="657.55" y1="482.14" x2="691.91" y2="236.83" xlink:href="#åçûìßííûé_ãðàäèåíò_497"/><linearGradient id="åçûìßííûé_ãðàäèåíò_497-24" x1="657.01" y1="482.03" x2="691.38" y2="236.62" xlink:href="#åçûìßííûé_ãðàäèåíò_497"/><linearGradient id="åçûìßííûé_ãðàäèåíò_496" x1="311.36" y1="541.42" x2="232.16" y2="218.01" gradientTransform="matrix(-1, 0, 0, 1, 951.2, 0)" xlink:href="#åçûìßííûé_ãðàäèåíò_497"/><linearGradient id="åçûìßííûé_ãðàäèåíò_496-2" x1="278.61" y1="548.53" x2="199.66" y2="226.14" gradientTransform="matrix(-1, 0, 0, 1, 951.2, 0)" xlink:href="#åçûìßííûé_ãðàäèåíò_497"/><linearGradient id="åçûìßííûé_ãðàäèåíò_496-3" x1="274.01" y1="548.44" x2="195.41" y2="227.49" gradientTransform="matrix(-1, 0, 0, 1, 951.2, 0)" xlink:href="#åçûìßííûé_ãðàäèåíò_497"/><linearGradient id="åçûìßííûé_ãðàäèåíò_496-4" x1="285.02" y1="546.08" x2="206.36" y2="224.89" gradientTransform="matrix(-1, 0, 0, 1, 951.2, 0)" xlink:href="#åçûìßííûé_ãðàäèåíò_497"/><linearGradient id="åçûìßííûé_ãðàäèåíò_496-5" x1="293.42" y1="544.2" x2="214.75" y2="222.95" gradientTransform="matrix(-1, 0, 0, 1, 951.2, 0)" xlink:href="#åçûìßííûé_ãðàäèåíò_497"/><linearGradient id="åçûìßííûé_ãðàäèåíò_496-6" x1="297.72" y1="543.37" x2="219.01" y2="221.99" gradientTransform="matrix(-1, 0, 0, 1, 951.2, 0)" xlink:href="#åçûìßííûé_ãðàäèåíò_497"/><linearGradient id="åçûìßííûé_ãðàäèåíò_496-7" x1="301.38" y1="542.58" x2="222.69" y2="221.24" gradientTransform="matrix(-1, 0, 0, 1, 951.2, 0)" xlink:href="#åçûìßííûé_ãðàäèåíò_497"/><linearGradient id="åçûìßííûé_ãðàäèåíò_496-8" x1="304.09" y1="542.06" x2="225.39" y2="220.69" gradientTransform="matrix(-1, 0, 0, 1, 951.2, 0)" xlink:href="#åçûìßííûé_ãðàäèåíò_497"/><linearGradient id="åçûìßííûé_ãðàäèåíò_496-9" x1="305.1" y1="541.94" x2="226.4" y2="220.58" gradientTransform="matrix(-1, 0, 0, 1, 951.2, 0)" xlink:href="#åçûìßííûé_ãðàäèåíò_497"/><linearGradient id="åçûìßííûé_ãðàäèåíò_496-10" x1="307.97" y1="541.47" x2="229.22" y2="219.93" gradientTransform="matrix(-1, 0, 0, 1, 951.2, 0)" xlink:href="#åçûìßííûé_ãðàäèåíò_497"/><linearGradient id="åçûìßííûé_ãðàäèåíò_496-11" x1="309.74" y1="541.21" x2="230.96" y2="219.52" gradientTransform="matrix(-1, 0, 0, 1, 951.2, 0)" xlink:href="#åçûìßííûé_ãðàäèåíò_497"/><linearGradient id="åçûìßííûé_ãðàäèåíò_496-12" x1="311.04" y1="541.03" x2="232.24" y2="219.22" gradientTransform="matrix(-1, 0, 0, 1, 951.2, 0)" xlink:href="#åçûìßííûé_ãðàäèåíò_497"/><linearGradient id="åçûìßííûé_ãðàäèåíò_496-13" x1="312.95" y1="540.71" x2="234.08" y2="218.65" gradientTransform="matrix(-1, 0, 0, 1, 951.2, 0)" xlink:href="#åçûìßííûé_ãðàäèåíò_497"/><linearGradient id="åçûìßííûé_ãðàäèåíò_496-14" x1="315.22" y1="541.11" x2="235.82" y2="216.89" gradientTransform="matrix(-1, 0, 0, 1, 951.2, 0)" xlink:href="#åçûìßííûé_ãðàäèåíò_497"/><linearGradient id="åçûìßííûé_ãðàäèåíò_496-15" x1="321.97" y1="539.42" x2="242.56" y2="215.15" gradientTransform="matrix(-1, 0, 0, 1, 951.2, 0)" xlink:href="#åçûìßííûé_ãðàäèåíò_497"/><linearGradient id="åçûìßííûé_ãðàäèåíò_496-16" x1="326.19" y1="538.31" x2="246.77" y2="214.03" gradientTransform="matrix(-1, 0, 0, 1, 951.2, 0)" xlink:href="#åçûìßííûé_ãðàäèåíò_497"/><linearGradient id="åçûìßííûé_ãðàäèåíò_496-17" x1="330.39" y1="537.22" x2="250.97" y2="212.91" gradientTransform="matrix(-1, 0, 0, 1, 951.2, 0)" xlink:href="#åçûìßííûé_ãðàäèåíò_497"/><linearGradient id="åçûìßííûé_ãðàäèåíò_496-18" x1="332.9" y1="536.54" x2="253.47" y2="212.24" gradientTransform="matrix(-1, 0, 0, 1, 951.2, 0)" xlink:href="#åçûìßííûé_ãðàäèåíò_497"/><linearGradient id="åçûìßííûé_ãðàäèåíò_496-19" x1="334.44" y1="536.11" x2="255.02" y2="211.8" gradientTransform="matrix(-1, 0, 0, 1, 951.2, 0)" xlink:href="#åçûìßííûé_ãðàäèåíò_497"/><linearGradient id="åçûìßííûé_ãðàäèåíò_496-20" x1="336.02" y1="535.66" x2="256.6" y2="211.36" gradientTransform="matrix(-1, 0, 0, 1, 951.2, 0)" xlink:href="#åçûìßííûé_ãðàäèåíò_497"/><linearGradient id="åçûìßííûé_ãðàäèåíò_496-21" x1="335.16" y1="535.84" x2="255.73" y2="211.49" gradientTransform="matrix(-1, 0, 0, 1, 951.2, 0)" xlink:href="#åçûìßííûé_ãðàäèåíò_497"/><linearGradient id="åçûìßííûé_ãðàäèåíò_496-22" x1="335.44" y1="535.74" x2="255.99" y2="211.34" gradientTransform="matrix(-1, 0, 0, 1, 951.2, 0)" xlink:href="#åçûìßííûé_ãðàäèåíò_497"/><linearGradient id="åçûìßííûé_ãðàäèåíò_496-23" x1="334.14" y1="536.02" x2="254.68" y2="211.58" gradientTransform="matrix(-1, 0, 0, 1, 951.2, 0)" xlink:href="#åçûìßííûé_ãðàäèåíò_497"/><linearGradient id="åçûìßííûé_ãðàäèåíò_496-24" x1="332.92" y1="536.3" x2="253.43" y2="211.74" gradientTransform="matrix(-1, 0, 0, 1, 951.2, 0)" xlink:href="#åçûìßííûé_ãðàäèåíò_497"/><linearGradient id="åçûìßííûé_ãðàäèåíò_495" x1="359.23" y1="334.72" x2="359.23" y2="507.72" gradientTransform="matrix(-1, 0, 0, 1, 951.2, 0)" gradientUnits="userSpaceOnUse"><stop offset="0" stop-color="#f576da"/><stop offset="0.34" stop-color="#dc62c2"/><stop offset="1" stop-color="#a1338a"/></linearGradient><linearGradient id="åçûìßííûé_ãðàäèåíò_495-2" x1="308.77" y1="334.72" x2="308.77" y2="507.72" xlink:href="#åçûìßííûé_ãðàäèåíò_495"/><linearGradient id="åçûìßííûé_ãðàäèåíò_495-3" x1="309.6" y1="334.72" x2="309.6" y2="507.72" xlink:href="#åçûìßííûé_ãðàäèåíò_495"/><linearGradient id="åçûìßííûé_ãðàäèåíò_495-4" x1="321.63" y1="334.72" x2="321.63" y2="507.72" xlink:href="#åçûìßííûé_ãðàäèåíò_495"/><linearGradient id="åçûìßííûé_ãðàäèåíò_495-5" x1="331.75" y1="334.72" x2="331.75" y2="507.72" xlink:href="#åçûìßííûé_ãðàäèåíò_495"/><linearGradient id="åçûìßííûé_ãðàäèåíò_495-6" x1="338.84" y1="334.72" x2="338.84" y2="507.72" xlink:href="#åçûìßííûé_ãðàäèåíò_495"/><linearGradient id="åçûìßííûé_ãðàäèåíò_495-7" x1="345.47" y1="334.72" x2="345.47" y2="507.72" xlink:href="#åçûìßííûé_ãðàäèåíò_495"/><linearGradient id="åçûìßííûé_ãðàäèåíò_495-8" x1="351.14" y1="334.72" x2="351.14" y2="507.72" xlink:href="#åçûìßííûé_ãðàäèåíò_495"/><linearGradient id="åçûìßííûé_ãðàäèåíò_495-9" x1="355.55" y1="334.72" x2="355.55" y2="507.72" xlink:href="#åçûìßííûé_ãðàäèåíò_495"/><linearGradient id="åçûìßííûé_ãðàäèåíò_495-10" x1="362.09" y1="334.72" x2="362.09" y2="507.72" xlink:href="#åçûìßííûé_ãðàäèåíò_495"/><linearGradient id="åçûìßííûé_ãðàäèåíò_495-11" x1="367.11" y1="334.72" x2="367.11" y2="507.72" xlink:href="#åçûìßííûé_ãðàäèåíò_495"/><linearGradient id="åçûìßííûé_ãðàäèåíò_495-12" x1="371.59" y1="334.72" x2="371.59" y2="507.72" xlink:href="#åçûìßííûé_ãðàäèåíò_495"/><linearGradient id="åçûìßííûé_ãðàäèåíò_495-13" x1="376.27" y1="334.72" x2="376.27" y2="507.72" xlink:href="#åçûìßííûé_ãðàäèåíò_495"/><linearGradient id="åçûìßííûé_ãðàäèåíò_495-14" x1="335.49" y1="334.72" x2="335.49" y2="507.72" xlink:href="#åçûìßííûé_ãðàäèåíò_495"/><linearGradient id="åçûìßííûé_ãðàäèåíò_495-15" x1="344.92" y1="334.72" x2="344.92" y2="507.72" xlink:href="#åçûìßííûé_ãðàäèåíò_495"/><linearGradient id="åçûìßííûé_ãðàäèåíò_495-16" x1="353.05" y1="334.72" x2="353.05" y2="507.72" xlink:href="#åçûìßííûé_ãðàäèåíò_495"/><linearGradient id="åçûìßííûé_ãðàäèåíò_495-17" x1="361.01" y1="334.72" x2="361.01" y2="507.72" xlink:href="#åçûìßííûé_ãðàäèåíò_495"/><linearGradient id="åçûìßííûé_ãðàäèåíò_495-18" x1="366.73" y1="334.72" x2="366.73" y2="507.72" xlink:href="#åçûìßííûé_ãðàäèåíò_495"/><linearGradient id="åçûìßííûé_ãðàäèåíò_495-19" x1="371.62" y1="334.72" x2="371.62" y2="507.72" xlink:href="#åçûìßííûé_ãðàäèåíò_495"/><linearGradient id="åçûìßííûé_ãðàäèåíò_495-20" x1="376.49" y1="334.72" x2="376.49" y2="507.72" xlink:href="#åçûìßííûé_ãðàäèåíò_495"/><linearGradient id="åçûìßííûé_ãðàäèåíò_495-21" x1="380.46" y1="334.72" x2="380.46" y2="507.72" xlink:href="#åçûìßííûé_ãðàäèåíò_495"/><linearGradient id="åçûìßííûé_ãðàäèåíò_495-22" x1="384.42" y1="334.72" x2="384.42" y2="507.72" xlink:href="#åçûìßííûé_ãðàäèåíò_495"/><linearGradient id="åçûìßííûé_ãðàäèåíò_495-23" x1="387.18" y1="334.72" x2="387.18" y2="507.71" xlink:href="#åçûìßííûé_ãðàäèåíò_495"/><linearGradient id="åçûìßííûé_ãðàäèåíò_495-24" x1="389.87" y1="334.72" x2="389.87" y2="507.72" xlink:href="#åçûìßííûé_ãðàäèåíò_495"/><linearGradient id="åçûìßííûé_ãðàäèåíò_495-25" x1="389.21" y1="334.72" x2="389.21" y2="507.72" xlink:href="#åçûìßííûé_ãðàäèåíò_495"/><linearGradient id="åçûìßííûé_ãðàäèåíò_495-26" x1="373.94" y1="334.72" x2="373.94" y2="507.72" xlink:href="#åçûìßííûé_ãðàäèåíò_495"/><linearGradient id="åçûìßííûé_ãðàäèåíò_495-27" x1="370.81" y1="334.72" x2="370.81" y2="507.72" xlink:href="#åçûìßííûé_ãðàäèåíò_495"/><linearGradient id="åçûìßííûé_ãðàäèåíò_495-28" x1="376.28" y1="334.72" x2="376.28" y2="507.72" xlink:href="#åçûìßííûé_ãðàäèåíò_495"/><linearGradient id="åçûìßííûé_ãðàäèåíò_495-29" x1="380.3" y1="334.72" x2="380.3" y2="507.72" xlink:href="#åçûìßííûé_ãðàäèåíò_495"/><linearGradient id="åçûìßííûé_ãðàäèåíò_495-30" x1="382.01" y1="334.72" x2="382.01" y2="507.72" xlink:href="#åçûìßííûé_ãðàäèåíò_495"/><linearGradient id="åçûìßííûé_ãðàäèåíò_495-31" x1="383.38" y1="334.72" x2="383.38" y2="507.72" xlink:href="#åçûìßííûé_ãðàäèåíò_495"/><linearGradient id="åçûìßííûé_ãðàäèåíò_495-32" x1="384.24" y1="334.72" x2="384.24" y2="507.72" xlink:href="#åçûìßííûé_ãðàäèåíò_495"/><linearGradient id="åçûìßííûé_ãðàäèåíò_495-33" x1="384.16" y1="334.72" x2="384.16" y2="507.72" xlink:href="#åçûìßííûé_ãðàäèåíò_495"/><linearGradient id="åçûìßííûé_ãðàäèåíò_495-34" x1="384.97" y1="334.72" x2="384.97" y2="507.72" xlink:href="#åçûìßííûé_ãðàäèåíò_495"/><linearGradient id="åçûìßííûé_ãðàäèåíò_495-35" x1="385.3" y1="334.72" x2="385.3" y2="507.72" xlink:href="#åçûìßííûé_ãðàäèåíò_495"/><linearGradient id="åçûìßííûé_ãðàäèåíò_495-36" x1="385.41" y1="334.72" x2="385.41" y2="507.72" xlink:href="#åçûìßííûé_ãðàäèåíò_495"/><linearGradient id="åçûìßííûé_ãðàäèåíò_495-37" x1="385.89" y1="334.72" x2="385.89" y2="507.72" xlink:href="#åçûìßííûé_ãðàäèåíò_495"/><linearGradient id="åçûìßííûé_ãðàäèåíò_495-38" x1="394.22" y1="334.72" x2="394.22" y2="507.72" xlink:href="#åçûìßííûé_ãðàäèåíò_495"/><linearGradient id="åçûìßííûé_ãðàäèåíò_495-39" x1="397.28" y1="334.72" x2="397.28" y2="507.72" xlink:href="#åçûìßííûé_ãðàäèåíò_495"/><linearGradient id="åçûìßííûé_ãðàäèåíò_495-40" x1="398.81" y1="334.72" x2="398.81" y2="507.72" xlink:href="#åçûìßííûé_ãðàäèåíò_495"/><linearGradient id="åçûìßííûé_ãðàäèåíò_495-41" x1="400.35" y1="334.72" x2="400.35" y2="507.72" xlink:href="#åçûìßííûé_ãðàäèåíò_495"/><linearGradient id="åçûìßííûé_ãðàäèåíò_495-42" x1="401.1" y1="334.72" x2="401.1" y2="507.72" xlink:href="#åçûìßííûé_ãðàäèåíò_495"/><linearGradient id="åçûìßííûé_ãðàäèåíò_495-43" x1="401.34" y1="334.72" x2="401.34" y2="507.72" xlink:href="#åçûìßííûé_ãðàäèåíò_495"/><linearGradient id="åçûìßííûé_ãðàäèåíò_495-44" x1="401.59" y1="334.72" x2="401.59" y2="507.72" xlink:href="#åçûìßííûé_ãðàäèåíò_495"/><linearGradient id="åçûìßííûé_ãðàäèåíò_495-45" x1="400.33" y1="334.72" x2="400.33" y2="507.72" xlink:href="#åçûìßííûé_ãðàäèåíò_495"/><linearGradient id="åçûìßííûé_ãðàäèåíò_495-46" x1="399.86" y1="334.72" x2="399.86" y2="507.72" xlink:href="#åçûìßííûé_ãðàäèåíò_495"/><linearGradient id="åçûìßííûé_ãðàäèåíò_495-47" x1="398.5" y1="334.72" x2="398.5" y2="507.72" xlink:href="#åçûìßííûé_ãðàäèåíò_495"/><linearGradient id="åçûìßííûé_ãðàäèåíò_495-48" x1="397.21" y1="334.72" x2="397.21" y2="507.72" xlink:href="#åçûìßííûé_ãðàäèåíò_495"/><linearGradient id="åçûìßííûé_ãðàäèåíò_495-49" x1="414.27" y1="334.72" x2="414.27" y2="507.72" xlink:href="#åçûìßííûé_ãðàäèåíò_495"/><linearGradient id="åçûìßííûé_ãðàäèåíò_495-50" x1="450.52" y1="334.72" x2="450.52" y2="507.72" xlink:href="#åçûìßííûé_ãðàäèåíò_495"/><linearGradient id="åçûìßííûé_ãðàäèåíò_495-51" x1="449.92" y1="334.72" x2="449.92" y2="507.72" xlink:href="#åçûìßííûé_ãðàäèåíò_495"/><linearGradient id="åçûìßííûé_ãðàäèåíò_495-52" x1="441.28" y1="334.72" x2="441.28" y2="507.72" xlink:href="#åçûìßííûé_ãðàäèåíò_495"/><linearGradient id="åçûìßííûé_ãðàäèåíò_495-53" x1="434.01" y1="334.72" x2="434.01" y2="507.72" xlink:href="#åçûìßííûé_ãðàäèåíò_495"/><linearGradient id="åçûìßííûé_ãðàäèåíò_495-54" x1="428.92" y1="334.72" x2="428.92" y2="507.72" xlink:href="#åçûìßííûé_ãðàäèåíò_495"/><linearGradient id="åçûìßííûé_ãðàäèåíò_495-55" x1="424.15" y1="334.72" x2="424.15" y2="507.72" xlink:href="#åçûìßííûé_ãðàäèåíò_495"/><linearGradient id="åçûìßííûé_ãðàäèåíò_495-56" x1="420.08" y1="334.72" x2="420.08" y2="507.72" xlink:href="#åçûìßííûé_ãðàäèåíò_495"/><linearGradient id="åçûìßííûé_ãðàäèåíò_495-57" x1="416.91" y1="334.72" x2="416.91" y2="507.72" xlink:href="#åçûìßííûé_ãðàäèåíò_495"/><linearGradient id="åçûìßííûé_ãðàäèåíò_495-58" x1="412.21" y1="334.72" x2="412.21" y2="507.72" xlink:href="#åçûìßííûé_ãðàäèåíò_495"/><linearGradient id="åçûìßííûé_ãðàäèåíò_495-59" x1="408.6" y1="334.72" x2="408.6" y2="507.72" xlink:href="#åçûìßííûé_ãðàäèåíò_495"/><linearGradient id="åçûìßííûé_ãðàäèåíò_495-60" x1="405.38" y1="334.72" x2="405.38" y2="507.72" xlink:href="#åçûìßííûé_ãðàäèåíò_495"/><linearGradient id="åçûìßííûé_ãðàäèåíò_495-61" x1="402.02" y1="334.72" x2="402.02" y2="507.72" xlink:href="#åçûìßííûé_ãðàäèåíò_495"/><linearGradient id="åçûìßííûé_ãðàäèåíò_495-62" x1="431.32" y1="334.72" x2="431.32" y2="507.72" xlink:href="#åçûìßííûé_ãðàäèåíò_495"/><linearGradient id="åçûìßííûé_ãðàäèåíò_495-63" x1="424.54" y1="334.72" x2="424.54" y2="507.72" xlink:href="#åçûìßííûé_ãðàäèåíò_495"/><linearGradient id="åçûìßííûé_ãðàäèåíò_495-64" x1="418.71" y1="334.72" x2="418.71" y2="507.72" xlink:href="#åçûìßííûé_ãðàäèåíò_495"/><linearGradient id="åçûìßííûé_ãðàäèåíò_495-65" x1="412.98" y1="334.72" x2="412.98" y2="507.72" xlink:href="#åçûìßííûé_ãðàäèåíò_495"/><linearGradient id="åçûìßííûé_ãðàäèåíò_495-66" x1="408.87" y1="334.72" x2="408.87" y2="507.72" xlink:href="#åçûìßííûé_ãðàäèåíò_495"/><linearGradient id="åçûìßííûé_ãðàäèåíò_495-67" x1="405.36" y1="334.72" x2="405.36" y2="507.72" xlink:href="#åçûìßííûé_ãðàäèåíò_495"/><linearGradient id="åçûìßííûé_ãðàäèåíò_495-68" x1="401.86" y1="334.72" x2="401.86" y2="507.72" xlink:href="#åçûìßííûé_ãðàäèåíò_495"/><linearGradient id="åçûìßííûé_ãðàäèåíò_495-69" x1="399.01" y1="334.72" x2="399.01" y2="507.72" xlink:href="#åçûìßííûé_ãðàäèåíò_495"/><linearGradient id="åçûìßííûé_ãðàäèåíò_495-70" x1="396.16" y1="334.72" x2="396.16" y2="507.72" xlink:href="#åçûìßííûé_ãðàäèåíò_495"/><linearGradient id="åçûìßííûé_ãðàäèåíò_495-71" x1="394.18" y1="334.72" x2="394.18" y2="507.72" xlink:href="#åçûìßííûé_ãðàäèåíò_495"/><linearGradient id="åçûìßííûé_ãðàäèåíò_495-72" x1="392.25" y1="334.72" x2="392.25" y2="507.72" xlink:href="#åçûìßííûé_ãðàäèåíò_495"/><linearGradient id="åçûìßííûé_ãðàäèåíò_6" x1="534.86" y1="394.68" x2="551.7" y2="394.68" gradientTransform="matrix(-1, 0, 0, 1, 951.2, 0)" gradientUnits="userSpaceOnUse"><stop offset="0" stop-color="#ffcdb1"/><stop offset="0.2" stop-color="#ffbb93"/><stop offset="1" stop-color="#ffa065"/></linearGradient><linearGradient id="åçûìßííûé_ãðàäèåíò_115" x1="4837.33" y1="1224.36" x2="4837.33" y2="1265.34" gradientTransform="translate(-4396.93 -1293.38) rotate(4.36)" xlink:href="#åçûìßííûé_ãðàäèåíò_6"/><linearGradient id="åçûìßííûé_ãðàäèåíò_115-2" x1="5138.43" y1="294.57" x2="5138.43" y2="335.52" gradientTransform="translate(-4931.34 -156.13)" xlink:href="#åçûìßííûé_ãðàäèåíò_6"/><linearGradient id="åçûìßííûé_ãðàäèåíò_7" x1="560.06" y1="392.85" x2="576.9" y2="392.85" xlink:href="#åçûìßííûé_ãðàäèåíò_6"/><linearGradient id="åçûìßííûé_ãðàäèåíò_494" x1="396.99" y1="155.62" x2="396.99" y2="168.58" xlink:href="#åçûìßííûé_ãðàäèåíò_495"/><linearGradient id="åçûìßííûé_ãðàäèåíò_493" x1="-151.88" y1="184.06" x2="-113.44" y2="222.5" gradientTransform="translate(570.86 -156.13)" xlink:href="#åçûìßííûé_ãðàäèåíò_495"/><clipPath id="clip-path" transform="translate(-115.99 -156.13)"><path d="M554.21,228.49a24.3,24.3,0,0,1-17.46-7.37,25.54,25.54,0,0,1,0-35.61,24.34,24.34,0,0,1,34.92,0,25.54,25.54,0,0,1,0,35.61A24.33,24.33,0,0,1,554.21,228.49Z" style="fill:#fff"/></clipPath><linearGradient id="åçûìßííûé_ãðàäèåíò_618" x1="-132.63" y1="184.05" x2="-132.63" y2="233.89" gradientTransform="translate(686.84)" gradientUnits="userSpaceOnUse"><stop offset="0" stop-color="#f5ddf0"/><stop offset="0.51" stop-color="#fac4f0"/><stop offset="1" stop-color="#ffa8f1"/></linearGradient><linearGradient id="åçûìßííûé_ãðàäèåíò_492" x1="-186.37" y1="261.79" x2="-180.67" y2="261.79" gradientTransform="translate(686.84)" xlink:href="#åçûìßííûé_ãðàäèåíò_495"/><linearGradient id="åçûìßííûé_ãðàäèåíò_492-2" x1="-185.31" y1="256.57" x2="-181.74" y2="256.57" gradientTransform="translate(686.84)" xlink:href="#åçûìßííûé_ãðàäèåíò_495"/><linearGradient id="åçûìßííûé_ãðàäèåíò_492-3" x1="-186.53" y1="303.2" x2="-180.05" y2="303.2" gradientTransform="translate(686.84)" xlink:href="#åçûìßííûé_ãðàäèåíò_495"/><linearGradient id="åçûìßííûé_ãðàäèåíò_492-4" x1="-185.82" y1="298.8" x2="-180.75" y2="298.8" gradientTransform="translate(686.84)" xlink:href="#åçûìßííûé_ãðàäèåíò_495"/><linearGradient id="åçûìßííûé_ãðàäèåíò_491" x1="-196.81" y1="240.44" x2="-68.46" y2="240.44" gradientTransform="translate(686.84)" xlink:href="#åçûìßííûé_ãðàäèåíò_495"/><linearGradient id="åçûìßííûé_ãðàäèåíò_490" x1="-132.93" y1="337.06" x2="-132.93" y2="349.79" gradientTransform="translate(686.84)" xlink:href="#åçûìßííûé_ãðàäèåíò_495"/><linearGradient id="åçûìßííûé_ãðàäèåíò_492-5" x1="-186.37" y1="282.52" x2="-180.67" y2="282.52" gradientTransform="translate(686.84)" xlink:href="#åçûìßííûé_ãðàäèåíò_495"/><linearGradient id="åçûìßííûé_ãðàäèåíò_492-6" x1="-185.31" y1="277.3" x2="-181.74" y2="277.3" gradientTransform="translate(686.84)" xlink:href="#åçûìßííûé_ãðàäèåíò_495"/><linearGradient id="åçûìßííûé_ãðàäèåíò_492-7" x1="-186.53" y1="323.93" x2="-180.05" y2="323.93" gradientTransform="translate(686.84)" xlink:href="#åçûìßííûé_ãðàäèåíò_495"/><linearGradient id="åçûìßííûé_ãðàäèåíò_492-8" x1="-185.82" y1="319.53" x2="-180.75" y2="319.53" gradientTransform="translate(686.84)" xlink:href="#åçûìßííûé_ãðàäèåíò_495"/></defs><ellipse cx="339.61" cy="383.39" rx="339.61" ry="25.31" style="fill:#fbedff"/><path d="M664.16,518.69S801.24,220,614,188.11c0,0-73.29-16-136.08,45.11s-144.51-26.64-144.51-26.64-41.6-44.39-81.41,0,23.17,321.54,23.17,321.54Z" transform="translate(-115.99 -156.13)" style="fill:url(#åçûìßííûé_ãðàäèåíò_498)"/><path d="M322.4,499.64a994.14,994.14,0,0,0-39.77-111.1c-14.48-33.41-31-66.09-52-95.8A275.62,275.62,0,0,0,204,260.46a226.9,226.9,0,0,1,28.23,31.07c18.71,24.64,33.7,52,46.66,80.16a683.59,683.59,0,0,1,43.51,128Z" transform="translate(-115.99 -156.13)" style="fill:url(#åçûìßííûé_ãðàäèåíò_497)"/><path d="M204,260.51c-13.37-8.94-26.26-18.16-40.71-25.1-2.06-1-4.16-1.95-6.3-3,17.56-.29,37.87,13.18,47,28.11Z" transform="translate(-115.99 -156.13)" style="fill:url(#åçûìßííûé_ãðàäèåíò_497-2)"/><path d="M211.63,268.17c-16.39-3.09-32.71-6.59-49.39-4.71-2.37.26-4.73.68-7.18,1.1a26,26,0,0,1,3.17-2c.5-.28,1.16-.64,1.67-.86,15.52-7.21,37.95-3.19,51.73,6.46Z" transform="translate(-115.99 -156.13)" style="fill:url(#åçûìßííûé_ãðàäèåíò_497-3)"/><path d="M226.6,286.12c-14.26-3.41-28.5-7.33-43.2-5.59-2.08.25-4.16.66-6.32,1.08a20.71,20.71,0,0,1,2.73-1.89c.42-.25,1-.61,1.46-.81,13.81-6.87,33.66-2.28,45.33,7.21Z" transform="translate(-115.99 -156.13)" style="fill:url(#åçûìßííûé_ãðàäèåíò_497-4)"/><path d="M241.56,304.07c-13.73-3.48-27.45-7.52-41.67-5.81-2,.24-4,.65-6.1,1.08a20.11,20.11,0,0,1,2.62-1.87c.41-.24,1-.6,1.41-.79,13.36-6.8,32.63-2,43.74,7.39Z" transform="translate(-115.99 -156.13)" style="fill:url(#åçûìßííûé_ãðàäèåíò_497-5)"/><path d="M251.53,322.66c-12.73-3.6-25.51-7.88-38.83-6.22-1.87.24-3.74.64-5.71,1.07a19.3,19.3,0,0,1,2.42-1.81c.38-.24.92-.58,1.31-.78,12.58-6.64,30.7-1.56,40.81,7.74Z" transform="translate(-115.99 -156.13)" style="fill:url(#åçûìßííûé_ãðàäèåíò_497-6)"/><path d="M263,341.06c-13-3.56-26.13-7.77-39.73-6.09-1.92.24-3.83.64-5.84,1.07a19.34,19.34,0,0,1,2.48-1.83c.39-.24,1-.59,1.35-.78,12.82-6.69,31.31-1.71,41.74,7.63Z" transform="translate(-115.99 -156.13)" style="fill:url(#åçûìßííûé_ãðàäèåíò_497-7)"/><path d="M272.18,358.46c-12.85-3.59-25.76-7.84-39.19-6.18-1.89.24-3.78.65-5.76,1.08a18.08,18.08,0,0,1,2.45-1.82c.38-.24.93-.59,1.32-.78,12.66-6.66,31-1.62,41.18,7.7Z" transform="translate(-115.99 -156.13)" style="fill:url(#åçûìßííûé_ãðàäèåíò_497-8)"/><path d="M280,376c-12.89-3.58-25.83-7.82-39.29-6.16-1.9.24-3.79.64-5.78,1.07a20,20,0,0,1,2.46-1.82c.38-.24.93-.58,1.32-.78,12.7-6.66,31-1.63,41.29,7.69Z" transform="translate(-115.99 -156.13)" style="fill:url(#åçûìßííûé_ãðàäèåíò_497-9)"/><path d="M288.77,397.36c-11.54-3.74-23.1-8.31-35.34-6.74a52.92,52.92,0,0,0-5.23,1.08,17.78,17.78,0,0,1,4.62-3.16c11.57-5.35,27.34,0,35.95,8.82Z" transform="translate(-115.99 -156.13)" style="fill:url(#åçûìßííûé_ãðàäèåíò_497-10)"/><path d="M295.6,415.33c-10.43-3.81-20.94-8.71-32.21-7.2a43.6,43.6,0,0,0-4.8,1.08,15.72,15.72,0,0,1,4.19-3c10.63-5.19,25.4.59,32.82,9.17Z" transform="translate(-115.99 -156.13)" style="fill:url(#åçûìßííûé_ãðàäèåíò_497-11)"/><path d="M302.28,432.31c-9.78-3.85-19.6-8.95-30.28-7.48a34.87,34.87,0,0,0-4.53,1.08c9.58-10,27.28-3.08,34.81,6.4Z" transform="translate(-115.99 -156.13)" style="fill:url(#åçûìßííûé_ãðàäèåíò_497-12)"/><path d="M307.28,448.23c-5.92-3-11.43-6.38-17.79-7.92a18.1,18.1,0,0,0-7.33-.33,22.88,22.88,0,0,0-3.82,1.1,10.66,10.66,0,0,1,3.21-2.82c8.84-4.79,20.8,2.18,25.73,10Z" transform="translate(-115.99 -156.13)" style="fill:url(#åçûìßííûé_ãðàäèåíò_497-13)"/><path d="M222.42,218.62c-3,16.72-6.46,33.36-4.62,50.37.26,2.42.67,4.82,1.08,7.33a28.63,28.63,0,0,1-2-3.23c-.27-.52-.62-1.19-.84-1.71-7.07-15.83-3.13-38.7,6.34-52.76Z" transform="translate(-115.99 -156.13)" style="fill:url(#åçûìßííûé_ãðàäèåíò_497-14)"/><path d="M237.74,241.92c-3.35,14.54-7.19,29.06-5.48,44.05.24,2.13.64,4.24,1.06,6.45a21.83,21.83,0,0,1-1.86-2.79c-.24-.43-.59-1-.79-1.49-6.74-14.08-2.24-34.33,7.07-46.22Z" transform="translate(-115.99 -156.13)" style="fill:url(#åçûìßííûé_ãðàäèåíò_497-15)"/><path d="M251.29,266.06c-3.41,14-7.37,28-5.7,42.49.24,2.05.64,4.09,1.06,6.23a21.36,21.36,0,0,1-1.83-2.67c-.24-.42-.58-1-.78-1.44-6.66-13.63-2-33.28,7.25-44.61Z" transform="translate(-115.99 -156.13)" style="fill:url(#åçûìßííûé_ãðàäèåíò_497-16)"/><path d="M264.61,290.1c-3.53,13-7.73,26-6.11,39.59.24,1.92.63,3.82,1.06,5.83a18.88,18.88,0,0,1-1.78-2.47c-.24-.39-.57-.94-.76-1.34-6.51-12.82-1.53-31.31,7.59-41.61Z" transform="translate(-115.99 -156.13)" style="fill:url(#åçûìßííûé_ãðàäèåíò_497-17)"/><path d="M274.21,307.88c-3.49,13.29-7.61,26.65-6,40.52.23,2,.63,3.91,1.05,6a18,18,0,0,1-1.79-2.53c-.24-.4-.58-1-.77-1.37-6.56-13.08-1.68-31.94,7.48-42.57Z" transform="translate(-115.99 -156.13)" style="fill:url(#åçûìßííûé_ãðàäèåíò_497-18)"/><path d="M282.65,325.84c-3.52,13.1-7.68,26.27-6,40,.23,1.93.63,3.86,1,5.88a18.53,18.53,0,0,1-1.78-2.5,15.1,15.1,0,0,1-.77-1.35c-6.53-12.91-1.58-31.57,7.55-42Z" transform="translate(-115.99 -156.13)" style="fill:url(#åçûìßííûé_ãðàäèåíò_497-19)"/><path d="M291,343.34c-3.51,13.14-7.67,26.34-6,40.07.24,1.94.63,3.86,1.06,5.89a18.35,18.35,0,0,1-1.79-2.5c-.23-.39-.57-.95-.76-1.36-6.54-12.94-1.61-31.64,7.53-42.1Z" transform="translate(-115.99 -156.13)" style="fill:url(#åçûìßííûé_ãðàäèåíò_497-20)"/><path d="M298.69,367.35c-3.66,11.77-8.14,23.56-6.6,36,.24,1.75.62,3.5,1.06,5.33a18.09,18.09,0,0,1-3.1-4.7c-5.25-11.81,0-27.89,8.64-36.67Z" transform="translate(-115.99 -156.13)" style="fill:url(#åçûìßííûé_ãðàäèåíò_497-21)"/><path d="M306,386.75c-3.73,10.64-8.53,21.36-7.05,32.86A42.61,42.61,0,0,0,300,424.5a15.8,15.8,0,0,1-3-4.27c-5.09-10.85.58-25.91,9-33.48Z" transform="translate(-115.99 -156.13)" style="fill:url(#åçûìßííûé_ãðàäèåíò_497-22)"/><path d="M311.47,405.68c-3.78,10-8.77,20-7.34,30.88a38.66,38.66,0,0,0,1.07,4.62c-9.76-9.77-3-27.83,6.27-35.5Z" transform="translate(-115.99 -156.13)" style="fill:url(#åçûìßííûé_ãðàäèåíò_497-23)"/><path d="M316.93,425.37c-2.83,5.89-6.07,11.38-7.67,17.68a19,19,0,0,0,.66,11.84,10.87,10.87,0,0,1-2.76-3.28c-4.7-9,2.13-21.22,9.77-26.24Z" transform="translate(-115.99 -156.13)" style="fill:url(#åçûìßííûé_ãðàäèåíò_497-24)"/><path d="M632.36,529.93a1015.59,1015.59,0,0,1,26.36-117.25c10.46-35.59,23.1-70.71,40.57-103.39a281,281,0,0,1,22.89-36,232.72,232.72,0,0,0-24.63,35C681.72,335.55,670,365.1,660.4,395.19a697.73,697.73,0,0,0-28,134.74Z" transform="translate(-115.99 -156.13)" style="fill:url(#åçûìßííûé_ãðàäèåíò_496)"/><path d="M722.22,273.32c12.38-10.75,24.25-21.71,38-30.58,1.94-1.31,3.95-2.51,6-3.86-17.75,2-36.57,18.19-43.95,34.44Z" transform="translate(-115.99 -156.13)" style="fill:url(#åçûìßííûé_ãðàäèåíò_496-2)"/><path d="M715.44,282c16.16-5.23,32.2-10.87,49.26-11.13,2.42,0,4.86.08,7.39.18a28.43,28.43,0,0,0-3.45-1.6c-.54-.21-1.25-.49-1.79-.64-16.56-5.28-38.7,1.67-51.41,13.19Z" transform="translate(-115.99 -156.13)" style="fill:url(#åçûìßííûé_ãðàäèåíò_496-3)"/><path d="M702.56,302.09c14-5.29,27.86-11.08,42.91-11.22,2.13,0,4.27.13,6.51.27a22.27,22.27,0,0,0-3-1.55c-.46-.2-1.11-.48-1.58-.63-14.78-5.16-34.25,2-44.85,13.13Z" transform="translate(-115.99 -156.13)" style="fill:url(#åçûìßííûé_ãðàäèåíò_496-4)"/><path d="M689.68,322.13c13.43-5.29,26.78-11.13,41.34-11.24,2.06,0,4.13.14,6.3.3a21.54,21.54,0,0,0-2.88-1.54c-.44-.2-1.07-.48-1.52-.63-14.34-5.13-33.19,2.16-43.24,13.11Z" transform="translate(-115.99 -156.13)" style="fill:url(#åçûìßííûé_ãðàäèåíò_496-5)"/><path d="M681.94,342.18c12.39-5.27,24.76-11.24,38.41-11.29,1.92,0,3.86.16,5.89.35a18,18,0,0,0-2.67-1.52c-.41-.19-1-.47-1.42-.61-13.51-5.08-31.17,2.38-40.21,13.07Z" transform="translate(-115.99 -156.13)" style="fill:url(#åçûìßííûé_ãðàäèåíò_496-6)"/><path d="M672.64,362.23C685.35,357,698.05,351,712,351c2,0,3.95.16,6,.33a19.29,19.29,0,0,0-2.74-1.52c-.42-.19-1-.47-1.45-.62-13.77-5.09-31.82,2.31-41.18,13.09Z" transform="translate(-115.99 -156.13)" style="fill:url(#åçûìßííûé_ãðàäèåíò_496-7)"/><path d="M665.53,381c12.53-5.28,25-11.23,38.78-11.29,2,0,3.9.16,6,.34a19.77,19.77,0,0,0-2.69-1.52c-.42-.19-1-.47-1.44-.61-13.6-5.09-31.44,2.36-40.6,13.08Z" transform="translate(-115.99 -156.13)" style="fill:url(#åçûìßííûé_ãðàäèåíò_496-8)"/><path d="M659.84,399.71c12.56-5.28,25.1-11.23,38.89-11.29,1.95,0,3.91.17,6,.34a19.29,19.29,0,0,0-2.7-1.52,15.15,15.15,0,0,0-1.44-.61c-13.63-5.09-31.51,2.35-40.71,13.08Z" transform="translate(-115.99 -156.13)" style="fill:url(#åçûìßííûé_ãðàäèåíò_496-9)"/><path d="M653.61,422.37C664.79,417.11,675.9,411,688.45,411c1.76,0,3.53.2,5.41.41a18.43,18.43,0,0,0-5.05-2.59c-12.35-3.9-27.6,3.52-35.2,13.54Z" transform="translate(-115.99 -156.13)" style="fill:url(#åçûìßííûé_ãðàäèåíò_496-10)"/><path d="M649,441.39c10-5.19,20-11.49,31.61-11.42a44.2,44.2,0,0,1,5,.47,15.65,15.65,0,0,0-4.6-2.54c-11.38-3.86-25.57,3.88-32,13.49Z" transform="translate(-115.99 -156.13)" style="fill:url(#åçûìßííûé_ãðàäèåíò_496-11)"/><path d="M644.31,459.39c9.39-5.15,18.67-11.56,29.64-11.46a38,38,0,0,1,4.71.51c-10.91-8.81-27.92.41-34.35,10.95Z" transform="translate(-115.99 -156.13)" style="fill:url(#åçûìßííûé_ãðàäèåíò_496-12)"/><path d="M641.25,476.1c5.6-3.74,10.74-7.91,17-10.29a18.68,18.68,0,0,1,7.36-1.28,24.81,24.81,0,0,1,4,.62,10.91,10.91,0,0,0-3.59-2.43c-9.52-3.69-20.73,4.88-24.73,13.38Z" transform="translate(-115.99 -156.13)" style="fill:url(#åçûìßííûé_ãðàäèåíò_496-13)"/><path d="M698.41,233.43c5.13,16.48,10.66,32.83,10.9,50.23.05,2.47-.07,4.95-.17,7.54a27.74,27.74,0,0,0,1.57-3.52c.21-.56.48-1.27.63-1.83,5.17-16.88-1.63-39.46-12.93-52.42Z" transform="translate(-115.99 -156.13)" style="fill:url(#åçûìßííûé_ãðàäèåíò_496-14)"/><path d="M685.83,258.91c5.18,14.25,10.87,28.41,11,43.76,0,2.17-.12,4.35-.27,6.64a22.87,22.87,0,0,0,1.53-3.05c.19-.47.47-1.13.61-1.61,5.06-15.08-2-34.93-12.87-45.74Z" transform="translate(-115.99 -156.13)" style="fill:url(#åçûìßííûé_ãðàäèåíò_496-15)"/><path d="M675.15,285c5.19,13.69,10.92,27.31,11,42.16,0,2.1-.14,4.21-.3,6.42a20.89,20.89,0,0,0,1.51-2.94c.19-.45.47-1.09.61-1.55,5-14.62-2.11-33.85-12.85-44.09Z" transform="translate(-115.99 -156.13)" style="fill:url(#åçûìßííûé_ãðàäèåíò_496-16)"/><path d="M664.69,311c5.18,12.63,11,25.25,11.08,39.17,0,2-.16,3.93-.34,6a19.34,19.34,0,0,0,1.49-2.72c.18-.42.46-1,.6-1.45,5-13.78-2.34-31.79-12.83-41Z" transform="translate(-115.99 -156.13)" style="fill:url(#åçûìßííûé_ãðàäèåíò_496-17)"/><path d="M657.21,330.19c5.17,13,11,25.91,11,40.12,0,2-.15,4-.32,6.15a20.19,20.19,0,0,0,1.5-2.79c.18-.43.46-1.05.6-1.48,5-14.05-2.27-32.45-12.83-42Z" transform="translate(-115.99 -156.13)" style="fill:url(#åçûìßííûé_ãðàäèåíò_496-18)"/><path d="M650.92,349.4c5.17,12.77,11,25.52,11.07,39.55,0,2-.16,4-.34,6.07a18.69,18.69,0,0,0,1.49-2.75c.19-.42.46-1,.6-1.46,5-13.88-2.31-32.07-12.82-41.41Z" transform="translate(-115.99 -156.13)" style="fill:url(#åçûìßííûé_ãðàäèåíò_496-19)"/><path d="M644.63,368.14c5.18,12.81,11,25.6,11.07,39.66,0,2-.16,4-.34,6.09a18.85,18.85,0,0,0,1.5-2.76c.18-.42.46-1,.6-1.47,5-13.9-2.31-32.13-12.83-41.52Z" transform="translate(-115.99 -156.13)" style="fill:url(#åçûìßííûé_ãðàäèåíò_496-20)"/><path d="M639.88,393.37C645,404.77,651,416.09,651,428.89c0,1.8-.19,3.61-.4,5.52a18.94,18.94,0,0,0,2.54-5.16c3.83-12.58-3.45-28.14-13.27-35.88Z" transform="translate(-115.99 -156.13)" style="fill:url(#åçûìßííûé_ãðàäèåíò_496-21)"/><path d="M635,413.89c5.09,10.25,11.26,20.45,11.19,32.24a43.75,43.75,0,0,1-.46,5.08,16.56,16.56,0,0,0,2.5-4.7c3.78-11.6-3.81-26.07-13.23-32.62Z" transform="translate(-115.99 -156.13)" style="fill:url(#åçûìßííûé_ãðàäèåíò_496-22)"/><path d="M631.74,433.69c5,9.58,11.33,19,11.23,30.23a37.64,37.64,0,0,1-.5,4.8c8.64-11.13-.4-28.48-10.73-35Z" transform="translate(-115.99 -156.13)" style="fill:url(#åçûìßííûé_ãðàäèåíò_496-23)"/><path d="M628.67,454.27c3.59,5.59,7.54,10.71,9.93,16.86a19.27,19.27,0,0,1,.8,12,11,11,0,0,0,2.39-3.66c3.62-9.72-4.79-21.14-13.12-25.23Z" transform="translate(-115.99 -156.13)" style="fill:url(#åçûìßííûé_ãðàäèåíò_496-24)"/><path d="M656.38,499.09s80.71-3.67,93.92-95.79C750.3,403.3,667.13,407.22,656.38,499.09Z" transform="translate(-115.99 -156.13)" style="fill:#eb93fa"/><path d="M656.38,499.09a1016.76,1016.76,0,0,0,72.86-74.81,1016.76,1016.76,0,0,0-72.86,74.81Z" transform="translate(-115.99 -156.13)" style="fill:#fff"/><polygon points="592.99 290.34 615.13 285.39 593.03 287.39 592.99 290.34 592.99 290.34" style="fill:#fff"/><polygon points="574.25 309.8 594.54 309.31 574.38 306.93 574.25 309.8 574.25 309.8" style="fill:#fff"/><polygon points="585.37 298.54 584.14 279.52 582.55 298.51 585.37 298.54 585.37 298.54" style="fill:#fff"/><polygon points="563.03 320.99 560.73 301.83 560.21 321.13 563.03 320.99 563.03 320.99" style="fill:#fff"/><path d="M659.39,494.59s43.38-38.86,10.35-96.25C669.74,398.34,625.08,438.46,659.39,494.59Z" transform="translate(-115.99 -156.13)" style="fill:#fff"/><path d="M659.39,494.59a750.27,750.27,0,0,0,7.81-74.95,744.11,744.11,0,0,0-7.81,74.95Z" transform="translate(-115.99 -156.13)" style="fill:#eb93fa"/><polygon points="549.64 285.13 559.82 272.27 548.37 283.46 549.64 285.13 549.64 285.13" style="fill:#eb93fa"/><polygon points="547.74 304.53 558.83 295 546.55 302.86 547.74 304.53 547.74 304.53" style="fill:#eb93fa"/><polygon points="549 293.18 539.97 283.14 547.41 294.45 549 293.18 549 293.18" style="fill:#eb93fa"/><polygon points="546.39 315.89 536.7 306.25 544.88 317.25 546.39 315.89 546.39 315.89" style="fill:#eb93fa"/><path d="M645.58,534c17.36-.31,34.56-.44,51.86-.26,4.87,0,9.77,0,14.62.52s9.7,1.2,14.45,1.15a71.88,71.88,0,0,0,8.91-.65q6.3-.81,12.54-2.14c2.45-.54,4.91-1.14,7.34-1.8,2.6-.73,5.13-1.43,7.74-2.44a1.24,1.24,0,0,0,.42-2,32.93,32.93,0,0,0-3.33-2.74,49.14,49.14,0,0,0-9-5c-9.17-3.7-18.89-5.69-28.66-4.79-5.7.59-11.31,2-17,3a341.39,341.39,0,0,0-38.69,8.39c-6,1.66-12.09,3.48-18,5.48-.82.28-2.73.94-3.56,1.25a1.06,1.06,0,0,0,.37,2.06Z" transform="translate(-115.99 -156.13)" style="fill:#edcff3"/><path d="M647.07,534a432.36,432.36,0,0,1,56-18c7.94-2,16.24-1.69,24.17-3.51,8.21-1.85,16.6-4.35,25-5.68,1-.17,2.75-.4,3.83-.53.68-.08,1.39-.15,2.14-.26a1.23,1.23,0,0,0,.82-1.87c-6.58-9.69-19.64-13.18-30.62-13.23-11-.32-20.64,4.92-30.41,9.16a200.68,200.68,0,0,0-27.2,14.37A225.44,225.44,0,0,0,646,532.15a1.06,1.06,0,0,0,1.05,1.8Z" transform="translate(-115.99 -156.13)" style="fill:#edcff3"/><path d="M646.6,533.16a245.21,245.21,0,0,1,33.57-25.32c5.83-3.59,11.54-7.2,17.84-9.74,4.09-1.65,8.33-2.92,12.3-4.75,2-.9,3.86-1.89,5.75-3,6.29-3.6,12.77-7.56,18.93-11.76,1.65-1.14,3.19-2.16,4.81-3.47a1.26,1.26,0,0,0-.15-2.09,26.86,26.86,0,0,0-3.78-1.69,35.13,35.13,0,0,0-5.83-1.57c-10.48-1.9-22.84,0-32,5.53-5.43,3.3-10.17,7.68-15.12,11.62a155.76,155.76,0,0,0-25.76,26.57A143.17,143.17,0,0,0,645,531.88a1,1,0,0,0,1.62,1.28Z" transform="translate(-115.99 -156.13)" style="fill:#edcff3"/><path d="M648.81,533c7.1-10.51,15.12-22.21,22.52-32.39,3.83-5.22,7.36-10.59,11.67-15.39,2.79-3.08,5.93-6.14,8.29-9.57a45,45,0,0,0,3.19-5.35,99.56,99.56,0,0,0,6.63-16.66c.5-1.6,1-3.59,1.41-5.23a37.31,37.31,0,0,0,.8-3.93,1.42,1.42,0,0,0-1.52-1.64,31.47,31.47,0,0,0-9.34,2.47,48.52,48.52,0,0,0-13.56,8.83,48,48,0,0,0-4.85,5,38.35,38.35,0,0,0-5.36,8.85c-1.83,4.13-3.41,8.63-5.28,12.74a226.88,226.88,0,0,0-8.66,22.07c-1.74,5.21-3.48,10.85-4.9,16.14-1.17,4.35-2.25,8.7-3.12,13.15a1.15,1.15,0,0,0,2.08.88Z" transform="translate(-115.99 -156.13)" style="fill:#edcff3"/><path d="M647.31,532.91a394.56,394.56,0,0,0,14.25-48.58c1.26-6.13,4.53-11.94,5-18.23.49-7.26-2.37-15.69-5.92-22a47.15,47.15,0,0,0-4.39-6.46,32.5,32.5,0,0,0-3-3.28,2.49,2.49,0,0,0-3.22-.2,45.22,45.22,0,0,0-10.51,11.7c-3.32,5.36-6.16,11.85-6.51,18.14-.22,4.2.93,8.39,1.78,12.49,1.3,6.2,1.49,12.44,2.42,18.7,1.13,8.21,2.59,16.84,4.16,25,.8,4.17,1.67,8.35,2.69,12.54a1.68,1.68,0,0,0,3.21.2Z" transform="translate(-115.99 -156.13)" style="fill:#edcff3"/><path d="M646.43,508.48l-7-8.51,7,6.38q.33-8.33.88-16.65l-6.16-8.46,6.3,6.37q.24-3.21.49-6.42h0v0q.66-8.09,1.53-16.15,0,7.41-.28,14.82l7.54-8.11-7.63,10.63q-.24,6.81-.64,13.61l8.32-5.9-8.45,8q-.85,13.83-2.35,27.6Q646.14,517.06,646.43,508.48Z" transform="translate(-115.99 -156.13)" style="fill:#fff"/><path d="M677.91,487.84l-9.18,4.41q-6.79,12-14,23.75,3.9-7.59,8-15.11l-.78-9.75,1.79,7.88q4-7.27,8.08-14.48l-.26-9.46,1.29,7.64q1.6-2.78,3.22-5.54v0h0q4.08-7,8.29-13.86-3.37,6.57-6.87,13.06l8.64-4.81-9.83,7q-3.22,6-6.56,11.87Z" transform="translate(-115.99 -156.13)" style="fill:#fff"/><path d="M682.63,498.39q-10.71,8.52-21.69,16.67,6.42-5.55,12.95-10.95l2.86-9.34-1.24,8q6.36-5.24,12.82-10.34l3.24-8.88L690,491.14c1.66-1.31,3.34-2.61,5-3.91v0h0q6.35-4.9,12.78-9.67-5.55,4.79-11.18,9.48l9.79-1.16-11.72,2.76q-5.17,4.29-10.43,8.49l8.53.7Z" transform="translate(-115.99 -156.13)" style="fill:#fff"/><path d="M694.26,510.85q-13.05,3.85-26.22,7.24,8-2.72,16-5.25l6.06-7.58-4.07,6.94q7.82-2.45,15.67-4.73l6.24-7-4.26,6.43c2-.59,4.06-1.16,6.09-1.73h0Q717.49,503,725.2,501q-6.88,2.34-13.83,4.56l9.5,2.64L709,506.35c-4.25,1.35-8.52,2.65-12.79,3.93l7.66,3.88Z" transform="translate(-115.99 -156.13)" style="fill:#fff"/><path d="M700.76,526.21q-13.53,1.29-27.09,2.11,8.34-1.14,16.7-2.11l7.35-6.29L692.45,526c5.41-.61,10.84-1.16,16.26-1.66l7.41-5.69-5.36,5.5c2.1-.19,4.2-.36,6.3-.53h0q7.93-.63,15.87-1.12-7.2,1-14.42,1.85l8.85,4.4-11.31-4.12q-6.63.76-13.28,1.42l6.81,5.28Z" transform="translate(-115.99 -156.13)" style="fill:#fff"/><path d="M654.07,534c-17.36-.31-34.56-.44-51.86-.26-4.87,0-9.77,0-14.62.52s-9.7,1.2-14.45,1.15a71.88,71.88,0,0,1-8.91-.65q-6.3-.81-12.53-2.14c-2.45-.54-4.92-1.14-7.35-1.8-2.6-.73-5.13-1.43-7.74-2.44a1.24,1.24,0,0,1-.42-2,32.93,32.93,0,0,1,3.33-2.74,49.14,49.14,0,0,1,9-5c9.17-3.7,18.89-5.69,28.66-4.79,5.7.59,11.31,2,17,3a341.39,341.39,0,0,1,38.69,8.39c6,1.66,12.09,3.48,18,5.48.83.28,2.73.94,3.56,1.25a1.06,1.06,0,0,1-.37,2.06Z" transform="translate(-115.99 -156.13)" style="fill:#edcff3"/><path d="M652.58,534a432.71,432.71,0,0,0-56-18c-7.95-2-16.25-1.69-24.18-3.51-8.21-1.85-16.6-4.35-25-5.68-1-.17-2.75-.4-3.82-.53-.69-.08-1.4-.15-2.15-.26a1.23,1.23,0,0,1-.82-1.87c6.58-9.69,19.64-13.18,30.62-13.23,11-.32,20.64,4.92,30.41,9.16a200.68,200.68,0,0,1,27.2,14.37,224.49,224.49,0,0,1,24.77,17.76,1.06,1.06,0,0,1-1,1.8Z" transform="translate(-115.99 -156.13)" style="fill:#edcff3"/><path d="M653.05,533.16a245.21,245.21,0,0,0-33.57-25.32c-5.83-3.59-11.54-7.2-17.84-9.74-4.09-1.65-8.33-2.92-12.3-4.75-2-.9-3.86-1.89-5.75-3-6.29-3.6-12.76-7.56-18.93-11.76-1.65-1.14-3.19-2.16-4.81-3.47a1.26,1.26,0,0,1,.15-2.09,26.86,26.86,0,0,1,3.78-1.69,35.13,35.13,0,0,1,5.83-1.57c10.48-1.9,22.84,0,32,5.53,5.43,3.3,10.17,7.68,15.12,11.62a155.39,155.39,0,0,1,25.76,26.57,143.17,143.17,0,0,1,12.14,18.35,1,1,0,0,1-1.62,1.28Z" transform="translate(-115.99 -156.13)" style="fill:#edcff3"/><path d="M650.84,533c-7.1-10.51-15.12-22.21-22.52-32.39-3.83-5.22-7.36-10.59-11.67-15.39-2.78-3.08-5.93-6.14-8.29-9.57a45,45,0,0,1-3.19-5.35,99.56,99.56,0,0,1-6.63-16.66c-.49-1.6-1-3.59-1.41-5.23a37.31,37.31,0,0,1-.8-3.93,1.43,1.43,0,0,1,1.52-1.64,31.47,31.47,0,0,1,9.34,2.47,48.52,48.52,0,0,1,13.56,8.83,47,47,0,0,1,4.85,5A38.35,38.35,0,0,1,631,468c1.83,4.13,3.41,8.63,5.29,12.74a229.39,229.39,0,0,1,8.65,22.07c1.74,5.21,3.48,10.85,4.9,16.14,1.18,4.35,2.26,8.7,3.12,13.15a1.15,1.15,0,0,1-2.08.88Z" transform="translate(-115.99 -156.13)" style="fill:#edcff3"/><path d="M623,487.22l6.81,1.75c-.74-1.53-1.48-3.05-2.21-4.58h0v0q-2.76-5.78-5.35-11.63,2.9,5.07,5.66,10.21l1.93-8.62-1,10.38c1.69,3.16,3.33,6.33,5,9.53l3.33-7.44-2.6,8.91q4.89,9.77,9.32,19.77-3.36-5.88-6.54-11.85l-8.11-2.92,7.32,1.44q-3.06-5.81-6-11.7Z" transform="translate(-115.99 -156.13)" style="fill:#fff"/><path d="M606.48,497.53l6.83-1.71q-2-1.49-4.06-3h0q-5.09-3.79-10.07-7.73,4.89,3.11,9.7,6.32l-2.26-8.54,3.89,9.65q4.41,3,8.75,6.06l-.47-8.17,1.79,9.11q8.8,6.3,17.31,13-5.65-3.6-11.21-7.35l-8.51,1.29,7.13-2.22q-5.38-3.66-10.66-7.48Z" transform="translate(-115.99 -156.13)" style="fill:#fff"/><path d="M594.76,513.1l5.94-3.82q-2.4-.75-4.78-1.53h0c-4-1.31-8-2.66-11.95-4.08q5.6,1.36,11.16,2.86l-4.79-7.37,6.68,7.89q5.12,1.41,10.18,2.93l-3-7.6,4.53,8.06q10.31,3.13,20.46,6.76-6.48-1.58-12.92-3.34l-7.67,4,6.08-4.41q-6.24-1.74-12.43-3.66Z" transform="translate(-115.99 -156.13)" style="fill:#fff"/><path d="M595.5,526.43h0q-6.29-.43-12.56-1,5.76,0,11.51,0l-6.38-6,8.34,6q5.29.12,10.57.36l-4.68-6.65,6.29,6.73q10.74.52,21.45,1.56-6.66,0-13.32-.09l-6.52,5.72,4.86-5.76q-6.46-.17-12.92-.51l-6.5,5.07,4.87-5.16-5-.32Z" transform="translate(-115.99 -156.13)" style="fill:#fff"/><path d="M265.67,534c17.36-.31,34.56-.44,51.86-.26,4.87,0,9.77,0,14.62.52s9.7,1.2,14.45,1.15a72,72,0,0,0,8.91-.65q6.3-.81,12.53-2.14c2.45-.54,4.92-1.14,7.35-1.8,2.6-.73,5.13-1.43,7.74-2.44a1.24,1.24,0,0,0,.42-2,32.93,32.93,0,0,0-3.33-2.74,49.14,49.14,0,0,0-9-5c-9.17-3.7-18.89-5.69-28.66-4.79-5.7.59-11.31,2-17,3a341.39,341.39,0,0,0-38.69,8.39c-6,1.66-12.09,3.48-18,5.48-.83.28-2.73.94-3.56,1.25a1.06,1.06,0,0,0,.37,2.06Z" transform="translate(-115.99 -156.13)" style="fill:#edcff3"/><path d="M267.16,534a432.71,432.71,0,0,1,56-18c7.95-2,16.25-1.69,24.18-3.51,8.21-1.85,16.6-4.35,25-5.68,1-.17,2.75-.4,3.82-.53.69-.08,1.4-.15,2.14-.26a1.24,1.24,0,0,0,.83-1.87c-6.58-9.69-19.64-13.18-30.62-13.23-11-.32-20.64,4.92-30.41,9.16a200.68,200.68,0,0,0-27.2,14.37,223.55,223.55,0,0,0-24.77,17.76,1.06,1.06,0,0,0,1.05,1.8Z" transform="translate(-115.99 -156.13)" style="fill:#edcff3"/><path d="M266.69,533.16a245.21,245.21,0,0,1,33.57-25.32c5.83-3.59,11.54-7.2,17.84-9.74,4.09-1.65,8.33-2.92,12.3-4.75,2-.9,3.86-1.89,5.75-3,6.28-3.6,12.76-7.56,18.93-11.76,1.64-1.14,3.19-2.16,4.81-3.47a1.26,1.26,0,0,0-.15-2.09,26.86,26.86,0,0,0-3.78-1.69,35.4,35.4,0,0,0-5.83-1.57c-10.48-1.9-22.84,0-32,5.53C312.66,478.64,307.92,483,303,487a155.39,155.39,0,0,0-25.76,26.57,142.13,142.13,0,0,0-12.14,18.35,1,1,0,0,0,1.62,1.28Z" transform="translate(-115.99 -156.13)" style="fill:#edcff3"/><path d="M268.9,533c7.1-10.51,15.12-22.21,22.52-32.39,3.83-5.22,7.35-10.59,11.67-15.39,2.78-3.08,5.93-6.14,8.29-9.57a45,45,0,0,0,3.19-5.35,99.56,99.56,0,0,0,6.63-16.66c.49-1.6,1-3.59,1.41-5.23a37.31,37.31,0,0,0,.8-3.93,1.43,1.43,0,0,0-1.52-1.64,31.47,31.47,0,0,0-9.34,2.47A48.52,48.52,0,0,0,299,454.1a47,47,0,0,0-4.85,5,38,38,0,0,0-5.36,8.85c-1.83,4.13-3.41,8.63-5.29,12.74a229.39,229.39,0,0,0-8.65,22.07c-1.74,5.21-3.48,10.85-4.9,16.14-1.18,4.35-2.26,8.7-3.12,13.15a1.15,1.15,0,0,0,2.08.88Z" transform="translate(-115.99 -156.13)" style="fill:#edcff3"/><path d="M267.4,532.91a394.51,394.51,0,0,0,14.24-48.58c1.26-6.13,4.53-11.94,5-18.23.49-7.26-2.37-15.69-5.93-22a47.07,47.07,0,0,0-4.38-6.46,32.5,32.5,0,0,0-3-3.28,2.49,2.49,0,0,0-3.22-.2,45.22,45.22,0,0,0-10.51,11.7c-3.32,5.36-6.17,11.85-6.51,18.14-.22,4.2.93,8.39,1.78,12.49,1.29,6.2,1.49,12.44,2.42,18.7,1.13,8.21,2.59,16.84,4.15,25,.81,4.17,1.67,8.35,2.7,12.54a1.68,1.68,0,0,0,3.21.2Z" transform="translate(-115.99 -156.13)" style="fill:#edcff3"/><path d="M266.52,508.48l-7-8.51,7.05,6.38q.33-8.33.88-16.65l-6.16-8.46,6.3,6.37c.15-2.14.32-4.28.49-6.42h0v0q.66-8.09,1.53-16.15,0,7.41-.29,14.82l7.55-8.11-7.63,10.63q-.25,6.81-.65,13.61l8.33-5.9-8.45,8q-.86,13.83-2.35,27.6Q266.21,517.06,266.52,508.48Z" transform="translate(-115.99 -156.13)" style="fill:#fff"/><path d="M298,487.84l-9.18,4.41q-6.79,12-14,23.75,3.92-7.59,8-15.11l-.78-9.75,1.79,7.88q4-7.27,8.08-14.48l-.27-9.46,1.3,7.64q1.6-2.78,3.22-5.54v0h0q4.08-7,8.29-13.86-3.37,6.57-6.87,13.06l8.64-4.81-9.83,7q-3.24,6-6.56,11.87Z" transform="translate(-115.99 -156.13)" style="fill:#fff"/><path d="M302.71,498.39Q292,506.91,281,515.06q6.41-5.55,13-10.95l2.86-9.34-1.24,8q6.36-5.24,12.82-10.34l3.24-8.88-1.61,7.59c1.66-1.31,3.34-2.61,5-3.91v0h0q6.35-4.9,12.77-9.67-5.53,4.79-11.17,9.48l9.78-1.16-11.71,2.76q-5.17,4.29-10.43,8.49l8.53.7Z" transform="translate(-115.99 -156.13)" style="fill:#fff"/><path d="M314.35,510.85q-13.05,3.85-26.22,7.24,8-2.72,16-5.25l6.07-7.58-4.07,6.94q7.82-2.45,15.67-4.73l6.24-7-4.26,6.43c2-.59,4.06-1.16,6.09-1.73h0q7.68-2.15,15.39-4.13-6.89,2.34-13.83,4.56l9.5,2.64-11.86-1.89c-4.26,1.35-8.52,2.65-12.8,3.93l7.66,3.88Z" transform="translate(-115.99 -156.13)" style="fill:#fff"/><path d="M320.85,526.21q-13.53,1.29-27.09,2.11,8.34-1.14,16.7-2.11l7.35-6.29L312.54,526q8.11-.91,16.26-1.66l7.41-5.69-5.36,5.5c2.1-.19,4.19-.36,6.29-.53h0q7.93-.63,15.87-1.12-7.2,1-14.42,1.85l8.85,4.4-11.31-4.12q-6.63.76-13.28,1.42l6.81,5.28Z" transform="translate(-115.99 -156.13)" style="fill:#fff"/><path d="M274.16,534c-17.36-.31-34.56-.44-51.87-.26-4.86,0-9.76,0-14.61.52s-9.7,1.2-14.45,1.15a71.88,71.88,0,0,1-8.91-.65q-6.3-.81-12.54-2.14c-2.45-.54-4.91-1.14-7.34-1.8-2.6-.73-5.13-1.43-7.74-2.44a1.24,1.24,0,0,1-.42-2,32.93,32.93,0,0,1,3.33-2.74,49.14,49.14,0,0,1,9-5c9.17-3.7,18.88-5.69,28.66-4.79,5.7.59,11.31,2,17,3A341.39,341.39,0,0,1,253,525.24c6,1.66,12.09,3.48,18,5.48.82.28,2.73.94,3.56,1.25a1.06,1.06,0,0,1-.37,2.06Z" transform="translate(-115.99 -156.13)" style="fill:#edcff3"/><path d="M272.66,534a432.22,432.22,0,0,0-56-18c-7.94-2-16.24-1.69-24.17-3.51-8.21-1.85-16.6-4.35-25-5.68-1-.17-2.75-.4-3.83-.53-.68-.08-1.39-.15-2.14-.26a1.23,1.23,0,0,1-.82-1.87c6.57-9.69,19.64-13.18,30.62-13.23,11-.32,20.64,4.92,30.41,9.16a200,200,0,0,1,27.19,14.37,224.61,224.61,0,0,1,24.78,17.76,1.06,1.06,0,0,1-1.06,1.8Z" transform="translate(-115.99 -156.13)" style="fill:#edcff3"/><path d="M273.14,533.16a245.21,245.21,0,0,0-33.57-25.32c-5.83-3.59-11.54-7.2-17.84-9.74-4.09-1.65-8.33-2.92-12.3-4.75-2-.9-3.86-1.89-5.75-3-6.29-3.6-12.77-7.56-18.94-11.76-1.64-1.14-3.18-2.16-4.8-3.47a1.26,1.26,0,0,1-.23-1.77,1.44,1.44,0,0,1,.38-.32,26.86,26.86,0,0,1,3.78-1.69,35.13,35.13,0,0,1,5.83-1.57c10.48-1.9,22.84,0,32,5.53,5.43,3.3,10.17,7.68,15.12,11.62a155.33,155.33,0,0,1,25.75,26.57,142.2,142.2,0,0,1,12.15,18.35,1,1,0,0,1-1.62,1.28Z" transform="translate(-115.99 -156.13)" style="fill:#edcff3"/><path d="M270.93,533c-7.1-10.51-15.12-22.21-22.52-32.39-3.83-5.22-7.36-10.59-11.67-15.39-2.79-3.08-5.94-6.14-8.29-9.57a45,45,0,0,1-3.19-5.35,99.56,99.56,0,0,1-6.63-16.66c-.5-1.6-1-3.59-1.42-5.23-.3-1.23-.59-2.52-.79-3.93a1.42,1.42,0,0,1,1.52-1.64,31.47,31.47,0,0,1,9.34,2.47,48.52,48.52,0,0,1,13.56,8.83,48,48,0,0,1,4.85,5,38.35,38.35,0,0,1,5.36,8.85c1.83,4.13,3.41,8.63,5.28,12.74A226.88,226.88,0,0,1,265,502.79c1.74,5.21,3.48,10.85,4.9,16.14,1.17,4.35,2.25,8.7,3.12,13.15a1.15,1.15,0,0,1-2.08.88Z" transform="translate(-115.99 -156.13)" style="fill:#edcff3"/><path d="M243.13,487.22l6.81,1.75c-.74-1.53-1.48-3.05-2.21-4.58h0v0c-1.83-3.85-3.62-7.73-5.34-11.63q2.9,5.07,5.66,10.21l1.93-8.62-1,10.38q2.52,4.74,4.94,9.53l3.34-7.44-2.6,8.91q4.88,9.77,9.32,19.77-3.36-5.88-6.54-11.85l-8.11-2.92,7.32,1.44q-3.07-5.81-6-11.7Z" transform="translate(-115.99 -156.13)" style="fill:#fff"/><path d="M226.57,497.53l6.82-1.71-4-3h0q-5.09-3.79-10.07-7.73,4.89,3.11,9.7,6.32l-2.26-8.54,3.89,9.65q4.41,3,8.75,6.06l-.48-8.17,1.8,9.11q8.81,6.3,17.31,13-5.66-3.6-11.21-7.35l-8.51,1.29,7.13-2.22q-5.38-3.66-10.66-7.48Z" transform="translate(-115.99 -156.13)" style="fill:#fff"/><path d="M214.84,513.1l5.95-3.82q-2.4-.75-4.78-1.53h0c-4-1.31-8-2.66-11.95-4.08q5.59,1.36,11.16,2.86l-4.8-7.37,6.69,7.89q5.1,1.41,10.18,2.93l-3-7.6,4.54,8.06q10.3,3.13,20.46,6.76-6.48-1.58-12.92-3.34l-7.67,4,6.07-4.41q-6.24-1.74-12.43-3.66Z" transform="translate(-115.99 -156.13)" style="fill:#fff"/><path d="M215.59,526.43h0q-6.29-.43-12.56-1c3.84,0,7.67,0,11.51,0l-6.39-6,8.35,6c3.52.08,7,.2,10.57.36l-4.68-6.65,6.29,6.73q10.74.52,21.45,1.56-6.66,0-13.32-.09l-6.52,5.72,4.86-5.76q-6.46-.17-12.92-.51l-6.5,5.07,4.87-5.16-5-.32Z" transform="translate(-115.99 -156.13)" style="fill:#fff"/><path d="M557.31,531.77a708.67,708.67,0,0,1,21.44-81c8.22-24.53,18-48.68,31-71a195.23,195.23,0,0,1,16.9-24.5A161.77,161.77,0,0,0,608.54,379c-11.75,18.59-20.7,38.88-28.17,59.6a487.71,487.71,0,0,0-23.06,93.2Z" transform="translate(-115.99 -156.13)" style="fill:url(#åçûìßííûé_ãðàäèåíò_495)"/><path d="M626.65,355.26c8.92-7.16,17.47-14.49,27.28-20.3,1.39-.86,2.82-1.64,4.27-2.53-12.43.9-26,11.7-31.55,22.83Z" transform="translate(-115.99 -156.13)" style="fill:url(#åçûìßííûé_ãðàäèåíò_495-2)"/><path d="M621.7,361.15c11.4-3.21,22.73-6.7,34.64-6.42,1.69,0,3.38.19,5.15.32a21.13,21.13,0,0,0-2.37-1.21c-.37-.16-.85-.37-1.23-.5-11.41-4.12-27,.12-36.19,7.81Z" transform="translate(-115.99 -156.13)" style="fill:url(#åçûìßííûé_ãðàäèåíò_495-3)"/><path d="M612.2,374.79c9.88-3.31,19.71-7,30.21-6.67,1.48.05,3,.21,4.53.37a14.68,14.68,0,0,0-2-1.16c-.32-.15-.77-.37-1.09-.48-10.17-4-23.94.49-31.61,7.94Z" transform="translate(-115.99 -156.13)" style="fill:url(#åçûìßííûé_ãðàäèåíò_495-4)"/><path d="M602.69,388.42c9.5-3.33,19-7,29.12-6.73,1.44.05,2.88.21,4.38.38a14.17,14.17,0,0,0-2-1.15c-.31-.15-.74-.36-1.05-.47-9.86-4-23.2.6-30.49,8Z" transform="translate(-115.99 -156.13)" style="fill:url(#åçûìßííûé_ãðàäèåíò_495-5)"/><path d="M596.77,402.19c8.78-3.35,17.56-7.17,27.08-6.84,1.34,0,2.69.22,4.1.4a14.17,14.17,0,0,0-1.82-1.13c-.28-.14-.69-.35-1-.46-9.29-3.91-21.81.82-28.39,8Z" transform="translate(-115.99 -156.13)" style="fill:url(#åçûìßííûé_ãðàäèåíò_495-6)"/><path d="M589.76,415.92c9-3.34,18-7.13,27.73-6.8,1.38.05,2.75.21,4.2.39a13.73,13.73,0,0,0-1.87-1.14c-.29-.14-.7-.35-1-.47-9.47-3.92-22.25.75-29.06,8Z" transform="translate(-115.99 -156.13)" style="fill:url(#åçûìßííûé_ãðàäèåíò_495-7)"/><path d="M584.32,428.79c8.87-3.34,17.74-7.15,27.34-6.82,1.35,0,2.71.22,4.14.4a12.44,12.44,0,0,0-1.84-1.13,9.91,9.91,0,0,0-1-.47c-9.35-3.92-22,.79-28.65,8Z" transform="translate(-115.99 -156.13)" style="fill:url(#åçûìßííûé_ãðàäèåíò_495-8)"/><path d="M579.87,441.71c8.89-3.34,17.79-7.15,27.41-6.82,1.36.05,2.72.22,4.15.4a12.94,12.94,0,0,0-1.85-1.14c-.28-.14-.69-.35-1-.46-9.38-3.92-22,.78-28.73,8Z" transform="translate(-115.99 -156.13)" style="fill:url(#åçûìßííûé_ãðàäèåíò_495-9)"/><path d="M574.93,457.34c7.94-3.36,15.84-7.33,24.59-7a36.5,36.5,0,0,1,3.76.44,12.61,12.61,0,0,0-3.45-1.95c-8.51-3.06-19.34,1.71-24.9,8.49Z" transform="translate(-115.99 -156.13)" style="fill:url(#åçûìßííûé_ãðàäèåíò_495-10)"/><path d="M571.18,470.48c7.15-3.35,14.29-7.47,22.35-7.11a31.36,31.36,0,0,1,3.46.46,11.17,11.17,0,0,0-3.15-1.9c-7.83-3-17.92,2-22.66,8.55Z" transform="translate(-115.99 -156.13)" style="fill:url(#åçûìßííûé_ãðàäèåíò_495-11)"/><path d="M567.49,482.9c6.68-3.33,13.32-7.55,21-7.19a26.71,26.71,0,0,1,3.27.49c-7.38-6.44-19.48-.47-24.23,6.7Z" transform="translate(-115.99 -156.13)" style="fill:url(#åçûìßííûé_ãðàäèåíò_495-12)"/><path d="M564.91,494.47c4-2.45,7.7-5.22,12.1-6.71a13.12,13.12,0,0,1,5.17-.7,17.38,17.38,0,0,1,2.77.55,7.66,7.66,0,0,0-2.44-1.8c-6.55-2.83-14.58,2.84-17.6,8.66Z" transform="translate(-115.99 -156.13)" style="fill:url(#åçûìßííûé_ãðàäèåíò_495-13)"/><path d="M611.08,326.79c3.15,11.64,6.58,23.19,6.3,35.33,0,1.72-.18,3.45-.32,5.25a19.26,19.26,0,0,0,1.19-2.41c.16-.38.37-.87.49-1.26,4-11.63-.11-27.56-7.66-36.91Z" transform="translate(-115.99 -156.13)" style="fill:url(#åçûìßííûé_ãðàäèåíò_495-14)"/><path d="M601.65,344.23c3.24,10.07,6.84,20.1,6.54,30.81-.05,1.51-.21,3-.37,4.62a14.6,14.6,0,0,0,1.15-2.09c.14-.32.35-.77.47-1.1,3.92-10.38-.49-24.42-7.79-32.24Z" transform="translate(-115.99 -156.13)" style="fill:url(#åçûìßííûé_ãðàäèåíò_495-15)"/><path d="M593.52,362.14c3.26,9.69,6.91,19.34,6.6,29.7,0,1.46-.21,2.93-.38,4.47a13.64,13.64,0,0,0,1.13-2c.15-.31.36-.75.47-1.06,3.89-10.06-.6-23.66-7.82-31.1Z" transform="translate(-115.99 -156.13)" style="fill:url(#åçûìßííûé_ãðàäèåíò_495-16)"/><path d="M585.56,380c3.28,8.95,7,17.91,6.7,27.62,0,1.36-.22,2.74-.39,4.18a12.81,12.81,0,0,0,1.1-1.86,9.82,9.82,0,0,0,.46-1c3.83-9.47-.8-22.24-7.87-28.95Z" transform="translate(-115.99 -156.13)" style="fill:url(#åçûìßííûé_ãðàäèåíò_495-17)"/><path d="M579.84,393.15c3.27,9.19,7,18.37,6.66,28.28,0,1.4-.21,2.81-.38,4.28a13.4,13.4,0,0,0,1.11-1.91,10.13,10.13,0,0,0,.46-1c3.85-9.66-.73-22.69-7.85-29.64Z" transform="translate(-115.99 -156.13)" style="fill:url(#åçûìßííûé_ãðàäèåíò_495-18)"/><path d="M575,406.39c3.28,9,7,18.09,6.69,27.87,0,1.38-.21,2.77-.39,4.22a13,13,0,0,0,1.11-1.87c.14-.29.35-.71.46-1,3.84-9.54-.78-22.43-7.87-29.22Z" transform="translate(-115.99 -156.13)" style="fill:url(#åçûìßííûé_ãðàäèåíò_495-19)"/><path d="M570.08,419.28c3.28,9.08,7,18.15,6.69,28-.06,1.38-.22,2.77-.39,4.23a13.65,13.65,0,0,0,1.11-1.88c.14-.29.35-.71.46-1,3.84-9.56-.78-22.47-7.87-29.3Z" transform="translate(-115.99 -156.13)" style="fill:url(#åçûìßííûé_ãðàäèåíò_495-20)"/><path d="M566.11,436.74c3.3,8.09,7.18,16.15,6.84,25.08-.06,1.25-.23,2.51-.42,3.83a13.42,13.42,0,0,0,1.9-3.52c3-8.68-1.67-19.72-8.32-25.39Z" transform="translate(-115.99 -156.13)" style="fill:url(#åçûìßííûé_ãðàäèåíò_495-21)"/><path d="M562.15,450.92c3.28,7.29,7.32,14.57,7,22.79a30,30,0,0,1-.45,3.52,11.33,11.33,0,0,0,1.86-3.2c2.94-8-2-18.29-8.37-23.11Z" transform="translate(-115.99 -156.13)" style="fill:url(#åçûìßííûé_ãðàäèåíò_495-22)"/><path d="M559.39,464.64c3.27,6.82,7.4,13.59,7,21.38a27.34,27.34,0,0,1-.47,3.34c6.31-7.52.46-19.87-6.57-24.72Z" transform="translate(-115.99 -156.13)" style="fill:url(#åçûìßííûé_ãðàäèåíò_495-23)"/><path d="M556.71,478.91c2.36,4,5,7.67,6.49,12a13.54,13.54,0,0,1,.24,8.42,7.65,7.65,0,0,0,1.76-2.49c2.78-6.68-2.78-14.87-8.49-17.95Z" transform="translate(-115.99 -156.13)" style="fill:url(#åçûìßííûé_ãðàäèåíò_495-24)"/><path d="M562.79,521.85a568.17,568.17,0,0,1-5.23-66.71c-.28-20.67.67-41.45,4.58-61.77a158.18,158.18,0,0,1,6.25-23,131.84,131.84,0,0,0-7.34,22.78c-3.92,17.17-5.3,34.85-5.46,52.45a389.5,389.5,0,0,0,7.2,76.27Z" transform="translate(-115.99 -156.13)" style="fill:url(#åçûìßííûé_ãðàäèåíò_495-25)"/><path d="M568.42,370.37c4.81-7.81,9.3-15.65,15.14-22.7.81-1,1.68-2,2.54-3.06-9.1,4.07-16.43,15.89-17.68,25.76Z" transform="translate(-115.99 -156.13)" style="fill:url(#åçûìßííûé_ãðàäèåíò_495-26)"/><path d="M566.25,376.16c7.72-5.54,15.3-11.26,24.31-14.3,1.28-.44,2.59-.79,4-1.17a16.13,16.13,0,0,0-2.09-.26c-.32,0-.74-.05-1.06,0-9.65,0-20.25,7.48-25.11,15.77Z" transform="translate(-115.99 -156.13)" style="fill:url(#åçûìßííûé_ãðàäèåíò_495-27)"/><path d="M562.7,389c6.55-5.19,13-10.63,20.93-13.27,1.13-.37,2.29-.66,3.5-1a11.42,11.42,0,0,0-1.84-.32c-.28,0-.67-.06-.94-.06-8.69-.22-17.84,6.92-21.65,14.61Z" transform="translate(-115.99 -156.13)" style="fill:url(#åçûìßííûé_ãðàäèåíò_495-28)"/><path d="M559.15,401.82c6.26-5.1,12.39-10.47,20.09-13,1.09-.36,2.22-.63,3.39-.92a10.53,10.53,0,0,0-1.78-.32,9.06,9.06,0,0,0-.91-.07c-8.44-.28-17.25,6.8-20.79,14.32Z" transform="translate(-115.99 -156.13)" style="fill:url(#åçûìßííûé_ãðàäèåíò_495-29)"/><path d="M558.33,413.78c5.71-4.91,11.3-10.19,18.53-12.54,1-.33,2.07-.57,3.18-.82a9.43,9.43,0,0,0-1.66-.35c-.25,0-.61-.08-.85-.09-8-.39-16.16,6.58-19.2,13.8Z" transform="translate(-115.99 -156.13)" style="fill:url(#åçûìßííûé_ãðàäèåíò_495-30)"/><path d="M556.68,426c5.88-5,11.65-10.28,19-12.69,1-.34,2.12-.59,3.25-.85a9.84,9.84,0,0,0-1.7-.34,6.54,6.54,0,0,0-.87-.08c-8.15-.36-16.51,6.65-19.71,14Z" transform="translate(-115.99 -156.13)" style="fill:url(#åçûìßííûé_ãðàäèåíò_495-31)"/><path d="M556,437.15c5.78-4.93,11.44-10.22,18.73-12.59,1-.34,2.09-.58,3.21-.84a10.64,10.64,0,0,0-1.68-.34,8.36,8.36,0,0,0-.86-.09c-8-.38-16.29,6.62-19.4,13.86Z" transform="translate(-115.99 -156.13)" style="fill:url(#åçûìßííûé_ãðàäèåíò_495-32)"/><path d="M556,448.07c5.8-4.94,11.48-10.24,18.79-12.62,1-.33,2.1-.58,3.22-.83a9.57,9.57,0,0,0-1.69-.35,8.33,8.33,0,0,0-.86-.08c-8.07-.38-16.33,6.62-19.46,13.88Z" transform="translate(-115.99 -156.13)" style="fill:url(#åçûìßííûé_ãðàäèåíò_495-33)"/><path d="M556.44,461.15c5.07-4.69,10-9.83,16.62-12a28.1,28.1,0,0,1,2.94-.7,10.13,10.13,0,0,0-3.1-.52c-7.19,0-14.07,6.57-16.46,13.18Z" transform="translate(-115.99 -156.13)" style="fill:url(#åçûìßííûé_ãðàäèåíò_495-34)"/><path d="M557.08,472c4.49-4.47,8.76-9.51,14.91-11.45a26,26,0,0,1,2.72-.6,8.66,8.66,0,0,0-2.86-.56c-6.67-.11-12.93,6.41-14.77,12.61Z" transform="translate(-115.99 -156.13)" style="fill:url(#åçûìßííûé_ãðàäèåíò_495-35)"/><path d="M557.57,482.38c4.14-4.33,8-9.31,13.85-11.13a19.94,19.94,0,0,1,2.58-.53c-7.23-2.82-14.74,5-16.43,11.66Z" transform="translate(-115.99 -156.13)" style="fill:url(#åçûìßííûé_ãðàäèåíò_495-36)"/><path d="M558.69,491.77c2.36-2.94,4.4-6,7.31-8.35a10.59,10.59,0,0,1,3.7-1.94,13.57,13.57,0,0,1,2.22-.35,6,6,0,0,0-2.3-.67c-5.66-.34-10.2,6.12-10.93,11.31Z" transform="translate(-115.99 -156.13)" style="fill:url(#åçûìßííûé_ãðàäèåíò_495-37)"/><path d="M549.24,353.26c5.43,7.87,11,15.61,14,24.8.43,1.3.78,2.64,1.15,4a15.28,15.28,0,0,0,.25-2.13c0-.34.05-.76,0-1.08,0-9.84-7.34-20.66-15.46-25.62Z" transform="translate(-115.99 -156.13)" style="fill:url(#åçûìßííûé_ãðàäèåíò_495-38)"/><path d="M546.75,368.93c5.08,6.68,10.42,13.22,13,21.34.36,1.15.64,2.34.94,3.57A11.71,11.71,0,0,0,561,392a7.69,7.69,0,0,0,.06-.95c.21-8.87-6.78-18.2-14.32-22.08Z" transform="translate(-115.99 -156.13)" style="fill:url(#åçûìßííûé_ãðàäèåíò_495-39)"/><path d="M545.36,384.61c5,6.38,10.27,12.62,12.76,20.48.35,1.12.61,2.26.89,3.46a12.26,12.26,0,0,0,.33-1.81c0-.28.06-.66.07-.93.27-8.61-6.67-17.6-14-21.2Z" transform="translate(-115.99 -156.13)" style="fill:url(#åçûìßííûé_ãðàäèåíò_495-40)"/><path d="M544.07,400.17c4.82,5.83,10,11.53,12.3,18.9.32,1,.55,2.12.8,3.25a10.66,10.66,0,0,0,.34-1.7c0-.25.08-.62.09-.87.38-8.16-6.46-16.47-13.53-19.58Z" transform="translate(-115.99 -156.13)" style="fill:url(#åçûìßííûé_ãðàäèåíò_495-41)"/><path d="M543.24,411.63c4.87,6,10.08,11.88,12.44,19.4.34,1.07.58,2.17.84,3.32a11.39,11.39,0,0,0,.34-1.74c0-.26.07-.63.07-.88.35-8.31-6.52-16.84-13.69-20.1Z" transform="translate(-115.99 -156.13)" style="fill:url(#åçûìßííûé_ãðàäèåíò_495-42)"/><path d="M543.05,422.9c4.84,5.89,10,11.66,12.36,19.09.32,1.06.56,2.14.81,3.28a11,11,0,0,0,.35-1.71c0-.26.07-.63.08-.88.37-8.21-6.49-16.62-13.6-19.78Z" transform="translate(-115.99 -156.13)" style="fill:url(#åçûìßííûé_ãðàäèåíò_495-43)"/><path d="M542.79,433.91c4.84,5.92,10,11.71,12.37,19.16.33,1.05.57,2.14.82,3.28a11,11,0,0,0,.34-1.71c0-.26.08-.63.08-.88.37-8.23-6.49-16.66-13.61-19.85Z" transform="translate(-115.99 -156.13)" style="fill:url(#åçûìßííûé_ãðàäèåíò_495-44)"/><path d="M544.4,448.11c4.6,5.17,9.64,10.15,11.73,16.95.28.95.49,1.94.69,3a10.77,10.77,0,0,0,.51-3.16c0-7.34-6.45-14.35-12.93-16.78Z" transform="translate(-115.99 -156.13)" style="fill:url(#åçûìßííûé_ãðàäèåíò_495-45)"/><path d="M545.15,459.83c4.39,4.57,9.33,8.93,11.23,15.2a25.07,25.07,0,0,1,.58,2.77,8.85,8.85,0,0,0,.56-2.91c.11-6.8-6.29-13.19-12.37-15.06Z" transform="translate(-115.99 -156.13)" style="fill:url(#åçûìßííûé_ãðàäèåíò_495-46)"/><path d="M546.69,470.89c4.25,4.22,9.13,8.17,10.92,14.12a22.67,22.67,0,0,1,.52,2.63c2.76-7.37-4.89-15-11.44-16.75Z" transform="translate(-115.99 -156.13)" style="fill:url(#åçûìßííûé_ãðàäèåíò_495-47)"/><path d="M548.44,482.33c2.82,2.35,5.75,4.4,8,7.25a10.69,10.69,0,0,1,2.4,6.25,6.19,6.19,0,0,0,.66-2.35c.33-5.77-6-10.4-11.09-11.15Z" transform="translate(-115.99 -156.13)" style="fill:url(#åçûìßííûé_ãðàäèåíò_495-48)"/><path d="M561.83,529.72a509.63,509.63,0,0,0-15.4-58.23c-5.91-17.63-12.9-35-22.26-51A140,140,0,0,0,512,402.88a116.83,116.83,0,0,1,13,17.05c8.44,13.36,14.87,27.94,20.23,42.83a350.19,350.19,0,0,1,16.57,67Z" transform="translate(-115.99 -156.13)" style="fill:url(#åçûìßííûé_ãðàäèåíò_495-49)"/><path d="M512,402.9c-6.4-5.14-12.55-10.41-19.6-14.58-1-.62-2-1.18-3.06-1.82,8.93.64,18.66,8.4,22.66,16.4Z" transform="translate(-115.99 -156.13)" style="fill:url(#åçûìßííûé_ãðàäèåíò_495-50)"/><path d="M515.57,407.14c-8.19-2.31-16.33-4.82-24.89-4.62-1.21,0-2.43.13-3.7.24a13.67,13.67,0,0,1,1.7-.88c.27-.11.62-.26.89-.35,8.19-3,19.42.08,26,5.61Z" transform="translate(-115.99 -156.13)" style="fill:url(#åçûìßííûé_ãðàäèåíò_495-51)"/><path d="M522.4,416.93c-7.1-2.37-14.17-5-21.71-4.79-1.07,0-2.14.15-3.26.27a11.87,11.87,0,0,1,1.47-.84c.23-.11.55-.26.78-.34,7.31-2.87,17.2.35,22.72,5.7Z" transform="translate(-115.99 -156.13)" style="fill:url(#åçûìßííûé_ãðàäèåíò_495-52)"/><path d="M529.22,426.73c-6.82-2.39-13.62-5.06-20.91-4.84-1,0-2.07.16-3.15.28a9.48,9.48,0,0,1,1.41-.83c.22-.11.53-.26.75-.34,7.08-2.85,16.67.43,21.9,5.73Z" transform="translate(-115.99 -156.13)" style="fill:url(#åçûìßííûé_ãðàäèåíò_495-53)"/><path d="M533.48,436.62c-6.31-2.4-12.62-5.15-19.45-4.91-1,0-1.94.16-2.95.29a8,8,0,0,1,1.31-.82c.2-.1.49-.25.7-.33,6.67-2.81,15.66.59,20.39,5.77Z" transform="translate(-115.99 -156.13)" style="fill:url(#åçûìßííûé_ãðàäèåíò_495-54)"/><path d="M538.51,446.48c-6.47-2.39-12.94-5.12-19.92-4.88-1,0-2,.15-3,.28a10.22,10.22,0,0,1,1.34-.82c.21-.1.5-.25.72-.33,6.8-2.82,16,.54,20.87,5.75Z" transform="translate(-115.99 -156.13)" style="fill:url(#åçûìßííûé_ãðàäèåíò_495-55)"/><path d="M542.42,455.73c-6.37-2.4-12.74-5.14-19.64-4.9-1,0-1.94.16-3,.29a10.42,10.42,0,0,1,1.32-.82c.21-.1.5-.25.71-.33,6.72-2.81,15.79.57,20.58,5.76Z" transform="translate(-115.99 -156.13)" style="fill:url(#åçûìßííûé_ãðàäèåíò_495-56)"/><path d="M545.63,465c-6.4-2.4-12.79-5.13-19.7-4.9-1,0-1.95.16-3,.29a9.44,9.44,0,0,1,1.33-.81,6.44,6.44,0,0,1,.7-.34c6.74-2.82,15.84.57,20.65,5.76Z" transform="translate(-115.99 -156.13)" style="fill:url(#åçûìßííûé_ãðàäèåíò_495-57)"/><path d="M549.17,476.24c-5.7-2.41-11.38-5.26-17.66-5-.89,0-1.77.17-2.71.31a9.3,9.3,0,0,1,2.48-1.39c6.12-2.2,13.9,1.22,17.89,6.09Z" transform="translate(-115.99 -156.13)" style="fill:url(#åçûìßííûé_ãðàäèåíò_495-58)"/><path d="M551.86,485.68c-5.13-2.4-10.26-5.36-16.05-5.1a23.05,23.05,0,0,0-2.49.33,8.13,8.13,0,0,1,2.26-1.37c5.63-2.15,12.88,1.45,16.28,6.14Z" transform="translate(-115.99 -156.13)" style="fill:url(#åçûìßííûé_ãðàäèåíò_495-59)"/><path d="M554.52,494.61c-4.8-2.4-9.57-5.43-15.06-5.16a18.49,18.49,0,0,0-2.35.34c5.3-4.62,14-.33,17.41,4.82Z" transform="translate(-115.99 -156.13)" style="fill:url(#åçûìßííûé_ãðàäèåíò_495-60)"/><path d="M556.37,502.92c-2.88-1.76-5.53-3.75-8.69-4.82a9.35,9.35,0,0,0-3.71-.5,11.74,11.74,0,0,0-2,.39,5.42,5.42,0,0,1,1.76-1.29c4.7-2,10.47,2,12.64,6.22Z" transform="translate(-115.99 -156.13)" style="fill:url(#åçûìßííûé_ãðàäèåíò_495-61)"/><path d="M523.2,382.45c-2.27,8.36-4.73,16.66-4.53,25.38,0,1.24.13,2.48.23,3.77a12.6,12.6,0,0,1-.85-1.73c-.12-.27-.27-.63-.36-.9-2.9-8.36.09-19.8,5.51-26.52Z" transform="translate(-115.99 -156.13)" style="fill:url(#åçûìßííûé_ãðàäèåíò_495-62)"/><path d="M530,395c-2.33,7.23-4.91,14.44-4.69,22.13,0,1.09.14,2.18.26,3.32a10.8,10.8,0,0,1-.82-1.49,8,8,0,0,1-.34-.8c-2.82-7.46.35-17.54,5.59-23.16Z" transform="translate(-115.99 -156.13)" style="fill:url(#åçûìßííûé_ãðàäèåíò_495-63)"/><path d="M535.81,407.85c-2.34,7-5,13.89-4.73,21.33,0,1.06.15,2.11.26,3.22a11.42,11.42,0,0,1-.81-1.45c-.1-.22-.25-.53-.33-.76-2.8-7.23.42-17,5.61-22.34Z" transform="translate(-115.99 -156.13)" style="fill:url(#åçûìßííûé_ãðàäèåíò_495-64)"/><path d="M541.54,420.66c-2.36,6.44-5,12.87-4.82,19.84,0,1,.16,2,.28,3a9.32,9.32,0,0,1-.79-1.33c-.1-.21-.25-.51-.33-.72-2.75-6.8.58-16,5.66-20.8Z" transform="translate(-115.99 -156.13)" style="fill:url(#åçûìßííûé_ãðàäèåíò_495-65)"/><path d="M545.65,430.13c-2.35,6.6-5,13.2-4.79,20.32,0,1,.15,2,.27,3.07a11.67,11.67,0,0,1-.8-1.37c-.1-.21-.25-.51-.33-.73-2.76-6.94.53-16.3,5.65-21.29Z" transform="translate(-115.99 -156.13)" style="fill:url(#åçûìßííûé_ãðàäèåíò_495-66)"/><path d="M549.16,439.64c-2.36,6.49-5,13-4.81,20,0,1,.15,2,.28,3a9.59,9.59,0,0,1-.8-1.35c-.1-.21-.25-.51-.33-.72-2.75-6.86.56-16.11,5.66-21Z" transform="translate(-115.99 -156.13)" style="fill:url(#åçûìßííûé_ãðàäèåíò_495-67)"/><path d="M552.66,448.9c-2.36,6.52-5,13-4.81,20.09,0,1,.16,2,.28,3a11.41,11.41,0,0,1-.8-1.35A6.73,6.73,0,0,1,547,470c-2.76-6.87.55-16.14,5.65-21.05Z" transform="translate(-115.99 -156.13)" style="fill:url(#åçûìßííûé_ãðàäèåíò_495-68)"/><path d="M555.51,461.45c-2.37,5.81-5.16,11.6-4.91,18a27.65,27.65,0,0,0,.3,2.76,9.66,9.66,0,0,1-1.37-2.53c-2.15-6.24,1.2-14.17,6-18.24Z" transform="translate(-115.99 -156.13)" style="fill:url(#åçûìßííûé_ãðàäèåíò_495-69)"/><path d="M558.36,471.63c-2.36,5.24-5.26,10.47-5,16.38a23.75,23.75,0,0,0,.33,2.53,8,8,0,0,1-1.34-2.31c-2.11-5.73,1.42-13.13,6-16.6Z" transform="translate(-115.99 -156.13)" style="fill:url(#åçûìßííûé_ãðàäèåíò_495-70)"/><path d="M560.34,481.49c-2.35,4.9-5.32,9.76-5.06,15.36a19.23,19.23,0,0,0,.34,2.4c-4.54-5.41-.33-14.27,4.72-17.76Z" transform="translate(-115.99 -156.13)" style="fill:url(#åçûìßííûé_ãðàäèåíò_495-71)"/><path d="M562.26,491.75c-1.69,2.86-3.58,5.51-4.66,8.63a9.7,9.7,0,0,0-.18,6.05,5.73,5.73,0,0,1-1.26-1.79c-2-4.8,2-10.69,6.1-12.89Z" transform="translate(-115.99 -156.13)" style="fill:url(#åçûìßííûé_ãðàäèåíò_495-72)"/><rect x="411.87" y="335.34" width="65.78" height="9.36" style="fill:#bf3da2"/><polygon points="422.65 382.95 466.88 382.95 472.76 344.7 416.77 344.7 422.65 382.95" style="fill:#db46bb"/><path d="M399.5,389.87l9.3,1.83,5.85,4.14,1.58,2.53a.74.74,0,0,1-.61,1.13h0a.71.71,0,0,1-.58-.31l-1.58-2.25-5.25-2.47L405.1,394l1.64,3.08,1.57.84a.77.77,0,0,1,.23,1.16h0a.74.74,0,0,1-.81.23l-2-.69L401.17,395H399.5Z" transform="translate(-115.99 -156.13)" style="fill:url(#åçûìßííûé_ãðàäèåíò_6)"/><polygon points="223.59 181.81 224.83 190.22 227.68 200.53 237.25 213.36 245.87 221.57 284.23 233.12 284.23 239.22 235.55 231.87 223.81 221.15 218.18 208.1 213.24 184.22 223.59 181.81" style="fill:#f9e1fa"/><polygon points="263.72 390.15 255.29 390.15 283.39 250.81 291.81 250.81 263.72 390.15" style="fill:#bf3da2"/><polygon points="195.44 358.29 242.35 327.75 241.11 325.78 194.21 356.32 195.44 358.29" style="fill:#8f2d7b"/><polygon points="251.25 358.29 252.49 356.32 205.58 325.78 204.35 327.75 251.25 358.29" style="fill:#8f2d7b"/><polygon points="185.57 390.15 179.49 390.15 211.03 304 217.11 304 185.57 390.15" style="fill:#bf3da2"/><polygon points="262.1 390.15 268.18 390.15 236.64 304 230.56 304 262.1 390.15" style="fill:#bf3da2"/><polygon points="181.89 358.29 228.8 327.75 227.56 325.78 180.66 356.32 181.89 358.29" style="fill:#8f2d7b"/><polygon points="237.71 358.29 238.94 356.32 192.03 325.78 190.8 327.75 237.71 358.29" style="fill:#8f2d7b"/><polygon points="172.02 390.15 165.94 390.15 197.48 304 203.56 304 172.02 390.15" style="fill:#bf3da2"/><polygon points="248.55 390.15 254.63 390.15 223.09 304 217.01 304 248.55 390.15" style="fill:#bf3da2"/><path d="M386.32,459.55c-21.5-3.6-43.26-5.06-65-6-1.82-.06-3.73-.18-5.52-.4A34.24,34.24,0,0,1,287.1,424c-.18-.84-.29-2.13-.41-3-.58-4.86-1.38-10.77-2.05-15.65-1.49-10.37-3.16-20.91-5.12-31.21-1.6-8-3.17-16.09-5.27-24.08a.89.89,0,0,0-1-.68h0c1.81,22.06,4.31,50.37,6.26,72.3.86,20.09,15.84,36.67,35.53,38.7,3,.29,6.33.21,9.35.21l37.13-.1,24.76-.19v-.79Z" transform="translate(-115.99 -156.13)" style="fill:#db46bb"/><path d="M328,330.07l2.53-4.92,5.85,1.94a3.86,3.86,0,0,0,5.12-2.7l1-5.49,1.39-.43a1.71,1.71,0,0,0,1.21-2.05l-1.38-5.05.95-5.16a5,5,0,0,0-1.95-4.79l-4.29-3.3a11.9,11.9,0,0,0-12.06-1.4l-.14.06a10.14,10.14,0,0,0-5.94,7.4c-.89,5.18-2.16,12.43-2.16,12.43l.14,10.74Z" transform="translate(-115.99 -156.13)" style="fill:url(#åçûìßííûé_ãðàäèåíò_115)"/><polygon points="216.98 172.92 207.82 170.57 197.21 171.75 202.82 178.89 212.5 182.14 216.98 177.43 216.98 172.92" style="fill:url(#åçûìßííûé_ãðàäèåíò_115-2)"/><polygon points="220.17 269.74 295.97 288.11 294.78 377.75 282.17 377.75 278.01 303.11 202.83 300.36 220.17 269.74" style="fill:#1a1a1a"/><path d="M385.26,533.79l7.58-99.54-56.69-8.39-41.66-7.18,4.78,26.14a13.65,13.65,0,0,0,12.62,11.27l60.83,3.23.75,74.47Z" transform="translate(-115.99 -156.13)" style="fill:#212121"/><path d="M339.58,337.94a11.57,11.57,0,0,0-4.81-9.08,2.63,2.63,0,0,0-3.86.94,7.29,7.29,0,0,1-6.38,4.13,7.54,7.54,0,0,1-6.93-5.39,2.68,2.68,0,0,0-2.52-1.84h0a14.39,14.39,0,0,0-14.35,14.37l-6.21,77.61,41.66,7.18Z" transform="translate(-115.99 -156.13)" style="fill:#f9ebfa"/><polygon points="294.78 377.75 323.95 390.15 281.64 390.15 282.17 377.75 294.78 377.75"/><polygon points="270.09 377.75 299.26 390.15 256.95 390.15 257.48 377.75 270.09 377.75"/><polygon points="210.81 176.35 207.09 178.22 208.01 183.72 213.24 184.22 212.62 177.37 210.81 176.35" style="fill:#1a1a1a"/><polygon points="197.82 170.54 199.95 168.3 210.81 176.35 206.38 180.69 197.82 170.54" style="fill:#ea81f4"/><polygon points="210.81 176.35 213.59 179.3 215.66 172.02 214.68 170.02 210.81 176.35" style="fill:#ea81f4"/><path d="M319.06,500.9a.94.94,0,0,1-.82-.49l-.79-1.41a4.37,4.37,0,0,0-3.81-2.26H303a4.37,4.37,0,0,0-3.81,2.26l-.79,1.41a.94.94,0,0,1-1.65-.91l.79-1.41a6.24,6.24,0,0,1,5.46-3.23h10.6a6.24,6.24,0,0,1,5.46,3.23l.79,1.41a1,1,0,0,1-.37,1.28A1,1,0,0,1,319.06,500.9Z" transform="translate(-115.99 -156.13)"/><rect x="161.61" y="343.83" width="61.49" height="46.47"/><polygon points="223.1 367.06 192.35 373.83 161.61 367.06 161.61 343.83 223.1 343.83 223.1 367.06" style="fill:#1a1a1a"/><polygon points="194.91 376.68 189.8 376.68 189.18 368.79 195.53 368.79 194.91 376.68" style="fill:#ccc"/><polygon points="208.01 183.72 204.99 202.86 208.87 240.07 212.21 253.56 216.98 240.44 216.98 200.97 213.24 184.22 208.01 183.72" style="fill:#212121"/><path d="M318.07,316.61l.29-20.24,3.7.58-.72-3.83,3.62,1.52,3.71-4.32,8,2.85,10.13.73-1.74,2.27,5.19,1.85-5.37,6.65s-9.07-3.61-15.23,8.43c0,0-4.63-12.55-7.39.92Z" transform="translate(-115.99 -156.13)" style="fill:#1a1a1a"/><rect x="250.9" y="250.81" width="124.54" height="16.18" style="fill:#db46bb"/><rect x="223.81" y="242.25" width="194.13" height="8.56" style="fill:#d142b3"/><polygon points="363.33 390.15 371.75 390.15 343.65 250.81 335.23 250.81 363.33 390.15" style="fill:#bf3da2"/><polygon points="227.41 390.15 218.98 390.15 247.08 250.81 255.51 250.81 227.41 390.15" style="fill:#bf3da2"/><rect x="205.5" y="242.25" width="169.94" height="8.56" style="fill:#8f2d7b"/><polygon points="399.63 390.15 408.06 390.15 379.96 250.81 371.53 250.81 399.63 390.15" style="fill:#bf3da2"/><path d="M374.3,388l9.3,1.83,5.85,4.14,1.58,2.53a.74.74,0,0,1-.61,1.12h0a.69.69,0,0,1-.58-.31l-1.58-2.25L383,392.63l-3.11-.45,1.64,3.09,1.57.83a.77.77,0,0,1,.23,1.16h0a.74.74,0,0,1-.81.23l-2-.68L376,393.14H374.3Z" transform="translate(-115.99 -156.13)" style="fill:url(#åçûìßííûé_ãðàäèåíò_7)"/><path d="M315.22,343.27l.45,3.08,2.85,10.31,9.57,12.83,8.62,8.2,38.36,9.72v6.1L326.4,388l-11.75-10.73-10-17.49-2.21-14.52a6.53,6.53,0,0,1,6.7-7.59h0A6.52,6.52,0,0,1,315.22,343.27Z" transform="translate(-115.99 -156.13)" style="fill:#fafafa"/><rect x="260.07" y="240.03" width="75.15" height="2.24" style="fill:#f9e1fa"/><polygon points="302.65 202.62 347.41 202.62 335.23 240.03 290.47 240.03 302.65 202.62" style="fill:#f9e1fa"/><ellipse cx="434.93" cy="377.45" rx="5.78" ry="4.17" transform="translate(-256.89 228.77) rotate(-41.69)" style="fill:#fff"/><polygon points="404.46 172.99 350.89 194.8 350.89 172.99 404.46 172.99" style="fill:#f3daf5"/><path d="M451.35,355.26H657.07c4.06,0,7.34-3.86,7.34-8.62V164.75c0-4.76-3.28-8.62-7.34-8.62H451.35c-4.06,0-7.34,3.86-7.34,8.62V346.64C444,351.4,447.29,355.26,451.35,355.26Z" transform="translate(-115.99 -156.13)" style="fill:#f9ebfa"/><path d="M444,168.64h220.4v-5a7.41,7.41,0,0,0-7.34-7.48H451.35a7.41,7.41,0,0,0-7.34,7.48Z" transform="translate(-115.99 -156.13)" style="fill:url(#åçûìßííûé_ãðàäèåíò_494)"/><path d="M652.31,162.38a3,3,0,1,0,3-3A3,3,0,0,0,652.31,162.38Z" transform="translate(-115.99 -156.13)" style="fill:#db8cca"/><ellipse cx="530.75" cy="6.26" rx="2.96" ry="3.02" style="fill:#db8cca"/><path d="M635.23,162.38a3,3,0,1,0,3-3A3,3,0,0,0,635.23,162.38Z" transform="translate(-115.99 -156.13)" style="fill:#db8cca"/><ellipse cx="438.22" cy="47.19" rx="26.12" ry="26.64" style="fill:url(#åçûìßííûé_ãðàäèåíò_493)"/><path d="M554.21,228.49a24.3,24.3,0,0,1-17.46-7.37,25.54,25.54,0,0,1,0-35.61,24.34,24.34,0,0,1,34.92,0,25.54,25.54,0,0,1,0,35.61A24.33,24.33,0,0,1,554.21,228.49Z" transform="translate(-115.99 -156.13)" style="fill:#fff"/><g style="clip-path:url(#clip-path)"><path d="M569.6,216.82a7.37,7.37,0,0,0-7.27-6.55h-2a8.41,8.41,0,0,0,2.1-4.17l.45.45-.21-2.07h0a17.36,17.36,0,0,0,0-2.06,5.29,5.29,0,0,0,1.7-2.42s1.89-3.66.29-4.19a2,2,0,0,0-.31-.07c.56-2.75,1.06-7.18-1.35-7.42a11.29,11.29,0,0,0,1.33-3.1,17,17,0,0,1-5.86-.29,9.85,9.85,0,0,0-3-.88l-.23-.1c-3.87-1.57-7.5-.33-8.44,1.07l-.67-.43.47,1.31a1.27,1.27,0,0,0,.06.18l-2-.56,1.28.69c-1.17.42-3.29,2.19-2,9.58l-.06,0c-1.61.53.28,4.19.28,4.19a6,6,0,0,0,1.4,2.21,14.3,14.3,0,0,0,.37,4.34v1.08l.31-.09a7.76,7.76,0,0,0,1.69,2.73h-2a7.39,7.39,0,0,0-7.28,6.55L537,232h6.31l.52-6.47.58,6.47H564l.58-6.47.52,6.47h6.31Z" transform="translate(-115.99 -156.13)" style="fill:url(#åçûìßííûé_ãðàäèåíò_618)"/></g><path d="M602.14,268H514.58a3.16,3.16,0,0,1-3.12-3.19V254.22a3.15,3.15,0,0,1,3.12-3.18h87.56a3.15,3.15,0,0,1,3.13,3.18v10.59A3.16,3.16,0,0,1,602.14,268Z" transform="translate(-115.99 -156.13)" style="fill:#fff"/><path d="M524.21,259.82c0,1-.43,1.47-1.3,1.47s-1.24-.47-1.24-1.41v-2.14h.4v2.11c0,.71.3,1.07.89,1.07s.85-.34.85-1v-2.15h.4Z" transform="translate(-115.99 -156.13)" style="fill:#ccc"/><path d="M524.87,261.14v-.43a1.14,1.14,0,0,0,.7.24c.35,0,.52-.11.52-.35a.34.34,0,0,0-.05-.17.68.68,0,0,0-.12-.12.91.91,0,0,0-.17-.09l-.22-.09-.29-.14a.62.62,0,0,1-.2-.15.5.5,0,0,1-.13-.19.87.87,0,0,1,0-.25.65.65,0,0,1,.08-.31.63.63,0,0,1,.21-.22.83.83,0,0,1,.3-.14,1.34,1.34,0,0,1,.35-.05,1.48,1.48,0,0,1,.57.11v.41a1.1,1.1,0,0,0-.62-.18l-.2,0a.52.52,0,0,0-.15.07.28.28,0,0,0-.1.12.23.23,0,0,0,0,.14.27.27,0,0,0,0,.16.35.35,0,0,0,.1.12l.16.09.22.09.29.13a.94.94,0,0,1,.22.15.62.62,0,0,1,.14.19.71.71,0,0,1,0,.26.67.67,0,0,1-.08.33.77.77,0,0,1-.22.22.92.92,0,0,1-.3.14,1.5,1.5,0,0,1-.37,0A1.33,1.33,0,0,1,524.87,261.14Z" transform="translate(-115.99 -156.13)" style="fill:#ccc"/><path d="M529.05,260.09h-1.72a.92.92,0,0,0,.22.64.74.74,0,0,0,.57.22,1.2,1.2,0,0,0,.76-.27v.37a1.38,1.38,0,0,1-.85.24,1,1,0,0,1-.81-.34,1.39,1.39,0,0,1-.3-.95,1.36,1.36,0,0,1,.33-.95,1,1,0,0,1,.8-.37.92.92,0,0,1,.74.32,1.36,1.36,0,0,1,.26.88Zm-.4-.34a.81.81,0,0,0-.16-.54A.55.55,0,0,0,528,259a.61.61,0,0,0-.47.2.9.9,0,0,0-.24.53Z" transform="translate(-115.99 -156.13)" style="fill:#ccc"/><path d="M530.92,259.14a.51.51,0,0,0-.3-.08.52.52,0,0,0-.42.24,1.17,1.17,0,0,0-.16.66v1.27h-.4v-2.49h.4v.51h0a1,1,0,0,1,.26-.41.59.59,0,0,1,.38-.14.74.74,0,0,1,.24,0Z" transform="translate(-115.99 -156.13)" style="fill:#ccc"/><path d="M533.37,261.23H533v-1.42c0-.53-.19-.79-.57-.79a.59.59,0,0,0-.48.22.84.84,0,0,0-.2.57v1.42h-.39v-2.49h.39v.41h0a.9.9,0,0,1,.81-.47.73.73,0,0,1,.61.27,1.19,1.19,0,0,1,.21.76Z" transform="translate(-115.99 -156.13)" style="fill:#ccc"/><path d="M535.86,261.23h-.39v-.39h0a.82.82,0,0,1-.76.45.81.81,0,0,1-.57-.2.7.7,0,0,1-.2-.52c0-.47.27-.74.8-.81l.74-.11q0-.63-.51-.63a1.18,1.18,0,0,0-.79.3v-.4a1.45,1.45,0,0,1,.83-.24c.57,0,.86.31.86.93Zm-.39-1.26-.59.08a1,1,0,0,0-.41.14.38.38,0,0,0-.14.35.41.41,0,0,0,.12.3.48.48,0,0,0,.34.11.66.66,0,0,0,.49-.2.8.8,0,0,0,.19-.53Z" transform="translate(-115.99 -156.13)" style="fill:#ccc"/><path d="M540.06,261.23h-.39V259.8a1.17,1.17,0,0,0-.12-.6.49.49,0,0,0-.42-.18.54.54,0,0,0-.43.23.89.89,0,0,0-.18.56v1.42h-.39v-1.48c0-.49-.18-.73-.55-.73a.5.5,0,0,0-.43.22.92.92,0,0,0-.16.57v1.42h-.4v-2.49h.4v.39h0a.84.84,0,0,1,.76-.45.72.72,0,0,1,.44.14.79.79,0,0,1,.26.38.86.86,0,0,1,.81-.52c.53,0,.8.34.8,1Z" transform="translate(-115.99 -156.13)" style="fill:#ccc"/><path d="M542.77,260.09H541a1,1,0,0,0,.22.64.75.75,0,0,0,.58.22,1.22,1.22,0,0,0,.76-.27v.37a1.41,1.41,0,0,1-.86.24,1,1,0,0,1-.81-.34,1.39,1.39,0,0,1-.29-.95,1.35,1.35,0,0,1,.32-.95,1,1,0,0,1,.8-.37.9.9,0,0,1,.74.32,1.3,1.3,0,0,1,.27.88Zm-.41-.34a.81.81,0,0,0-.16-.54.54.54,0,0,0-.45-.19.61.61,0,0,0-.47.2,1,1,0,0,0-.23.53Z" transform="translate(-115.99 -156.13)" style="fill:#ccc"/><path d="M543.49,261.29a.23.23,0,0,1-.18-.09.22.22,0,0,1-.08-.19.24.24,0,0,1,.08-.19.22.22,0,0,1,.18-.08.22.22,0,0,1,.19.08.24.24,0,0,1,.08.19.22.22,0,0,1-.08.19A.23.23,0,0,1,543.49,261.29Z" transform="translate(-115.99 -156.13)" style="fill:#ccc"/><path d="M544.55,261.29a.23.23,0,0,1-.18-.09.22.22,0,0,1-.08-.19.24.24,0,0,1,.08-.19.22.22,0,0,1,.18-.08.22.22,0,0,1,.19.08.24.24,0,0,1,.08.19.22.22,0,0,1-.08.19A.23.23,0,0,1,544.55,261.29Z" transform="translate(-115.99 -156.13)" style="fill:#ccc"/><path d="M545.61,261.29a.26.26,0,0,1-.19-.09.25.25,0,0,1-.07-.19.26.26,0,0,1,.07-.19.25.25,0,0,1,.19-.08.22.22,0,0,1,.19.08.24.24,0,0,1,.08.19.22.22,0,0,1-.08.19A.23.23,0,0,1,545.61,261.29Z" transform="translate(-115.99 -156.13)" style="fill:#ccc"/><path d="M506.17,261.38a2.85,2.85,0,1,1-5.7,0c0-1.61,1.28-2.09,2.85-2.09S506.17,259.77,506.17,261.38Z" transform="translate(-115.99 -156.13)" style="fill:url(#åçûìßííûé_ãðàäèåíò_492)"/><path d="M505.11,256.57a1.79,1.79,0,1,1-1.79-1.82A1.8,1.8,0,0,1,505.11,256.57Z" transform="translate(-115.99 -156.13)" style="fill:url(#åçûìßííûé_ãðàäèåíò_492-2)"/><path d="M602.14,309.46H514.58a3.16,3.16,0,0,1-3.12-3.19V295.68a3.15,3.15,0,0,1,3.12-3.18h87.56a3.15,3.15,0,0,1,3.13,3.18v10.59A3.16,3.16,0,0,1,602.14,309.46Z" transform="translate(-115.99 -156.13)" style="fill:#fff"/><path d="M522.05,301.45v1.24h-.38v-3.3h.89a1.17,1.17,0,0,1,.8.26.93.93,0,0,1,.29.73,1,1,0,0,1-.32.77,1.2,1.2,0,0,1-.86.3Zm0-1.71v1.36h.4a.85.85,0,0,0,.59-.19.64.64,0,0,0,.21-.51c0-.44-.25-.66-.76-.66Z" transform="translate(-115.99 -156.13)" style="fill:#ccc"/><path d="M525.7,302.69h-.37v-.37h0a.78.78,0,0,1-.72.43.73.73,0,0,1-.54-.19.64.64,0,0,1-.19-.49c0-.44.25-.7.76-.77l.69-.1c0-.4-.15-.6-.47-.6a1.12,1.12,0,0,0-.76.29v-.39a1.4,1.4,0,0,1,.79-.22c.54,0,.81.29.81.88Zm-.37-1.19-.55.08a.89.89,0,0,0-.39.13.43.43,0,0,0,0,.61.48.48,0,0,0,.32.11.58.58,0,0,0,.46-.2.73.73,0,0,0,.17-.49Z" transform="translate(-115.99 -156.13)" style="fill:#ccc"/><path d="M526.26,302.61v-.41a1.11,1.11,0,0,0,.67.23c.32,0,.49-.11.49-.33a.28.28,0,0,0,0-.16.4.4,0,0,0-.11-.12l-.17-.09-.2-.08-.27-.13a1,1,0,0,1-.2-.14.42.42,0,0,1-.11-.18.61.61,0,0,1,0-.24.54.54,0,0,1,.07-.29.7.7,0,0,1,.2-.22,1.2,1.2,0,0,1,.28-.13,1.86,1.86,0,0,1,.33,0,1.33,1.33,0,0,1,.54.11v.38a1.07,1.07,0,0,0-.59-.17l-.19,0-.14.07a.24.24,0,0,0-.09.11.28.28,0,0,0,0,.13.33.33,0,0,0,0,.15.24.24,0,0,0,.09.11.51.51,0,0,0,.16.09l.2.09.28.12a1.1,1.1,0,0,1,.21.14.8.8,0,0,1,.13.19.6.6,0,0,1,0,.24.62.62,0,0,1-.08.31.8.8,0,0,1-.2.21,1,1,0,0,1-.29.13,2,2,0,0,1-.35,0A1.35,1.35,0,0,1,526.26,302.61Z" transform="translate(-115.99 -156.13)" style="fill:#ccc"/><path d="M528.22,302.61v-.41a1.13,1.13,0,0,0,.67.23c.33,0,.49-.11.49-.33a.38.38,0,0,0,0-.16l-.12-.12-.16-.09-.21-.08-.27-.13a.72.72,0,0,1-.19-.14.36.36,0,0,1-.12-.18.61.61,0,0,1,0-.24.54.54,0,0,1,.07-.29.7.7,0,0,1,.2-.22,1.11,1.11,0,0,1,.29-.13,1.65,1.65,0,0,1,.32,0,1.33,1.33,0,0,1,.54.11v.38a1,1,0,0,0-.59-.17l-.18,0a.52.52,0,0,0-.15.07.24.24,0,0,0-.09.11.28.28,0,0,0,0,.13.33.33,0,0,0,0,.15.21.21,0,0,0,.1.11.38.38,0,0,0,.15.09l.21.09.27.12a1.1,1.1,0,0,1,.21.14.59.59,0,0,1,.13.19.6.6,0,0,1,0,.24.62.62,0,0,1-.08.31.8.8,0,0,1-.2.21.86.86,0,0,1-.29.13,2,2,0,0,1-.35,0A1.35,1.35,0,0,1,528.22,302.61Z" transform="translate(-115.99 -156.13)" style="fill:#ccc"/><path d="M533.24,300.34l-.69,2.35h-.39l-.48-1.68a1.46,1.46,0,0,1,0-.22h0a.76.76,0,0,1,0,.21l-.51,1.69h-.37l-.7-2.35h.38l.48,1.77a.58.58,0,0,1,0,.21h0a2.07,2.07,0,0,1,0-.22l.54-1.76h.33l.48,1.77a1.12,1.12,0,0,1,0,.21h0c0-.05,0-.13,0-.21l.47-1.77Z" transform="translate(-115.99 -156.13)" style="fill:#ccc"/><path d="M534.63,302.75a1.08,1.08,0,0,1-.82-.33,1.25,1.25,0,0,1-.3-.88,1.33,1.33,0,0,1,.32-.93,1.14,1.14,0,0,1,.86-.33,1,1,0,0,1,.8.33,1.25,1.25,0,0,1,.29.9,1.28,1.28,0,0,1-.31.9A1.08,1.08,0,0,1,534.63,302.75Zm0-2.15a.66.66,0,0,0-.56.25,1,1,0,0,0-.21.68,1,1,0,0,0,.21.66.71.71,0,0,0,.56.24.66.66,0,0,0,.55-.24,1,1,0,0,0,.2-.67,1,1,0,0,0-.2-.68A.66.66,0,0,0,534.66,300.6Z" transform="translate(-115.99 -156.13)" style="fill:#ccc"/><path d="M537.58,300.72a.44.44,0,0,0-.28-.08.46.46,0,0,0-.39.23,1,1,0,0,0-.16.62v1.2h-.37v-2.35h.37v.48h0a.86.86,0,0,1,.24-.39.56.56,0,0,1,.36-.14.57.57,0,0,1,.22,0Z" transform="translate(-115.99 -156.13)" style="fill:#ccc"/><path d="M540,302.69h-.37v-.4h0a.92.92,0,0,1-1.49.14,1.28,1.28,0,0,1-.26-.86,1.46,1.46,0,0,1,.28-.94,1,1,0,0,1,.77-.35.76.76,0,0,1,.7.38h0V299.2H540Zm-.37-1.06v-.35a.69.69,0,0,0-.19-.48.59.59,0,0,0-.47-.2.63.63,0,0,0-.53.25,1.12,1.12,0,0,0-.2.7,1,1,0,0,0,.19.64.61.61,0,0,0,.5.24.63.63,0,0,0,.5-.23A.84.84,0,0,0,539.59,301.63Z" transform="translate(-115.99 -156.13)" style="fill:#ccc"/><path d="M540.83,302.74a.23.23,0,0,1-.17-.07.25.25,0,0,1-.08-.18.27.27,0,0,1,.08-.19.23.23,0,0,1,.17-.07.25.25,0,0,1,.19.07.32.32,0,0,1,.07.19.29.29,0,0,1-.07.18A.25.25,0,0,1,540.83,302.74Z" transform="translate(-115.99 -156.13)" style="fill:#ccc"/><path d="M541.84,302.74a.24.24,0,0,1-.25-.25.26.26,0,0,1,.07-.19.27.27,0,0,1,.36,0,.26.26,0,0,1,.07.19.24.24,0,0,1-.25.25Z" transform="translate(-115.99 -156.13)" style="fill:#ccc"/><path d="M542.84,302.74a.24.24,0,0,1-.25-.25.26.26,0,0,1,.07-.19.27.27,0,0,1,.36,0,.26.26,0,0,1,.07.19.24.24,0,0,1-.25.25Z" transform="translate(-115.99 -156.13)" style="fill:#ccc"/><path d="M506,305.74h-4.81a.85.85,0,0,1-.84-.85v-3.38a.85.85,0,0,1,.84-.85H506a.85.85,0,0,1,.84.85v3.38A.85.85,0,0,1,506,305.74Z" transform="translate(-115.99 -156.13)" style="fill:url(#åçûìßííûé_ãðàäèåíò_492-3)"/><path d="M501,298.8v2.58h.84v-2.64a1.71,1.71,0,0,1,1.7-1.73h0a1.71,1.71,0,0,1,1.69,1.73v2.64h.84V298.8a2.56,2.56,0,0,0-2.53-2.59h0A2.56,2.56,0,0,0,501,298.8Z" transform="translate(-115.99 -156.13)" style="fill:url(#åçûìßííûé_ãðàäèåíò_492-4)"/><path d="M617.68,241.17H490.74a.72.72,0,0,1-.71-.73.71.71,0,0,1,.71-.72H617.68a.71.71,0,0,1,.71.72A.72.72,0,0,1,617.68,241.17Z" transform="translate(-115.99 -156.13)" style="fill:url(#åçûìßííûé_ãðàäèåíò_491)"/><path d="M585.11,349.4H522.72a2.25,2.25,0,0,1-2.23-2.27v-7.54a2.25,2.25,0,0,1,2.23-2.27h62.39a2.25,2.25,0,0,1,2.22,2.27v7.54A2.24,2.24,0,0,1,585.11,349.4Z" transform="translate(-115.99 -156.13)" style="fill:url(#åçûìßííûé_ãðàäèåíò_490)"/><text transform="translate(428.83 188.5)" style="font-size:5.341468811035156px;fill:#fff;font-family:Roboto-Regular, Roboto">Sign Up</text><path d="M602.14,288.73H514.58a3.16,3.16,0,0,1-3.12-3.19V275a3.15,3.15,0,0,1,3.12-3.18h87.56a3.15,3.15,0,0,1,3.13,3.18v10.59A3.16,3.16,0,0,1,602.14,288.73Z" transform="translate(-115.99 -156.13)" style="fill:#fff"/><path d="M506.17,282.11a2.85,2.85,0,1,1-5.7,0c0-1.61,1.28-2.09,2.85-2.09S506.17,280.5,506.17,282.11Z" transform="translate(-115.99 -156.13)" style="fill:url(#åçûìßííûé_ãðàäèåíò_492-5)"/><path d="M505.11,277.3a1.79,1.79,0,1,1-1.79-1.82A1.8,1.8,0,0,1,505.11,277.3Z" transform="translate(-115.99 -156.13)" style="fill:url(#åçûìßííûé_ãðàäèåíò_492-6)"/><text transform="translate(405.68 125.34)" style="font-size:4.977840900421143px;fill:#ccc;font-family:Roboto-Regular, Roboto">Email...</text><path d="M602.14,330.19H514.58a3.16,3.16,0,0,1-3.12-3.19V316.41a3.15,3.15,0,0,1,3.12-3.18h87.56a3.15,3.15,0,0,1,3.13,3.18V327A3.16,3.16,0,0,1,602.14,330.19Z" transform="translate(-115.99 -156.13)" style="fill:#fff"/><path d="M506,326.47h-4.81a.85.85,0,0,1-.84-.85v-3.38a.85.85,0,0,1,.84-.85H506a.85.85,0,0,1,.84.85v3.38A.85.85,0,0,1,506,326.47Z" transform="translate(-115.99 -156.13)" style="fill:url(#åçûìßííûé_ãðàäèåíò_492-7)"/><path d="M501,319.53v2.58h.84v-2.64a1.71,1.71,0,0,1,1.7-1.73h0a1.71,1.71,0,0,1,1.69,1.73v2.64h.84v-2.58a2.56,2.56,0,0,0-2.53-2.59h0A2.56,2.56,0,0,0,501,319.53Z" transform="translate(-115.99 -156.13)" style="fill:url(#åçûìßííûé_ãðàäèåíò_492-8)"/><text transform="translate(405.68 167.16)" style="font-size:4.977840900421143px;fill:#ccc;font-family:Roboto-Regular, Roboto">Confirm <tspan x="19.04" y="0" style="letter-spacing:-0.005493094405184108em">P</tspan><tspan x="22.15" y="0">asswo</tspan><tspan x="36.58" y="0" style="letter-spacing:-0.00922055132298761em">r</tspan><tspan x="38.21" y="0" style="letter-spacing:-0.00019618194304228957em">d...</tspan></text></svg>