<svg id="Layer_1" enable-background="new 0 0 64 64" height="64" viewBox="0 0 64 64" width="64" xmlns="http://www.w3.org/2000/svg"><g><circle cx="32" cy="32" fill="#55c9ed" r="32"/><g fill="#fff"><path d="m45.111 43.738h-7.777c-.828 0-1.5-.672-1.5-1.5 0-.827.672-1.5 1.5-1.5h7.777c3.732 0 6.771-3.037 6.771-6.771 0-3.682-2.885-6.651-6.567-6.761-.812-.024-1.455-.688-1.455-1.5v-.166c0-6.101-4.965-11.064-11.064-11.064-6.1 0-11.065 4.963-11.065 11.064v.155c0 .829-.671 1.5-1.5 1.5h-1.34c-3.734 0-6.772 3.039-6.772 6.774 0 3.732 3.038 6.77 6.772 6.77h7.776c.829 0 1.5.673 1.5 1.5 0 .828-.671 1.5-1.5 1.5h-7.777c-5.389 0-9.772-4.383-9.772-9.77 0-5.358 4.332-9.723 9.677-9.773.68-7.126 6.699-12.72 14.001-12.72 7.354 0 13.408 5.673 14.015 12.874 4.627.797 8.073 4.783 8.073 9.619-.001 5.386-4.385 9.769-9.773 9.769z"/><path d="m37.409 34.896-4.335-4.459-.002-.001c-.008-.008-.014-.015-.021-.022-.002-.002-.002-.004-.004-.006-.004-.004-.01-.005-.014-.009-.137-.131-.299-.235-.477-.307-.014-.005-.027-.008-.041-.013-.153-.057-.315-.091-.488-.094-.004 0-.008-.001-.011-.001-.006 0-.011-.002-.017-.002-.005 0-.01.001-.015.002-.008 0-.015.002-.022.002-.17.004-.332.038-.484.095-.012.004-.023.006-.035.011-.176.07-.335.174-.471.302-.006.006-.014.008-.021.014-.002.003-.003.006-.006.009-.005.005-.01.011-.016.016-.002.002-.005.003-.007.005l-4.334 4.458c-.577.596-.564 1.545.03 2.121.291.285.668.426 1.045.426.392 0 .782-.152 1.076-.455l1.758-1.809-.001 13.846c0 .828.671 1.5 1.5 1.5.828 0 1.5-.672 1.5-1.5l.002-13.846 1.758 1.809c.294.303.685.455 1.075.455.377 0 .754-.143 1.046-.426.598-.578.609-1.527.032-2.121z"/></g></g></svg>