<svg xmlns="http://www.w3.org/2000/svg" viewBox="0 0 100 100" fill="#6a5fff" xmlns:v="https://vecta.io/nano"><path d="M80.7 52.5v8.3h0c-1.7 0-3.1 1.4-3.1 3.2v18.5c-.1 5-4.1 9-9.1 9H54.8V74.6c0-1.3-.5-2.5-1.4-3.3l-.3-.3c-.8-.7-1.9-1.1-3.1-1.1s-2.2.4-3.1 1.1c-.5.4-.9.9-1.2 1.4-.3.7-.5 1.4-.5 2.2v16.9H31.4c-5 0-9.1-4.2-9-9.2v-18c0-.8-.3-1.6-.8-2.3-.6-.8-1.5-1.1-2.4-1.1h0v-8.1h0l30-30.1c.2-.3.5-.6.6-.9l.4.1c.2.3.4.6.7.9l29.8 29.7zm6.5-2.5c0 1.1-.6 2-1.5 2.5s-2 .3-2.8-.4l-.7-.7-3.2-3.2-2.3-2.3L50.8 20c-.2-.3-.4-.5-.6-.8l-.4-.1c-.2.3-.3.6-.6.8l-26 26-2.5 2.5-3.1 3.1c-.7.8-1.7 1.3-2.8 1.1-1.4-.3-2.3-1.7-2-3.2.1-.5.3-.9.6-1.2l.5-.5 6.8-6.8 22.4-22.5 4.5-4.5c1.7-1.7 3-1.7 4.6 0l4.5 4.5 22.1 22.1 7.1 7.1c.8.7 1.3 1.5 1.3 2.4z"/></svg>