<svg id="Layer_1" data-name="Layer 1" xmlns="http://www.w3.org/2000/svg" viewBox="0 0 100 100"><path d="M50,87.22H34A13.27,13.27,0,0,1,20.77,74q0-8,0-15.93a2.62,2.62,0,0,1,1.73-2.58,2.4,2.4,0,0,1,2.85.73,3.87,3.87,0,0,1,.69,2c.06,5.2,0,10.4,0,15.61a7.92,7.92,0,0,0,8.05,8H65.85a7.92,7.92,0,0,0,8.06-8q0-7.87,0-15.77a2.65,2.65,0,0,1,5.21-.78,4.1,4.1,0,0,1,.09,1c0,5.28,0,10.57,0,15.85a13.25,13.25,0,0,1-13,13c-2.71,0-5.42,0-8.13,0H50Z"/><path d="M49.82,19.13a5.38,5.38,0,0,1-.56.82Q33.48,35.76,17.7,51.55a2.91,2.91,0,0,1-2.8,1.07,2.66,2.66,0,0,1-1.43-4.37c.17-.19.35-.36.53-.54L47.69,14c1.65-1.66,3-1.66,4.62,0Q69.19,30.89,86.06,47.76A3.05,3.05,0,0,1,87.2,50a2.58,2.58,0,0,1-1.54,2.45,2.53,2.53,0,0,1-2.8-.36,9.42,9.42,0,0,1-.72-.69Q66.44,35.67,50.75,20a5.88,5.88,0,0,1-.57-.81Z"/></svg>