<svg id="Icon" viewBox="0 0 24 24" xmlns="http://www.w3.org/2000/svg" xmlns:xlink="http://www.w3.org/1999/xlink"><linearGradient id="Gradient_2_color" gradientUnits="userSpaceOnUse" x1="4.013" x2="18.78" y1="19.487" y2="4.72"><stop offset="0" stop-color="#5433ff"/><stop offset="1" stop-color="#20bdff"/></linearGradient><path d="m8.53 5.47c.293.293.293.768 0 1.061l-3 3c-.146.146-.338.22-.53.22s-.384-.073-.53-.22l-2-2c-.293-.293-.293-.768 0-1.061s.768-.293 1.061 0l1.47 1.47 2.47-2.47c.293-.293.768-.293 1.061 0zm2.47 3.28h10c.414 0 .75-.336.75-.75s-.336-.75-.75-.75h-10c-.414 0-.75.336-.75.75s.336.75.75.75zm10 6.5h-10c-.414 0-.75.336-.75.75s.336.75.75.75h10c.414 0 .75-.336.75-.75s-.336-.75-.75-.75zm-13.25-.25v2c0 .965-.785 1.75-1.75 1.75h-2c-.965 0-1.75-.785-1.75-1.75v-2c0-.965.785-1.75 1.75-1.75h2c.965 0 1.75.785 1.75 1.75zm-1.5 0c0-.138-.112-.25-.25-.25h-2c-.138 0-.25.112-.25.25v2c0 .138.112.25.25.25h2c.138 0 .25-.112.25-.25z" fill="url(#Gradient_2_color)"/></svg>