<svg id="Layer_1" enable-background="new 0 0 33 33" height="33" viewBox="0 0 33 33" width="33" xmlns="http://www.w3.org/2000/svg"><g fill="#3c3c3b"><path d="m16.5 3.554c-8.823 0-16 5.699-16 12.705 0 1.947.548 3.822 1.63 5.577v5.238c0 1.751.992 2.372 1.841 2.372.57 0 1.15-.258 1.726-.769l2.03-1.801c2.619 1.368 5.636 2.088 8.772 2.088 8.823 0 16-5.699 16-12.706.001-7.005-7.176-12.704-15.999-12.704zm0 23.529c-3.05 0-5.965-.749-8.433-2.166l-.587-.337-3.032 2.69c-.172.152-.3.227-.38.263-.027-.088-.055-.237-.055-.458v-5.789l-.151-.233c-.981-1.514-1.479-3.126-1.479-4.793 0-5.968 6.333-10.823 14.118-10.823 7.784 0 14.118 4.855 14.118 10.823s-6.335 10.823-14.119 10.823z"/><path d="m7.973 12.965c-1.816 0-3.294 1.479-3.294 3.294 0 1.816 1.478 3.295 3.294 3.295s3.294-1.479 3.294-3.295-1.478-3.294-3.294-3.294zm0 4.706c-.779 0-1.412-.633-1.412-1.412 0-.778.633-1.411 1.412-1.411.778 0 1.412.633 1.412 1.411-.001.779-.634 1.412-1.412 1.412z"/><path d="m16.5 12.965c-1.816 0-3.294 1.479-3.294 3.294 0 1.816 1.478 3.295 3.294 3.295s3.294-1.479 3.294-3.295-1.478-3.294-3.294-3.294zm0 4.706c-.778 0-1.411-.633-1.411-1.412 0-.778.633-1.411 1.411-1.411s1.411.633 1.411 1.411c0 .779-.633 1.412-1.411 1.412z"/><path d="m25.027 12.965c-1.815 0-3.294 1.479-3.294 3.294 0 1.816 1.479 3.295 3.294 3.295 1.816 0 3.294-1.479 3.294-3.295s-1.477-3.294-3.294-3.294zm0 4.706c-.778 0-1.411-.633-1.411-1.412 0-.778.633-1.411 1.411-1.411s1.412.633 1.412 1.411c0 .779-.633 1.412-1.412 1.412z"/></g></svg>