<svg xmlns="http://www.w3.org/2000/svg" viewBox="0 0 33 33" xmlns:v="https://vecta.io/nano"><path d="M16.5 2.8C7.7 2.8.5 8.5.5 15.5c0 2 .6 3.9 1.6 5.6v5.2c0 1.8 1 2.4 1.8 2.4.7 0 1.3-.3 1.7-.8l2-1.8c2.7 1.4 5.7 2.1 8.8 2.1 8.8 0 16-5.7 16-12.7S25.3 2.8 16.5 2.8zM8 18.8a3.33 3.33 0 0 1-3.3-3.3A3.33 3.33 0 0 1 8 12.2a3.33 3.33 0 0 1 3.3 3.3c0 1.9-1.5 3.3-3.3 3.3h0zm5.2-3.2a3.33 3.33 0 0 1 3.3-3.3 3.33 3.33 0 0 1 3.3 3.3 3.33 3.33 0 0 1-3.3 3.3h0c-1.8-.1-3.3-1.5-3.3-3.3zm11.9 3.2h0a3.33 3.33 0 0 1-3.3-3.3 3.33 3.33 0 0 1 3.3-3.3 3.33 3.33 0 0 1 3.3 3.3 3.33 3.33 0 0 1-3.3 3.3z" fill="#6a5fff"/></svg>