<svg xmlns="http://www.w3.org/2000/svg" viewBox="0 0 100 100" xmlns:v="https://vecta.io/nano"><path d="M81.1 68.9l-.8-9.7-.5-7-1.7-20.8c-.1-3.1-2.6-5.5-5.7-5.5h-6.9c.1-8.3-6.2-15.2-14.5-15.8-3.6-.3-7.2.8-10.1 3-4.1 3-6.5 7.7-6.4 12.8h-7c-1.3 0-2.5.4-3.5 1.2-.8.7-1.5 1.5-1.8 2.6a6.28 6.28 0 0 0-.3 1.9L21 41.9l-1.3 16.7-1.4 17c-.5 5.8 2.9 11.3 8.3 13.5 1 .4 2.1.6 3.2.9h40.4c.1-.1.3-.1.4-.2 6.5-.9 11.3-6.6 11.1-13.2l-.6-7.7zM44 16.6c3.3-2.4 7.8-2.6 11.3-.5 3.5 1.9 5.6 5.7 5.5 9.7H39.2c-.1-3.7 1.7-7.2 4.8-9.2zm24.5 68.7h-37c-.4 0-.8 0-1.2-.1-4.6-.6-7.9-4.8-7.3-9.4l1.4-17.2L25.9 40l.6-8.3c.1-.9.3-1.2 1.3-1.2h6.7v2.2l.1 3.6c0 1.3 1.1 2.3 2.4 2.3s2.3-1.1 2.3-2.4v-5.5-.1h21.5v5.6c-.1 1 .5 1.9 1.5 2.3.3.1.6.2.9.2 1.3 0 2.3-1.1 2.3-2.4v-5.6c.1 0 .2-.1.3-.1h6.5a1.1 1.1 0 0 1 1.2.8v.2l1.2 15.8 1.5 18.7.8 10.2v.5.5c-.1 4.2-3.4 7.6-7.5 8h-1z" fill="#55f"/><path d="M77 76.8v-.5L76.2 66l-1.5-18.7-1.2-15.8v-.2c-.1-.5-.6-.9-1.2-.8h-6.5c-.1 0-.2 0-.3.1v5.6c0 1.3-1 2.3-2.3 2.4-.3 0-.6 0-.9-.2-.9-.3-1.5-1.3-1.5-2.3v-5.6H39.3v.1 5.5c0 1.3-1 2.4-2.3 2.4s-2.4-1-2.4-2.3l-.1-3.6v-2.2h-6.7c-.9 0-1.2.3-1.3 1.2l-.6 8.4-1.5 18.7L23 75.9c-.6 4.6 2.7 8.8 7.3 9.4.4 0 .8.1 1.2.1h37 1c4.1-.4 7.4-3.8 7.5-8v-.6zm-16.2-24c-.2.2-.4.5-.6.7L48.9 64.8c-1.5 1.5-2.7 1.5-4.1 0l-5.2-5.2c-1-.8-1.1-2.3-.3-3.3s2.3-1.1 3.3-.3l.3.3 3.9 3.9 10-10c.2-.2.5-.5.8-.7.9-.7 2.2-.5 3 .3s.9 2.1.2 3z" fill="#6a5fff"/></svg>