<svg id="Layer_1" data-name="Layer 1" xmlns="http://www.w3.org/2000/svg" viewBox="0 0 100 100"><path d="M29.92,90.24c-1.07-.29-2.17-.51-3.2-.9A13.1,13.1,0,0,1,18.4,75.86c.52-5.67.91-11.36,1.37-17s.89-11.16,1.34-16.74c.28-3.47.58-6.95.82-10.43A5.69,5.69,0,0,1,27.87,26c2.21,0,4.42,0,6.71,0A15.46,15.46,0,0,1,41,13.23a14.94,14.94,0,0,1,10.12-3A15.62,15.62,0,0,1,65.6,26h2.15c1.54,0,3.08,0,4.61,0a5.7,5.7,0,0,1,5.86,5.56c.53,6.93,1.11,13.86,1.66,20.79q.66,8.36,1.31,16.73c.2,2.6.51,5.19.58,7.79A12.94,12.94,0,0,1,70.66,90.09a3.52,3.52,0,0,0-.42.15ZM34.61,30.7H27.89c-.92,0-1.19.27-1.27,1.2L26,40.23l-1.5,18.69c-.46,5.73-.87,11.47-1.38,17.2a8.39,8.39,0,0,0,8.47,9.43q18.53,0,37,0a8.29,8.29,0,0,0,8.49-9c-.21-3.43-.53-6.85-.8-10.28l-1.5-18.68q-.63-7.91-1.25-15.81a1,1,0,0,0-1.17-1.05H65.87a1.85,1.85,0,0,0-.32.08v.87c0,1.59,0,3.18,0,4.77a2.32,2.32,0,0,1-3.2,2.21,2.28,2.28,0,0,1-1.48-2.27v-5.6H39.36a.48.48,0,0,0,0,.12c0,1.83,0,3.65,0,5.47a2.34,2.34,0,1,1-4.68.08C34.58,34.56,34.61,32.68,34.61,30.7ZM60.81,26a10.51,10.51,0,0,0-5.47-9.66,10.28,10.28,0,0,0-11.29.48A10.55,10.55,0,0,0,39.29,26Z"/><path d="M46.85,60.43l10-10a5.43,5.43,0,0,1,.76-.68,2.31,2.31,0,0,1,3,.28,2.29,2.29,0,0,1,.21,3,7,7,0,0,1-.63.7L48.92,65c-1.46,1.46-2.66,1.47-4.1,0q-2.59-2.6-5.18-5.2a2.35,2.35,0,0,1,1.1-4.06,2.35,2.35,0,0,1,2.25.79Z"/></svg>