<svg xmlns="http://www.w3.org/2000/svg" viewBox="0 0 24 24" xmlns:v="https://vecta.io/nano"><g fill="#6a5fff"><circle cx="12" cy="6.5" r="4.2"/><path d="M19.4 17.5c0 2-1.6 3.6-3.5 3.6H8.1c-2 0-3.5-1.6-3.5-3.5S6.2 14 8.1 14h7.7c2 0 3.6 1.5 3.6 3.5z"/></g><path d="M4.2 17.5h1.5c0-1.8 1.5-3.2 3.2-3.2v-1.5c-2.5-.1-4.6 2.1-4.7 4.7h0zM15 12.8v1.5c1.8 0 3.2 1.4 3.2 3.2h1.5c0-2.6-2.1-4.8-4.7-4.7zm3.2 4.7c0 1.8-1.5 3.3-3.2 3.3v1.5c2.6 0 4.8-2.1 4.8-4.8h-1.6zm-12.4 0H4.2c0 2.6 2.1 4.8 4.7 4.8v-1.5c-1.7 0-3.2-1.5-3.1-3.3-.1 0-.1 0 0 0zM9 20.8v1.5h6v-1.5H9zm0-8v1.5h6v-1.5H9zm3-11v1.5c1.8 0 3.2 1.4 3.2 3.2h1.5c0-2.6-2.1-4.8-4.7-4.7zM7.2 6.5h1.5c0-1.8 1.5-3.2 3.2-3.2V1.8c-2.5-.1-4.6 2.1-4.7 4.7h0zm1.6 0H7.2c0 2.6 2.1 4.8 4.7 4.8V9.8c-1.7 0-3.2-1.5-3.1-3.3-.1 0-.1 0 0 0zm6.4 0c0 1.8-1.5 3.3-3.2 3.3v1.5c2.6 0 4.8-2.1 4.8-4.8h-1.6z" fill="#5252ff"/></svg>