<svg width="20" height="21" viewBox="0 0 20 21" fill="none" xmlns="http://www.w3.org/2000/svg">
<path d="M1.01483 15.7491C0.56636 14.9631 0.229748 14.1429 0 13.3071C1.00896 12.7862 1.69986 11.7247 1.69986 10.5C1.69986 9.27621 1.00999 8.21536 0.00228242 7.69403C0.465763 6.00287 1.34591 4.42788 2.59733 3.14052C3.54766 3.76427 4.80166 3.839 5.84993 3.2266C6.89821 2.61419 7.46125 1.47796 7.40256 0.333323C9.13013 -0.119613 10.9182 -0.103404 12.5973 0.336031C12.5396 1.47975 13.1026 2.61467 14.1501 3.2266C15.1984 3.83898 16.4523 3.76427 17.4026 3.14058C18.003 3.75976 18.5367 4.46487 18.9852 5.25088C19.4336 6.03687 19.7703 6.85715 20 7.69284C18.991 8.21375 18.3001 9.27526 18.3001 10.5C18.3001 11.7239 18.99 12.7846 19.9977 13.306C19.5343 14.9971 18.6541 16.5721 17.4027 17.8595C16.4523 17.2358 15.1984 17.161 14.1501 17.7734C13.1017 18.3857 12.5388 19.5221 12.5974 20.6667C10.8699 21.1196 9.08189 21.1034 7.40269 20.664C7.46036 19.5202 6.89738 18.3853 5.84993 17.7734C4.80169 17.161 3.54775 17.2357 2.59744 17.8594C1.99706 17.2402 1.46331 16.5351 1.01483 15.7491ZM6.88745 15.9551C8.01978 16.6166 8.83298 17.6624 9.22247 18.8626C9.73946 18.9123 10.2599 18.9131 10.777 18.8643C11.1663 17.6635 11.9797 16.6169 13.1125 15.9551C14.2454 15.2932 15.5479 15.1038 16.7703 15.363C17.0706 14.9342 17.3302 14.4778 17.5461 13.9999C16.7137 13.0585 16.2251 11.823 16.2251 10.5C16.2251 9.177 16.7137 7.94157 17.5461 7.00019C17.4381 6.76293 17.3187 6.52957 17.1881 6.3007C17.0575 6.07182 16.9174 5.85061 16.7683 5.63743C15.5466 5.89605 14.2449 5.70643 13.1125 5.04494C11.9802 4.38345 11.1671 3.33754 10.7775 2.13746C10.2606 2.08768 9.74009 2.08697 9.22309 2.13574C8.83371 3.33652 8.0203 4.38312 6.88745 5.04494C5.75456 5.70677 4.45212 5.89624 3.22974 5.63702C2.92945 6.06575 2.66985 6.52217 2.45397 7.00005C3.28632 7.94147 3.7749 9.177 3.7749 10.5C3.7749 11.823 3.28634 13.0584 2.45397 13.9998C2.56199 14.237 2.68127 14.4704 2.81187 14.6993C2.94246 14.9281 3.08254 15.1493 3.23165 15.3626C4.45348 15.104 5.75517 15.2936 6.88745 15.9551ZM9.99998 13.6495C8.28102 13.6495 6.88745 12.2394 6.88745 10.5C6.88745 8.76064 8.28102 7.35053 9.99998 7.35053C11.719 7.35053 13.1125 8.76064 13.1125 10.5C13.1125 12.2394 11.719 13.6495 9.99998 13.6495ZM9.99998 11.5498C10.573 11.5498 11.0375 11.0798 11.0375 10.5C11.0375 9.92017 10.573 9.45016 9.99998 9.45016C9.42696 9.45016 8.96247 9.92017 8.96247 10.5C8.96247 11.0798 9.42696 11.5498 9.99998 11.5498Z" fill="white"/>
</svg>
