<svg xmlns="http://www.w3.org/2000/svg" viewBox="0 0 2025 2000" xmlns:v="https://vecta.io/nano"><style><![CDATA[.W{opacity:.63}.X{fill:#f6a892}]]></style><g opacity=".38"><path d="M1432.1 564.3l-3.3-1.5.2-.5 3.3 1.5-.2.5zm10 1029.9l-7.2.1v.6l7.2-.1v-.6h0zm-21.5 0v.6l7.2.1v-.6l-7.2-.1h0zm36-.4l-7.2.2v.5.1l2.3-.1h.1l4.8-.2v-.5zm-50.4 0v.6l2.5.1h.1l4.6.2v-.6l-7.2-.3h0zm64.7-.7l-7.2.4v.6l7.2-.4v-.6zm-79 0v.6l7.2.4v-.6l-7.2-.4h0zm-14.3-1v.6l7.2.5v-.6l-7.2-.5h0zm107.7-.2l-7.2.6v.6l7.2-.6v-.6zm-122-1.1l-.1.6 7.2.7v-.6l-7.2-.7h.1zm136.4-.3l-7.2.8.1.6 7.2-.8-.1-.6zm-150.7-1.2l-.1.6 7.2.8.1-.6-7.2-.8zm165-.7l-7.1 1 .1.6 7.1-1-.1-.6zm-179.2-1l-.1.6 7.1.9.1-.6-7.3-.9h.2zm193.5-.9h0l-.1-.3-7.1 1.2.1.6 6.4-1.1.7-.1v-.3zm-207.8-1.2l-.1.6 7.1 1 .1-.6-7.2-1h.1zm221.9-1.8l-7.1 1.4.1.6 7.1-1.4-.1-.6zm-236-.4l-.1.6 7.1 1.2.1-.6-7.1-1.2zm250-2.7l-7 1.6.1.6 7-1.6-.1-.6zm-264.2.2l-.1.6 7.1 1.3.1-.6-7.3-1.2.2-.1zm-14.1-2.7l-.1.6 7.1 1.4.1-.6-7.2-1.4h.1zm292.3-1l-7 1.8.2.6 7-1.8-.2-.6zm-306.4-1.9l-.1.6 7 1.5.1-.6-7.2-1.5h.2zm320.2-2.1l-6.9 2.1.2.6 6.9-2.1-.2-.6zm-334.2-1l-.1.6 7 1.6.1-.6-7.2-1.6h.2zm347.9-3.5l-6.8 2.3.2.6 6.8-2.3-.2-.6zm-361.9.2l-.1.6 7 1.7.1-.6-7.2-1.7h.2zm-14-3.6l-.2.6 7 1.8.2-.6-7.2-1.8h.2zm389.4-1.6l-6.7 2.5.2.6 6.8-2.5-.3-.6zm-403.4-2.1l-.2.6 6.9 1.9.2-.6-6.9-1.9h0zm-905.2-5.9l-.5.4 4.3 5.8.5-.3-4.3-5.9zm1321.8 2.6l-6.6 2.8.2.6 6.7-2.8-.3-.6zm-430.4-.6l-.2.6 6.9 2 .2-.6-6.9-2zm-13.8-4.2l-.2.6 6.9 2.1.2-.6-6.9-2.1zm457.3-1.1l-6.5 3 .2.6 6.6-3-.3-.6zm-471-3.2l-.2.6 6.8 2.2.2-.6-6.8-2.2h0zm-872.4-5.1l-.5.4 4.3 5.8.5-.3-4.3-5.9zm1356.3 1.8l-6.4 3.3.3.5 6.4-3.3-.3-.5zm-497.6-1.3l-.2.6 6.8 2.3.2-.6-6.8-2.3h0zm510.1-5.6l-6.2 3.5.3.5 6.3-3.6-.4-.4zm-523.7.8l-.2.6 6.8 2.4.2-.6-6.8-2.4h0zm-853.7-7.3l-.5.3 4.3 5.8.5-.3-4.3-5.8zm840.2 2.3l-.2.6 6.7 2.6.2-.6-6.7-2.6h0zm549.4-3.3l-6.1 3.8.3.5 6.1-3.8-.3-.5zm-552.2-6.1v-3h-.6v3 4.2h.6v-4.2h0zm564.2-1.8l-5.9 4 .3.5 5.9-4-.3-.5zm-1410.1-2.7l-.5.3 4.3 5.9.5-.3-4.3-5.9zM1699 1515l-5.8 4.3.3.5 5.8-4.3-.3-.5zm-1430.2-5.8l-.5.4 4.2 5.8.5-.3-4.2-5.9zm854.1-1.3l-.1 7.2h.6l.1-7.2h-.6zm587.3-1.8l-5.6 4.5.4.5 5.6-4.5-.4-.5zm-1449.9-8.6l-.5.3 4.2 5.8.5-.3-4.2-5.8zm1460.8-.8l-5.4 4.8.4.5 5.4-4.8-.4-.5zm-598-3.2l-.1 7.2h.6l.1-7.2h-.6zm608.5-6.6l-5.2 5 .4.4 5.2-5-.4-.4zm-1479.7-1l-.5.3 4.2 5.8.5-.4-4.2-5.7zm871.4-6.7l-.1 7.2h.6l.1-7.2h-.6zm618.3-2.6l-5 5.2.4.4 5-5.2-.4-.4zm-1498.1-2.4l-.5.3 4.2 5.8.5-.3-4.2-5.8zm879.9-9.4l-.1 7.2h.6v-7.2h-.5zm627.8 1.2l-4.8 5.4.4.4 4.8-5.4-.4-.4zm-1516.1-3.5l-.5.3 4.2 5.9.5-.3-4.2-5.9h0zm1525.3-7.6l-4.5 5.6.5.4 4.5-5.6-.5-.4zm-636.9-4.5v7.2h.6v-7.2h-.6zm-896.7.3l-.5.3 4.2 5.9.5-.3-4.2-5.9h0zm1542.3-7.2l-4.3 5.7.5.4 4.3-5.8-.5-.3zm-1550.6-4.6l-.5.3 4.1 5.9.5-.3-4.1-5.9h0zm905.5-2.9h-.6v7.2h.6v-7.2zm653.4-4.2l-4.1 5.9.5.3 4.1-5.9-.5-.3zm-1567-4.8l-.5.3 4.1 6 .5-.3-4.1-6h0zm913.5-5.2v-.2h-.6v2.5h0v4.7h.6v-7h0zm661.3-2l-3.9 6 .5.3 3.9-6.1-.5-.2zm-1582.9-4.7l-.5.3 4 6 .5-.3-4-6h0zm921.4-7.9h-.6l.1 7.2h.6l-.1-7.2h0zm669 .3l-3.7 6.2.5.3 3.7-6.2-.5-.3zm-1598-4.7l-.5.3 3.7 6.2.5-.3-3.7-6.2h0zm1604.9-7.9l-3.4 6.3.5.3 3.4-6.3-.5-.3zm-676.3-2.1h-.6l.2 7.2h.6l-.2-7.2h0zm-933.7-3.3l-.6.2 2.2 6.9.6-.2-2.2-6.9h0zm1616.6-7.4l-3.2 6.4.5.3 3.2-6.4-.5-.3zm-683.3-3.6h-.6l.2 7.2h.6l-.2-7.2h0zm-937.5-2.8l-.6.2 2.1 6.9.6-.2c-.8-2.2-1.5-4.5-2.1-6.9h0zm1627-6.5l-3 6.5.5.3 3-6.5-.5-.3zm-690-5.1h-.6l.3 7.2h.6l-.3-7.2h0zm-941-2.2l-.6.2 2 6.9.6-.2-2-6.9h0zM1818 1356l-2.8 6.6.5.2 2.8-6.6-.5-.2zm-696.4-6.3h-.6l.3 7.2h.6l-.3-7.2h0zm-944.2-1.6l-.6.2 1.9 6.9.6-.2-1.9-6.9h0zm1646-5.4l-2.6 6.7.6.2 2.6-6.7-.6-.2zm-702.6-7.4h-.6l.4 7.2h.6l-.4-7.2h0zm-947.1-1.1l-.6.2 1.8 7 .6-.2-1.8-7h0zm1654.6-5l-2.4 6.8.6.2 2.4-6.8-.6-.2zM1120 1321h-.6l.4 7.2h.6l-.4-7.2zm-949.9-.7l-.6.2 1.8 7 .6-.2-1.8-7h0zm1662.9-4.7l-2.3 6.8.6.2 2.3-6.8-.6-.2zm-714-9h-.6l.5 7.2h.6l-.5-7.2h0zm-952.3-.3l-.6.1 1.7 7 .6-.2-1.7-6.9h0zm1670.5-4.4l-2.1 6.9.6.2 2.1-6.9-.6-.2zm-719.3-9.6h-.6l.6 7.2h.6l-.6-7.2h0zm-954.5 0l-.6.1 1.6 7 .6-.1-1.6-7h0zm1677.7-4.3l-1.9 6.9.6.2 1.9-6.9-.6-.2zm-1680.8-9.8l-.6.1 1.5 7 .6-.1-1.5-7h0zm956.4-.3h-.6l.6 7.2h.6l-.6-7.2h0zm728-3.8l-1.8 7 .6.2 1.8-7-.6-.2zm-1687.3-10l-.6.1 1.4 7.1.6-.1-1.4-7.1h0zm957.9-.5l-.6.1.7 7.2h.6l-.7-7.3h0zm732.7-3.5l-1.6 7 .6.1 1.6-7-.6-.1zm-1693.4-10l-.6.1 1.4 7.1.6-.1-1.4-7.1zm959.2-.8l-.6.1.8 7.2.6-.1-.8-7.2zm737.2-3.2l-1.5 7 .6.1 1.5-7-.6-.1zM152 1236l-.6.1 1.3 7.1.6-.1-1.3-7.1zm961 5.4l-.5-4.3-.2-2-.6.1.2 2.1.3 2.7.2 1.7c0 .2 0 .4.1.7l.5-.1h.1l-.1-.9zm740.7-9.4l-1.3 7.1.6.1 1.3-7.1-.6-.1zm-1704.1-10.2l-.6.1 1.2 7.1.6-.1-1.2-7.1zm960.9-1l-.6.1.9 7.1.6-.1-.9-7.1h0zm745.6-2.9l-.3 1.8-.9 5.2.6.1.9-5.2.3-1.8-.6-.1zm-1708.8-10.3l-.6.1 1.1 7.1.6-.1-1.1-7.1zm961.4-1.1l-.6.1.9 7.1.6-.1-.9-7.1zm750.4-2.7l-1.6 7 .6.1 1.6-7-.6-.1zm-1713.9-10.4l-.6.1 1 7.1.6-.1-1-7.1zm961.5-1.1l-.6.1 1 7.1.6-.1-1-7.1zm756.2-2.4l-2 6.9.6.2 2-6.9-.6-.2zm-1719.6-10.8l-.6.1.9 7.1.6-.1-.9-7.1h0zm961.6 1.3l-.4-2.4-.6.1.4 2.4.7 4.7.6-.1-.7-4.7zm762.4-4.2l-2.2 6.8.6.2 2.2-6.8-.6-.2zm-1725.7-11.3l-.6.1.8 7.1.6-.1-.8-7.1zm960.9.2h0l-.2-1.2-.6.1.2 1.5.9 5.6.6-.1-.9-5.9h0zm769.6-2.5l-2.4 6.8.6.2 2.4-6.8-.6-.2zm-1732-12l-.6.1.7 7.2.6-.1-.7-7.2h0zm960.4 2.6l-.6-3.6-.6.1.6 3.7.6 3.4.6-.1-.6-3.5h0zm776.5-4.1l-.6 1.8-1.8 5 .6.2 1.8-5 .6-1.8-.6-.2zm-1738.2-12.8h-.6l.6 7.2.6-.1-.6-7.1zm958.5-.8l-.6.1 1.3 7.1.6-.1-1.3-7.1zm784.6.1l-2.4 6.8.6.2 2.4-6.8-.6-.2zm-1744.2-13.7h-.6l.5 7.2.6-.1-.5-7.1zm1748.9.1l-2.3 6.8.6.2 2.3-6.8-.6-.2zm-792-.6l-.6.1 1.4 7.1.6-.1-1.4-7.1h0zm796.3-13.1l-2 6.9.6.2 2.1-6.9-.7-.2zm-1754-.7h-.6l.4 7.2h.6l-.4-7.2h0zm954.8-.3l-.6.1 1.5 7 .6-.1-1.5-7h0zm802.7-12.9l-1.7 7 .6.2 1.7-7-.6-.2zm-1758.1-1.2h-.6l.3 7.2h.6l-.3-7.2h0zm952.3 0l-.6.1 1.6 7 .6-.1-1.6-7h0zm808.4-12.9l-1.2 7.1.6.1 1.2-7.1-.6-.1zm-811.7-1.1l-.6.1 1.6 7 .6-.1-1.6-7h0zm-949.5-.4h-.6l.2 7.2h.6l-.2-7.2h0zm1762.7-12.7l-.6 7.1.6.1.6-7.2h-.6zm-816.6-.8l-.6.2 1.7 7 .6-.1-1.7-7.1h0zm-946.3-.9h-.6l.1 7.2h.6l-.1-7.2h0zm1763.5-12.7h-.6l.2 7.1v.1h.6v-.1l-.2-7.1h0zm-820.7-.3l-.6.2 1.8 6.9.6-.1-1.8-7h0zm-943.3-1.4l-.1 7.2h.6l.1-7.2h-.6zm939.5-12.5l-.6.2 1.9 6.9.6-.2-1.9-6.9h0zm823.8 6.7l-.8-6.8-.6.1.8 6.8v.3l.6-.1v-.3zm-1762.9-8.6l-.2 7.2h.6l.2-7.2h-.6zm935.2-11.8l-.6.2 2 6.9.6-.2-2-6.9h0zm825.2-.7l-.6.1.8 7.1.6-.1-.8-7.1zm-1759.8-1.9l-.4 7.2h.6l.4-7.2h-.6zm930.4-11.2l-.6.2 2.1 6.9.6-.2-2.1-6.9zm827.6-1.1l-.6.1 1 7.1.6-.1-1-7.1zm-1757-2l-.5 7.2h.6l.5-7.2h-.6zm925.1-10.6l-.6.2 2.2 6.8.6-.2-2.2-6.8h0zm829.8-1.6l-.6.1 1.1 7.1.6-.1-1.1-7.1zm-1753.7-2.2l-.7 7.2h.6l.7-7.2h-.6zm919.3-9.9l-.6.2 2.3 6.8.6-.2-2.3-6.8zm831.7-2.1l-.6.1 1.4 7 .6-.1-1.4-7zm-1749.4-2.3l-.8 7.2.6.1.8-7.1-.6-.2zm912.9-9.2l-.6.2 2.4 6.8.6-.2-2.4-6.8zm833.1-2.5l-.6.2 1.8 7 .6-.1-1.8-7.1h0zM141.8 964l-1 7.1.6.1 1-7.1-.6-.1zm906-8.4l-.6.2 2.5 6.8.6-.2-2.5-6.8h0zm834-2.8l-.6.2 2.2 6.8.6-.2-2.2-6.8h0zm-1737.8-3l-1.2 7.1.6.1 1.2-7.1-.6-.1zm898.6-7.7l-.6.2 2.7 6.7.6-.2-2.7-6.7h0zm834.2-2.8l-.6.2 2.6 6.7.6-.2-2.6-6.7h0zm-1730.2-3.7l-1.3 7.1.6.1 1.3-7-.6-.2zm890.5-6.9l-.6.2 2.8 6.7.6-.2-2.8-6.7zm833.9-2.6l-.5.3 3 6.5.6-.2-3.1-6.6h0zm-1721.4-4.5l-1.5 7 .6.1 1.5-7-.6-.1zm881.8-6.1l-.6.2 2.9 6.6.6-.2-2.9-6.6zm833.1-2.2l-.5.3 3.3 6.4.5-.3-3.3-6.4zm-1711.6-5.7l-1.7 7 .6.1 1.7-7-.6-.1zm872.5-5.3l-.6.2 3 6.5.5-.2-2.9-6.5zm834 2l-2-3.5-.5.3 2.1 3.5 1.6 2.7.5-.3-1.7-2.7h0zM156.7 893.8l-1.9 6.9.6.2 1.9-6.9-.6-.2zm862.4-4.5l-.5.3 3.1 6.5.5-.3-3.1-6.5h0zm830.9-.8l-.5.3 3.7 6.1.5-.3-3.7-6.1h0zM160.9 880l-2.1 6.8.6.2 2.1-6.8-.6-.2zm851.8-3.5l-.5.3 3.3 6.4.5-.3-3.3-6.4h0zm829.7-.2l-.5.3 3.8 6.1.5-.3-3.8-6.1h0zm-1676.9-9.9l-2.4 6.8.6.2 2.4-6.8-.6-.2zm1669-2.1l-.5.3 4 6 .5-.3-4-6h0zm-828.6-.5l-.5.3 3.4 6.3.5-.3-3.4-6.3h0zM170.5 853l-2.6 6.7.6.2 2.6-6.7-.6-.2zm1655.8-.5l-.5.3 4.1 5.9.5-.3-4.1-5.9h0zm-827.5-1.3l-.5.3 3.6 6.3.5-.3-3.6-6.3h0zm819.2-10.4l-.5.3 4.2 5.8.5-.3-4.2-5.8zm-1642-1.1l-2.8 6.6.6.2 2.8-6.6-.6-.2zm815.4-1l-.5.3 3.7 6.2.5-.3-3.7-6.2h0zm818-9.5l-.5.4 4.3 5.7.5-.4-4.3-5.7h0zM182 826.7l-3.1 6.5.6.2 3.1-6.5-.6-.2zm801.8-.2l-.5.3 3.8 6.1.5-.3-3.8-6.1h0zm816.7-8.6l-.5.4 4.4 5.7.5-.4-4.4-5.7h0zm-824.6-3.4l-.5.3 4 6 .5-.3-4-6h0zm-787.4-.7l-3.3 6.4.5.3 3.3-6.4-.5-.3zm1603-7.1l-.5.4 4.6 5.6.5-.4-4.6-5.6h0zm-823.9-4l-.5.3 4.2 5.9.5-.3-4.2-5.9h0zm-772.1-1.5l-3.6 6.3.5.3 3.5-6.2-.4-.4zm1586.8-5.4l-.4.4 4.7 5.5.4-.4-4.7-5.5h0zm-823.2-4.7l-.5.4 4.3 5.8.5-.4-4.3-5.8zM203 788.9l-3.8 6.1.5.3 3.8-6.1-.5-.3zm1569.8-4l-.4.4 4.8 5.4.4-.4-4.8-5.4h0zm-822.5-5.2l-.5.4 4.5 5.6.5-.4-4.5-5.6h0zM211 776.9l-4.1 6 .5.3 4.1-6-.5-.3zm1552.1-2.6l-.4.4 4.9 5.3.4-.4-4.9-5.3h0zm-822-5.6l-.5.4 4.6 5.5.5-.4-4.6-5.5zm-721.7-3.4l-4.3 5.8.5.3 4.3-5.8-.5-.3zm1533.8-1.4l-.4.4 5 5.2.4-.4-5-5.2h0zm-818-2l-3.6-4-.4.4 3.8 4.3 1 1.1.5-.4-1.3-1.4h0zM228.4 754l-4.5 5.6.5.4 4.5-5.6-.5-.4zm1514.7-.3l-.4.4 5.1 5.1.4-.4-5.1-5.1h0zm-821.2-6.3l-.4.4 4.9 5.2.4-.4-4.9-5.2h0zm810.8-3.7l-.4.4 5.2 5 .4-.4-5.2-5h0zm-1494.9-.6l-4.8 5.4.4.4 4.8-5.4-.4-.4zm674-5.9l-.4.4 5.1 5.1.4-.4-5.1-5.1h0zm810.5-3.3l-.4.4 5.3 4.9.4-.4-5.3-4.9h0zm-1474.6-1.2l-5 5.2.4.4 5-5.2-.4-.4zm655-4.2l-1.3-1.2-.4.4 3.1 2.9h0l2.1 2 .4-.4-3.9-3.7h0zm808.8-4.2l-.4.5 5.4 4.8.4-.5-5.4-4.8h0zM258 722.6l-5.2 5 .4.4 5.2-5-.4-.4zm632.6-4.8l-.4.5 5.4 4.7.4-.4-5.4-4.8h0zm810-2.9l-.4.5 5.5 4.7.4-.5-5.5-4.7h0zm-1431.9-1.8l-5.4 4.7.4.5 5.4-4.7-.4-.5zm610.8-4.5l-.4.5 5.6 4.5.4-.5-5.6-4.5zm810-2.8l-.4.5 5.6 4.5.4-.5-5.6-4.5h0zM279.8 704l-5.6 4.5.4.5 5.6-4.5-.4-.5zm588.3-4.2l-.4.5 5.7 4.3.4-.5-5.7-4.3h0zm810.2-3l-.4.5 5.7 4.4.4-.5-5.7-4.4zm-1387-1.4l-5.8 4.2.4.5 5.8-4.2-.4-.5zm565.2-4l-.3.5 5.9 4.2.3-.5-5.9-4.2h0zm810.3-3.3l-.4.5 5.7 4.3.4-.5-5.7-4.3h0zm-1363.6-.9l-6 4 .3.5 6-4-.3-.5zm541.3-3.8l-.3.5 6 3.9.3-.5-6-3.9zm810.7-3.8l-.3.5 5.8 4.2.3-.5-5.8-4.2h0zm-1339.8 0l-6.1 3.8.3.5 6.1-3.8-.3-.5zm517-3.8l-.3.5 6.1 3.7.3-.5-6.1-3.7h0zm-504.6-3.4l-6.3 3.5.3.5 6.3-3.5-.3-.5zm1315.6-1l-.3.5 5.9 4.1.3-.5-5.9-4.1h0zm-823.6-2.7l-.3.5 6.3 3.5.3-.5-6.3-3.5h0zm-479.2-2.9l-6.4 3.3.3.5 6.4-3.3-.3-.5zm1290.9-2.4l-.3.5 6 4 .3-.5-6-4h0zM807.1 662l-.3.5 6.4 3.3.3-.5-6.4-3.3h0zm-453.6-2.5l-6.5 3 .3.5 6.5-3-.3-.5zm1265.9-4l-.3.5 6.1 3.9.3-.5-6.1-3.9h0zm-825.2.1l-.2.5 6.5 3.1.3-.5-6.6-3.1h0zm-427.5-1.8l-6.6 2.8.2.5 6.6-2.8-.2-.5zm414.4-4l-.2.5 6.6 2.8.2-.5-6.6-2.8zm826.1-1.8l-.3.5 6.1 3.7.3-.5-6.1-3.7zm-1227.1.5l-6.7 2.6.2.6 6.7-2.6-.2-.6zm387.6-4l-.2.6 6.7 2.6.2-.6-6.7-2.6h0zm-374.1-.9l-6.8 2.4.2.6 6.8-2.4-.2-.6zm1201.2-2.9l-.3.5 6.2 3.6.3-.5-6.2-3.6h0zm-840.6-1.1l-.2.6 6.8 2.4.2-.6-6.8-2.4h0zm-347-.4l-6.9 2.2.2.6 6.8-2.2-.1-.6zm333.3-4.1l-.2.6 6.8 2.2.2-.6-6.8-2.2h0zm-319.5.1l-6.9 2 .2.6 6.9-2-.2-.6zm1161.2-1.6l-.3.5 6.3 3.5.3-.5-6.3-3.5h0zM435 631.5l-7 1.8.1.6 7-1.8-.1-.6zm291.8-.5l-.2.6 6.9 2 .2-.6-6.9-2zm842.7-4.2l-.3.5 6.3 3.4.3-.5-6.3-3.4h0zM449 628.2l-7 1.6.1.6 7-1.6-.1-.6zm263.9-.7l-.1.6 7 1.7.2-.6-7.1-1.7h0zm-249.8-2.1l-7 1.4.1.6 7-1.4-.1-.6zm240.9 0l-5.2-1.1-.1.6 3.6.8h0l3.4.7.1-.6-1.8-.4zm-226.8-2.6l-7.1 1.2.1.6 7.1-1.2-.1-.6zm1079.6-2.6l-.3.5 6.4 3.2.3-.5-6.4-3.2h0zm-872 1.3l-.1.6 7.1 1.3.1-.6-7.1-1.3h0zm-193.3-1l-7.1 1.1.1.6 7.1-1.1-.1-.6zm179.1-1.3l-.1.6 7.1 1.1.1-.6-7.1-1.1h0zm-164.9-.5l-7.1.9.1.6 7.1-.9-.1-.6zm150.6-1.4l-.1.6 7.1.9.1-.6-7.1-.9h0zm-136.3-.1l-7.2.8.1.6 7.1-.8v-.6zm1023.8-3.3l-.3.5 6.5 3.1.3-.5-6.5-3.1h0zm-901.8 2v.6l7.1.7.1-.6-7.2-.7h0zm-107.7 0l-7.2.6.1.6 7.2-.6-.1-.6zm14.4-1l-7.2.5v.6l7.2-.5v-.6zm79-.1v.6l7.2.5v-.6l-7.2-.5h0zm-64.7-.7l-6.1.3-1.1.1v.6l1.1-.1 6.1-.3v-.6zm50.3-.1v.6l7.2.3v-.6l-7.2-.3h0zm-35.9-.3l-7.2.2v.6l7.2-.2v-.6zm21.6 0v.6l7.2.2v-.6l-7.2-.2h0zm-14.4-.1v.6h7.2v-.6c-2.4 0-4.9-.1-7.2 0h0zm946.2-5.7l-.2.5 6.5 3 .2-.5-6.5-3h0zm-13.2-5.9l-.2.5 6.6 2.9.2-.5-6.6-2.9zm-13.1-5.9l-.2.5 6.6 2.9.2-.5-6.6-2.9zm-13.1-5.9l-.2.5 6.6 2.9.2-.5-6.6-2.9zm-13.1-5.9l-.2.5 6.6 2.9.2-.5-6.6-2.9zm-13.1-5.9l-.2.5 6.6 2.9.2-.5-6.6-2.9zm-13.2-5.9l-.2.5 6.6 2.9.2-.5-6.6-2.9zm-13.1-5.8l-.2.5 6.6 2.9.2-.5-6.6-2.9zM312.3 1569.5l-2.1-2.9.5-.3 2.1 2.9-.5.3z"/></g><path d="M475.4 1592.1c-182.3-103.7-291.5-260.8-298.5-436.3-19.2-483.3 369.5-519.7 820.2-565.4 194.9-19.8 394.2 146.5 539.3 236 167.8 103.5 280.9 161.9 280.9 329.4 0 177.1-118.2 335.2-303.1 438.9l-1038.8-2.6z" fill="#f3f8fc"/><path d="M537.5 1077.5s-36.5 302.2 154.6 310.6c13.2.6 26.3-2.4 39.4-1.7 33.8 1.9 46.3-4.3 98.9 9.5 34.9 24.2 35.3 346.5 21.9 352.8l-374.2-1.6c-11.1 0-20.5-8.2-21.9-19.2-13.5-105.9-89.1-716.6 22.8-710.1 64.1-9.8 58.5 59.7 58.5 59.7z" fill="#6c2197"/><path d="M831.2 1748.7l-383.1.8c-11.1 0-20.5-8.2-21.9-19.2-13.5-105.9-89.1-716.6 22.8-710.1 64.1-9.7 58.4 59.8 58.4 59.8s-63.6 339.2 126.6 318.7c37.7-4.1 43.7 7.4 56.8 8.1 31.1 1.8 39.6 18.1 43.5 54.5l96.9 287.4z" fill="#a15bc5"/><path d="M492.7 1080.2a3.37 3.37 0 0 1-3.4-3.4c0-13.4-5.2-23.9-15.5-31.3-4.7-3.4-10-5.8-15.6-7.2-1.8-.4-3-2.2-2.7-4 .4-1.8 2.2-3 4-2.7h0c.4.1 36.6 7.8 36.6 45.2a3.37 3.37 0 0 1-3.4 3.4h0z" fill="#fff"/><path d="M750.7 917.6c-3.1 14-8.5 31.9-3.9 32.8l78.1 9.3c5.2 1 34.3-87.2 34.3-87.2 1-5.3-85.9-32-85.9-32-2.9-.5-22.1 74.8-22.6 77.1h0z" class="X"/><path d="M828.3 795.9l5 1c22.2 4.3 36.7 25.8 32.4 48l-5.9 30.2c-4.3 22.2-25.8 36.7-48 32.4l-5-1c-22.2-4.3-36.7-25.8-32.4-48l5.9-30.2c4.2-22.2 25.7-36.7 48-32.4z" fill="#f68d77"/><path d="M903.3 807.6c-20.5 50.7-16.4 113.8-98.7 89.6-45.3-13.3-58.4-60-47.8-114s35.6-99 81.9-89.8 95.7 37.1 64.6 114.2h0z" class="X"/><path d="M780 802.1l37-52.3c.8-1-.5-1 .2 0 8.1 11.3 67.6 41.2 114.2 21 24.4-46.5-33.9-64.4-37.6-68.5l-.3-.3c-4.4-2.9-83.8-54.6-102.9-15.1a2.36 2.36 0 0 1-.8.9c-5.2 3.1-30-7.2-36.9 42.8-.3 2 2.7 54.3 4 53 10.3-10.2 8.2-29.4 15.3-22.6 5.5 5.2 10.2 6.7 5 22.5-.8 2-.2 18.8 2.8 18.6h0z" fill="#0d0f10"/><path d="M885.6 830.8c-.8 4-4.3 6.7-7.8 6s-5.7-4.5-4.9-8.5 4.3-6.7 7.8-6 5.7 4.5 4.9 8.5zm-50.1-6.5c-.8 4.3-4.6 7.2-8.3 6.4s-6.1-4.8-5.3-9.1 4.6-7.2 8.3-6.4 6.1 4.8 5.3 9.1z" fill="#0d0e12"/><ellipse transform="matrix(.1932 -.9812 .9812 .1932 -146.2595 1378.059)" cx="764.8" cy="778" rx="21.5" ry="14.5" class="X"/><g opacity=".41"><path d="M853.6 829.5l-.1 7.8-.5 7.7-.6 7.8-.4 3.9-.4 3.9v.1c0 .2-.1.3-.3.4-.8.4-1.8.7-2.7.6a6.22 6.22 0 0 1-2.6-.9 5.51 5.51 0 0 1-1.7-2l-.5-1.2-.4-1.2.6 1.1.7 1c.5.6 1.1 1.2 1.8 1.6.6.4 1.4.6 2.1.5.7 0 1.4-.3 2-.6l-.3.5.2-3.9.3-3.9.7-7.8.9-7.7 1.2-7.7h0z"/></g><path d="M893.4 818.7c-.5 0-.9-.2-1.2-.6-5.2-6.1-20-3-20.1-2.9-.9.2-1.7-.4-1.9-1.2s.4-1.7 1.2-1.9h0c.7-.2 16.9-3.6 23.3 4 .6.7.5 1.7-.2 2.3-.3.1-.7.3-1.1.3zm-52.8-7.2c-.5 0-.9-.2-1.2-.6-5.2-6.1-20-3-20.1-2.9-.9.2-1.7-.4-1.9-1.2s.4-1.7 1.2-1.9c.7-.2 16.9-3.6 23.3 4 .6.7.5 1.7-.2 2.3-.4.2-.7.4-1.1.3z"/><path d="M823.7 873.6s12.7 6 22.4 5.3l2.7-.4c9.8-2.1-23.6 20.3-25.1-4.9z" fill="#fff"/><path d="M1021 1577.2l28.3 5.1c6.5 1.2 10.9 7.4 9.7 13.9l-13.3 74.7c-1.2 6.5-7.4 10.9-13.9 9.7l-28.3-5.1c-6.5-1.2-10.9-7.4-9.7-13.9l13.3-74.7c1.1-6.5 7.4-10.9 13.9-9.7z" class="X"/><path d="M1050.3 1657.6l64.8 74.2s37.7 18.5 27.8 29.1c0 0-82.5-12.9-172.8-60 0 0 7.4-36.9 23.9-47.8 0 0 22 15.8 56.3 4.5h0z" fill="#feb61e"/><path d="M965.3 1710.9s153.5 83.4 178.9 49.5c0 0-35.7 1-174-59.6l-4.9 10.1z" fill="#1e2328"/><g class="W"><path d="M1107.4 1726.2l-2.1.5-2.1.3-4.2.4-8.3.6-8.3.7-4.1.6c-1.4.2-2.7.7-3.8 1.5a4.28 4.28 0 0 1 1.6-1.4l2-.9c1.3-.5 2.7-.8 4.1-1.1 2.8-.5 5.6-.8 8.4-1l8.4-.2 4.2.1 2.1.1 2.1-.2h0z"/></g><g class="W"><path d="M1093.6 1713c-.6.3-1.3.5-2 .6l-2 .3-4.1.5-8.1.7-4.1.3-4 .4-4 .7c-1.3.2-2.6.8-3.6 1.6.4-.6.9-1.1 1.5-1.4.6-.4 1.2-.7 1.9-.9 1.3-.5 2.6-.9 4-1.2 2.7-.6 5.4-1 8.2-1.2l8.2-.3h6.1c.7.1 1.4 0 2-.1h0z"/></g><g class="W"><path d="M1082.3 1703.9l-16.8 1.6-8.3 1.1-4 1c-1.3.4-2.6.9-3.8 1.7 1-1.1 2.2-1.9 3.5-2.5s2.6-1.1 4-1.4c1.4-.4 2.8-.7 4.2-.9l4.2-.6c2.8-.3 5.7-.4 8.5-.4 2.9-.1 5.7 0 8.5.4h0z"/></g><g class="W"><path d="M1073 1693.3l-8.8.9-8.8.9-8.7 1.2-4.2 1c-1.4.4-2.8 1-4 1.8 1-1.1 2.3-2 3.7-2.5a35.23 35.23 0 0 1 4.2-1.5c2.9-.8 5.8-1.3 8.8-1.6l8.9-.6 8.9.4h0z"/></g><path d="M900,1626h28.8c6.6,0,12,5.4,12,12v75.9c0,6.6-5.4,12-12,12H900c-6.6,0-12-5.4-12-12V1638   C888,1631.4,893.4,1626,900,1626z" class="X"/><path d="M943.2 1692.6l73 75.5s32.5 11.4 27.6 26c0 0-69 8.9-169.6-24.4 0 0-2.4-52.8 12.2-71.5 0 .1 26.8 16.3 56.8-5.6h0z" fill="#feb61e"/><path d="M871.8 1785.2s161.5 54.4 172.9 8.1c0 0-26.8 11.4-170.4-23.6l-2.5 15.5z" fill="#1e2328"/><g class="W"><path d="M1005.7 1761.6c-.5.4-1 .8-1.6 1.1l-1.7.8-3.5 1.5-7 2.9-6.8 3.2-3.2 1.9c-1 .7-1.9 1.6-2.5 2.7.3-1.3 1-2.4 2-3.3.9-.9 2-1.7 3.1-2.4 2.2-1.4 4.5-2.6 6.8-3.6l7.2-2.6 3.7-1.1 1.8-.5c.6-.1 1.2-.3 1.7-.6h0z"/></g><g class="W"><path d="M992.7 1750.3c-.5.5-1 .9-1.6 1.2l-1.7.9-3.5 1.6-7 2.9-6.9 3.1-3.2 1.9c-1.1.7-1.9 1.6-2.5 2.7.3-1.3 1-2.4 2-3.3.9-.9 2-1.7 3.1-2.4 2.2-1.4 4.5-2.5 6.9-3.5l7.2-2.6 3.6-1.1 1.8-.6c.7-.3 1.3-.5 1.8-.8h0z"/></g><g class="W"><path d="M980.6 1740.5l-7.5 3-7.4 3.1-3.6 1.7-3.5 1.9c-2.3 1.3-4.4 3.1-5.9 5.2.5-1.3 1.2-2.5 2.1-3.5s2-2 3.1-2.8c2.2-1.6 4.6-3 7.1-4.1s5.1-2.1 7.7-2.8c2.5-.7 5.2-1.3 7.9-1.7z"/></g><g class="W"><path d="M972.5 1732.4l-8 3.2-7.8 3.3c-2.6 1.1-5.1 2.4-7.5 3.8-1.2.7-2.4 1.5-3.5 2.4s-2.1 1.9-2.9 3.1c.5-1.4 1.3-2.6 2.3-3.7s2.1-2 3.3-2.9c2.4-1.7 4.9-3.1 7.6-4.3 2.6-1.2 5.3-2.2 8.1-3l8.4-1.9h0z"/></g><path d="M703.8 1250l365.3 5.8c49.3.8 84.9 47.4 72.8 95.2l-69.6 274.3s-56 11.4-77.1-12.2c-17.2-19.3 22-173.8 36.8-229.5 1.6-5.8-1.9-11.8-7.7-13.3a11.4 11.4 0 0 0-5.8 0c-37.6 10.7-136.5 28.9-339 9.7 0-.1-77.9-88.6 24.3-130h0z" fill="#1e2e49"/><path d="M646.2 1250.8l246.9 40.1c36 5.9 62 37.5 60.8 74-3.1 93.1-7.3 259.3.6 295.2.8 4-1.6 7.9-5.5 8.9-17.4 4.7-58.4 12.5-72.3-12.1l-28.8-244.4c-1.1-9.2-9.4-15.7-18.6-14.7h-.3c-37.8 5.2-130.9 14.9-191.7-4.2-77.9-24.3-56-126.6 8.9-142.8h0z" fill="#2f3e67"/><path d="M989.9 1174.7s22.7 24 59.9 3.8c0 0 45.9-24.5 51.9-25.6 0 0 9.8 2.6 1.7 11.6 0 0-16.6 10.6-21.1 17.8 0 0-2.8 1.8 1.8 2.9 0 0 52.6-12.9 65.2-11.1 4.6.7 4.1 5.2 1.2 9 0 0-4.4 8.9-32.7 11.8 0 0 13.2 3.5 16.9 5.7s11 11.4-4 17.2c0 0 10.9 11.3-5.6 16.7l-14.2 2.9s7.6 11.7-4.8 14.4c0 0-41.7-.3-71-10.1 0 0-29.5-10.3-45.7-20.1l-20.9-6.6 21.4-40.3z" fill="#f68d77"/><path d="M825.8 930s41.9-20.9 83 32.1c0 0 18.6 9.7 46.5 106 0 0 10.1 71.1 31 93.8 1.9 2.1 3.7 4.2 5.3 6.5 2.7 3.9 9.8 10.8 27.1 16.3 0 0-23 26.7-31.5 41.6 0 0-22.1-4-38.8-11.2-8.2-3.5-15-9.5-19.4-17.2-20-34.7-97.7-169.2-113.2-186.7-.1.1-31.1-49.1 10-81.2z" fill="#4560bb"/><path d="M902.7 983.6c-2.3-39.2-25.8-62.6-50.2-76.3-5.6 15.3-26.6 26.8-51.7 26.8-29.4 0-53.2-15.6-53.2-34.9 0-1.5.2-3.1.5-4.6-39.7 10.6-71.9 31.4-71.9 31.4-81.2 48.7-65.7 204.7-65.7 204.7-73 147-54.4 179.5-54.4 179.5 17.9 54.4 77.9 88.5 77.9 88.5 41.4 13.8 90.1-136.4 90.1-136.4 10.4-13.7 19.4-11.2 25.1-6.7 5.6 4.5 12.8 6.3 19.9 5l54.5-10.1c9.7-1.8 18-8.3 21.9-17.4l47.4-106.5c14.6-23.6 9.8-143 9.8-143h0z" fill="#7ed6df"/><path d="M800.8 934c25.1 0 46.1-11.4 51.7-26.8l-1.7-.9c-9.9 13.2-27.1 22-46.8 22-25.3 0-46.6-14.6-53.4-34.5l-2.5.7c-.3 1.5-.5 3.1-.5 4.6.1 19.3 23.9 34.9 53.2 34.9h0z" fill="#001315"/><path d="M1076.1 1258.9l-46.6.6c-3.5-2.9-3.7-8.6-.3-12.8l94.6-111.5c3.4-4.2 10.9-4.3 15.7-5.2l49.7-4.4c3.5 2.9 3.7 8.6.3 12.8l-100.9 118.1c-3.3 4.2-9 5.3-12.5 2.4h0z" fill="#202d47"/><path d="M1087.1 1237.1l-31.2.4c-2.4-1.9-2.4-5.8-.2-8.6l63.4-74.7c2.2-2.8 6-3.5 8.4-1.6l35.4-4.9c2.4 1.9 2.4 5.8.2 8.6l-67.6 79.1c-2.3 2.9-6 3.6-8.4 1.7z" fill="#4d576c"/><path d="M1125 1164.4l21.1-1.1m-25.9 6.8l21.1-1.1m-26 6.8l21.1-1.1m-26 6.8l21.1-1.1m-25.9 6.7l21.1-1.1" fill="none" stroke="#f7931e" stroke-width="2" stroke-linecap="round" stroke-linejoin="round"/><path d="M949 1220.4l6.2-1c3.2-.5 6.5-.5 9.8.1 6 1 19.4.4 41.4-15.5 0 0 16.4-16 48.7-24.9 0 0 14.7-6.4 23.6.6s.2 8.5-15 14.9c0 0-7.6 8.9 19.4 12.5 9.5 1.2 19.2.5 28.4-2.2 15.2-4.6 18.8-5 28.1-5s3.3 7.2.6 9.3c0 0 9.6-5.2 7 1.9 0 0-6 10.6-20.7 14.5 0 0 12.3.5 2.3 7.7s-33.7 14.3-33.7 14.3 10.4-2 1.8 6.5c0 0-28.4 9.1-51.7 10.3 0 0-41.4-4-51-1.8-13.4.7-26.6 3.7-39 9 0 0-31.9 1.6-24.7-33.9 2-9 9.4-15.9 18.5-17.3h0z" class="X"/><path d="M642.2 971.4s43.8-22.7 86.8 34.9c0 0 19.5 10.6 48.7 115.3 0 0 24.3 64.2 47.9 83.7 0 0 51.1 13 149.3 4.9 0 0 17 52.8 8.1 69 0 0-183.4 9.8-221.5 0 0 0-111.2-197.4-129.9-219.3 0 0-32.5-53.6 10.6-88.5h0z" fill="#435daf"/><path d="M1161.9 1142.7c.2 1.3-1.7 2.7-4.7 2.9-3.2.2-5.5-1.1-4.8-2.6.5-1.3 3-2.2 5.3-2.2 2.2 0 4 .8 4.2 1.9h0z"/></svg>