<svg id="glipy_copy" viewBox="0 0 64 64" xmlns="http://www.w3.org/2000/svg" xmlns:xlink="http://www.w3.org/1999/xlink" data-name="glipy copy"><linearGradient id="linear-gradient" gradientUnits="userSpaceOnUse" x1="8.278" x2="55.722" y1="32" y2="32"><stop offset="0" stop-color="#00c0ff"/><stop offset="1" stop-color="#5558ff"/></linearGradient><path d="m37.57627 60h-28.31433a.9854.9854 0 0 1 -.98246-.98246l.00012-31.34037c-.0295-.40806.308-.72521.56966-.98246l5.98325-5.98312a.98893.98893 0 0 1 .6975-.285h5.60979c.24465.24615 1.7169 1.70413 1.98458 1.96491h-7.18181l-4.30305 4.30316h32.85328l-4.29333-4.30316h-7.07375l2.01408-1.96491h5.46251a.97222.97222 0 0 1 .69751.285l5.98324 5.98312a1.35467 1.35467 0 0 1 .56966.98246l.00012 8.31172a13.199 13.199 0 0 0 -10.27657 24.01111zm-10.18794-36.1151a.98319.98319 0 0 0 .68767.28489.95663.95663 0 0 0 .68767-.27505l6.22886-6.07157a.95379.95379 0 0 0 .22594-1.07091c-.34323-.93364-1.67852-.54184-2.60353-.619v-11.1508a.98537.98537 0 0 0 -.98246-.98246h-7.10326a.98536.98536 0 0 0 -.98245.98246v11.15085h-1.5424a.98993.98993 0 0 0 -.69739 1.68zm28.33388 24.87568c-.59917 14.87956-21.8503 14.93844-22.47836.00024a11.23918 11.23918 0 1 1 22.47836-.00024zm-6.27779-.98234h-3.979v-3.97893a.98246.98246 0 1 0 -1.96491 0v3.97893h-3.979a.98246.98246 0 0 0 0 1.96492h3.979v3.97884a.98257.98257 0 0 0 1.96491.00006v-3.9789h3.979a.98257.98257 0 0 0 0-1.96492z" fill="url(#linear-gradient)"/></svg>