<svg clip-rule="evenodd" fill-rule="evenodd" height="512" image-rendering="optimizeQuality" shape-rendering="geometricPrecision" text-rendering="geometricPrecision" viewBox="0 0 254000 254000" width="512" xmlns="http://www.w3.org/2000/svg"><g id="图层_x0020_1"><path d="m127000 0c70129 0 127000 56871 127000 127000s-56871 127000-127000 127000-127000-56871-127000-127000 56871-127000 127000-127000zm-64190 172969 45969-45969-45969-45969c-2637-2638-2637-6941 0-9578l8643-8643c2637-2637 6940-2637 9578 0l45969 45969 45969-45969c2638-2637 6941-2637 9578 0l8643 8643c2637 2637 2637 6940 0 9578l-45969 45969 45969 45969c2637 2638 2637 6941 0 9578l-8643 8643c-2637 2637-6940 2637-9578 0l-45969-45969-45969 45969c-2638 2637-6941 2637-9578 0l-8643-8643c-2637-2637-2637-6940 0-9578z" fill="#ff4141"/></g></svg>