<svg id="Capa_1" enable-background="new 0 0 510 510" height="512" viewBox="0 0 510 510" width="512" xmlns="http://www.w3.org/2000/svg" xmlns:xlink="http://www.w3.org/1999/xlink"><linearGradient id="lg1"><stop offset="0" stop-color="#fd4755"/><stop offset="1" stop-color="#ac2538"/></linearGradient><linearGradient id="SVGID_1_" gradientUnits="userSpaceOnUse" x1="247.086" x2="459.554" xlink:href="#lg1" y1="220.166" y2="432.634"/><linearGradient id="lg2"><stop offset="0" stop-color="#972437" stop-opacity="0"/><stop offset="1" stop-color="#972437"/></linearGradient><linearGradient id="SVGID_2_" gradientUnits="userSpaceOnUse" x1="508.347" x2="456.03" xlink:href="#lg2" y1="347.903" y2="295.585"/><linearGradient id="SVGID_3_" gradientUnits="userSpaceOnUse" x1="384.426" x2="384.426" xlink:href="#lg2" y1="357.708" y2="412.217"/><linearGradient id="SVGID_4_" gradientUnits="userSpaceOnUse" x1="460.598" x2="266.098" xlink:href="#lg1" y1="364.357" y2="184.857"/><linearGradient id="lg3"><stop offset="0" stop-color="#eaf6ff"/><stop offset=".2575" stop-color="#dce8fa"/><stop offset=".7423" stop-color="#b8c4ed"/><stop offset="1" stop-color="#a2aee6"/></linearGradient><linearGradient id="SVGID_5_" gradientUnits="userSpaceOnUse" x1="297.593" x2="433.725" xlink:href="#lg3" y1="208.682" y2="344.814"/><linearGradient id="lg4"><stop offset="0" stop-color="#537983"/><stop offset="1" stop-color="#3e5959"/></linearGradient><linearGradient id="SVGID_6_" gradientUnits="userSpaceOnUse" x1="444.321" x2="473.114" xlink:href="#lg4" y1="283.879" y2="312.673"/><linearGradient id="lg5"><stop offset="0" stop-color="#fee45a"/><stop offset="1" stop-color="#fe860a"/></linearGradient><linearGradient id="SVGID_7_" gradientTransform="matrix(1 0 0 -1 0 576.842)" gradientUnits="userSpaceOnUse" x1="324.981" x2="324.981" xlink:href="#lg5" y1="240.575" y2="222.575"/><linearGradient id="SVGID_8_" gradientUnits="userSpaceOnUse" x1="468.53" x2="504.171" xlink:href="#lg5" y1="356.437" y2="392.077"/><linearGradient id="SVGID_9_" gradientUnits="userSpaceOnUse" x1="107.377" x2="252.62" xlink:href="#lg5" y1="32.567" y2="177.81"/><linearGradient id="lg6"><stop offset="0" stop-color="#fe860a" stop-opacity="0"/><stop offset="1" stop-color="#fe7701"/></linearGradient><linearGradient id="SVGID_10_" gradientUnits="userSpaceOnUse" x1="246.416" x2="59.143" xlink:href="#lg6" y1="96.231" y2="-36.823"/><linearGradient id="SVGID_11_" gradientUnits="userSpaceOnUse" x1="264.787" x2="150.201" xlink:href="#lg6" y1="55.721" y2="176.569"/><linearGradient id="SVGID_12_" gradientUnits="userSpaceOnUse" x1="167.779" x2="167.779" xlink:href="#lg6" y1="144.19" y2="177.077"/><linearGradient id="SVGID_13_" gradientUnits="userSpaceOnUse" x1="124.183" x2="175.926" xlink:href="#lg3" y1="20.126" y2="71.869"/><linearGradient id="SVGID_14_" gradientUnits="userSpaceOnUse" x1="50.945" x2="250.338" xlink:href="#lg5" y1="192.527" y2="391.92"/><linearGradient id="SVGID_15_" gradientUnits="userSpaceOnUse" x1="241.821" x2="-15.273" xlink:href="#lg6" y1="279.926" y2="97.267"/><linearGradient id="SVGID_16_" gradientUnits="userSpaceOnUse" x1="267.041" x2="109.735" xlink:href="#lg6" y1="224.313" y2="390.215"/><linearGradient id="SVGID_17_" gradientUnits="userSpaceOnUse" x1="133.867" x2="133.867" xlink:href="#lg6" y1="345.766" y2="390.914"/><linearGradient id="SVGID_18_" gradientUnits="userSpaceOnUse" x1="74.016" x2="145.05" xlink:href="#lg3" y1="175.448" y2="246.482"/><linearGradient id="SVGID_19_" gradientUnits="userSpaceOnUse" x1="142.333" x2="142.333" xlink:href="#lg3" y1="394.822" y2="421.738"/><linearGradient id="lg7"><stop offset="0" stop-color="#8795de" stop-opacity="0"/><stop offset=".4678" stop-color="#7d8ddc" stop-opacity=".468"/><stop offset="1" stop-color="#6c7fd8"/></linearGradient><linearGradient id="SVGID_20_" gradientUnits="userSpaceOnUse" x1="207.531" x2="148.947" xlink:href="#lg7" y1="457.677" y2="399.092"/><linearGradient id="SVGID_21_" gradientTransform="matrix(-1 0 0 1 -3986.988 0)" gradientUnits="userSpaceOnUse" x1="-4451.488" x2="-4451.488" xlink:href="#lg3" y1="394.822" y2="421.738"/><linearGradient id="SVGID_22_" gradientUnits="userSpaceOnUse" x1="498.698" x2="440.113" xlink:href="#lg7" y1="457.677" y2="399.092"/><linearGradient id="SVGID_23_" gradientUnits="userSpaceOnUse" x1="67.86" x2="152.609" xlink:href="#lg4" y1="389.206" y2="473.955"/><linearGradient id="SVGID_24_" gradientUnits="userSpaceOnUse" x1="130.968" x2="69.705" xlink:href="#lg4" y1="452.315" y2="391.052"/><linearGradient id="SVGID_25_" gradientUnits="userSpaceOnUse" x1="89.847" x2="131.871" xlink:href="#lg3" y1="411.193" y2="453.218"/><linearGradient id="SVGID_26_" gradientUnits="userSpaceOnUse" x1="359.645" x2="444.394" xlink:href="#lg4" y1="389.206" y2="473.955"/><linearGradient id="SVGID_27_" gradientUnits="userSpaceOnUse" x1="422.753" x2="361.491" xlink:href="#lg4" y1="452.315" y2="391.052"/><linearGradient id="SVGID_28_" gradientUnits="userSpaceOnUse" x1="381.632" x2="423.656" xlink:href="#lg3" y1="411.193" y2="453.218"/><g><g><path d="m334.524 172.143h-51.603c-7.682 0-13.909 6.227-13.909 13.909v238.994c0 2.85 2.311 5.161 5.161 5.161h211.757c7.682 0 13.909-6.227 13.909-13.909v-78.84c0-31.779-12.624-62.257-35.096-84.728l-45.492-45.492c-22.47-22.47-52.948-35.095-84.727-35.095z" fill="url(#SVGID_1_)"/><path d="m499.84 337.459c0-13.512-2.29-26.786-6.641-39.312l-17.764-17.764c-4.018-4.503-9.863-7.341-16.372-7.341h-3.383c-4.537 0-8.215 3.678-8.215 8.215v37.03c0 2.722 1.329 5.127 3.368 6.622l49.008 49.008v-36.458z" fill="url(#SVGID_2_)"/><path d="m269.012 425.047c0 2.85 2.311 5.161 5.161 5.161h211.757c7.682 0 13.909-6.227 13.909-13.909v-78.84c0-2.464-.085-4.918-.235-7.364h-230.592z" fill="url(#SVGID_3_)"/><path d="m344.566 189h-39.911c-5.941 0-10.758 4.914-10.758 10.976v105.581c0 7.677 6.099 13.9 13.623 13.9h150.093c8.519 0 14.881-7.875 13.401-16.435-3.282-18.975-12.198-36.617-25.734-50.428l-35.184-35.899c-17.38-17.733-40.952-27.695-65.53-27.695z" fill="url(#SVGID_4_)"/><path d="m347.844 206.578h-31.621c-4.707 0-8.523 3.816-8.523 8.523v81.984c0 5.961 4.832 10.794 10.794 10.794h118.916c6.749 0 11.79-6.115 10.617-12.762-2.601-14.734-9.665-28.434-20.388-39.157l-27.876-27.876c-13.77-13.77-32.446-21.506-51.919-21.506z" fill="url(#SVGID_5_)"/><path d="m454.678 325.5h3.383c12.117 0 21.939-9.822 21.939-21.939v-9.581c0-12.117-9.822-21.939-21.939-21.939h-3.383c-4.537 0-8.215 3.678-8.215 8.215v37.03c0 4.536 3.678 8.214 8.215 8.214z" fill="url(#SVGID_6_)"/><path d="m336.028 336.944h-22.093c-3.444 0-6.235 2.792-6.235 6.235 0 3.444 2.792 6.235 6.235 6.235h22.093c3.444 0 6.235-2.792 6.235-6.235 0-3.443-2.792-6.235-6.235-6.235z" fill="url(#SVGID_7_)"/><path d="m504.011 396.593h-37.333v-24.858c0-15.218 12.336-27.554 27.554-27.554 5.401 0 9.779 4.378 9.779 9.779z" fill="url(#SVGID_8_)"/></g><g><g><path d="m251.898 169.873h-168.237c-3.779 0-6.843-3.064-6.843-6.843v-140.122c0-3.779 3.064-6.843 6.843-6.843h168.237c3.779 0 6.843 3.064 6.843 6.843v140.122c0 3.78-3.064 6.843-6.843 6.843z" fill="url(#SVGID_9_)"/><path d="m258.741 22.908v140.123c0 3.778-3.064 6.842-6.842 6.842h-22.33l-110.213-110.213v-43.594h132.543c3.778 0 6.842 3.064 6.842 6.842z" fill="url(#SVGID_10_)"/><path d="m251.898 16.065h-47.799c3.779 0 6.843 3.064 6.843 6.843v140.122c0 3.779-3.064 6.843-6.843 6.843h47.799c3.779 0 6.843-3.064 6.843-6.843v-140.122c0-3.779-3.064-6.843-6.843-6.843z" fill="url(#SVGID_11_)"/><path d="m76.818 132.775v30.255c0 3.779 3.064 6.843 6.843 6.843h168.237c3.779 0 6.843-3.064 6.843-6.843v-30.255z" fill="url(#SVGID_12_)"/></g><path d="m126.379 60.832.134.082c3.076 1.868 6.943 1.836 9.988-.081 3.112-1.879 7.009-1.879 10.121 0 3.112 1.879 7.009 1.879 10.121 0 1.442-.835 3.038-.853 4.645-.552 1.833.344 3.536-1.03 3.536-2.896v-39.928c0-1.33-1.078-2.407-2.407-2.407h-41.914c-1.33 0-2.407 1.078-2.407 2.407v39.871c0 1.854 1.686 3.242 3.508 2.9 1.624-.304 3.235-.271 4.675.604z" fill="url(#SVGID_13_)"/></g><g><g><path d="m249.347 381.024h-230.96c-5.188 0-9.394-4.206-9.394-9.394v-192.363c0-5.188 4.206-9.394 9.394-9.394h230.96c5.188 0 9.394 4.206 9.394 9.394v192.363c0 5.188-4.206 9.394-9.394 9.394z" fill="url(#SVGID_14_)"/><path d="m258.741 179.266v192.365c0 5.186-4.207 9.393-9.392 9.393h-30.655l-151.304-151.304v-59.847h181.959c5.185 0 9.392 4.207 9.392 9.393z" fill="url(#SVGID_15_)"/><path d="m249.347 169.872h-65.62c5.188 0 9.394 4.206 9.394 9.394v192.364c0 5.188-4.206 9.394-9.394 9.394h65.62c5.188 0 9.394-4.206 9.394-9.394v-192.363c0-5.189-4.206-9.395-9.394-9.395z" fill="url(#SVGID_16_)"/><path d="m8.993 330.095v41.535c0 5.188 4.206 9.394 9.394 9.394h230.96c5.188 0 9.394-4.206 9.394-9.394v-41.535z" fill="url(#SVGID_17_)"/></g><path d="m77.032 231.329.184.112c4.223 2.564 9.532 2.521 13.712-.112 4.272-2.58 9.622-2.58 13.895 0 4.272 2.58 9.622 2.58 13.895 0h.001c1.98-1.146 4.171-1.171 6.377-.757 2.517.472 4.854-1.415 4.854-3.975v-54.814c0-1.825-1.48-3.305-3.305-3.305h-57.542c-1.825 0-3.305 1.48-3.305 3.305v54.736c0 2.545 2.315 4.451 4.816 3.982 2.229-.418 4.44-.373 6.418.828z" fill="url(#SVGID_18_)"/></g><path d="m274.742 430.208h-255.558c-10.595 0-19.184-8.589-19.184-19.184v-10.816c0-10.595 8.589-19.184 19.184-19.184h255.558c5.481 0 9.925 4.444 9.925 9.925v29.333c0 5.482-4.444 9.926-9.925 9.926z" fill="url(#SVGID_19_)"/><path d="m161.107 392.297v37.911h37.911z" fill="url(#SVGID_20_)"/><path d="m419 430.208h71.816c10.595 0 19.184-8.589 19.184-19.184v-10.816c0-10.595-8.589-19.184-19.184-19.184h-71.816z" fill="url(#SVGID_21_)"/><path d="m452.273 392.297v37.911h37.911z" fill="url(#SVGID_22_)"/><g><g><circle cx="109.107" cy="430.454" fill="url(#SVGID_23_)" r="64.497"/><circle cx="109.107" cy="430.454" fill="url(#SVGID_24_)" r="47.26"/><circle cx="109.107" cy="430.454" fill="url(#SVGID_25_)" r="29.411"/></g><g><circle cx="400.893" cy="430.454" fill="url(#SVGID_26_)" r="64.497"/><circle cx="400.893" cy="430.454" fill="url(#SVGID_27_)" r="47.26"/><circle cx="400.893" cy="430.454" fill="url(#SVGID_28_)" r="29.411"/></g></g></g></svg>