<svg id="svg17040" height="512" viewBox="0 0 16.933333 16.933334" width="512" xmlns="http://www.w3.org/2000/svg" xmlns:svg="http://www.w3.org/2000/svg"><g id="layer1" transform="translate(0 -280.067)"><path id="path3712" d="m6.8786511 287.47496v3.17552h3.1760329v-3.17552z" fill="#fdce97" font-variant-ligatures="normal" font-variant-position="normal" font-variant-caps="normal" font-variant-numeric="normal" font-variant-alternates="normal" font-feature-settings="normal" text-indent="0" text-align="start" text-decoration-line="none" text-decoration-style="solid" text-decoration-color="#000000" text-transform="none" text-orientation="mixed" white-space="normal" shape-padding="0" isolation="auto" mix-blend-mode="normal" solid-color="#000000" solid-opacity="1" vector-effect="none"/><path id="path3706" d="m10.583851 284.44982c.133918-.0945.289906-.14635.44545-.15347.08598-.004.171519.005.252181.0263.322649.0848.611784.37081.624768.76171.000061.003.000061.007 0 .01 0 .81422-.66533 1.32189-1.322141 1.32189z" fill="#fdce97" font-variant-ligatures="normal" font-variant-position="normal" font-variant-caps="normal" font-variant-numeric="normal" font-variant-alternates="normal" font-feature-settings="normal" text-indent="0" text-align="start" text-decoration-line="none" text-decoration-style="solid" text-decoration-color="#000000" text-transform="none" text-orientation="mixed" white-space="normal" shape-padding="0" isolation="auto" mix-blend-mode="normal" solid-color="#000000" solid-opacity="1" vector-effect="none"/><path id="path3672" d="m7.9375012 280.5958c-1.314636 0-2.3807333 1.06609-2.3807333 2.38073v1.3224h5.8203161v-1.3224c0-1.31464-1.066097-2.38073-2.3807327-2.38073z" fill="#ff6b6b" font-variant-ligatures="normal" font-variant-position="normal" font-variant-caps="normal" font-variant-numeric="normal" font-variant-alternates="normal" font-feature-settings="normal" text-indent="0" text-align="start" text-decoration-line="none" text-decoration-style="solid" text-decoration-color="#000000" text-transform="none" text-orientation="mixed" white-space="normal" shape-padding="0" isolation="auto" mix-blend-mode="normal" solid-color="#000000" solid-opacity="1" vector-effect="none"/><path id="path3720" d="m6.0859346 289.06298c-1.9009516 0-3.4395881 1.53811-3.4395834 3.43907v3.70313c-.0005571.14612.1174303.26503.2635499.26562h11.1135329c.14612-.00059.264107-.1195.26355-.26562v-3.70313c.000005-1.90096-1.53862-3.43908-3.439583-3.43907h-1.3224l-1.0583331.79323-1.0583334-.79323z" fill="#ff6b6b" font-variant-ligatures="normal" font-variant-position="normal" font-variant-caps="normal" font-variant-numeric="normal" font-variant-alternates="normal" font-feature-settings="normal" text-indent="0" text-align="start" text-decoration-line="none" text-decoration-style="solid" text-decoration-color="#000000" text-transform="none" text-orientation="mixed" white-space="normal" shape-padding="0" isolation="auto" mix-blend-mode="normal" solid-color="#000000" solid-opacity="1" vector-effect="none"/><path id="path3694" d="m6.3500012 284.44982c-.1339183-.0945-.2899061-.14635-.4454509-.15347-.085984-.004-.1715188.005-.252181.0263-.3226485.0848-.6117831.37081-.6247681.76171-.0000608.003-.0000608.007 0 .01 0 .81422.6653308 1.32188 1.3221418 1.32188z" fill="#fdce97" font-variant-ligatures="normal" font-variant-position="normal" font-variant-caps="normal" font-variant-numeric="normal" font-variant-alternates="normal" font-feature-settings="normal" text-indent="0" text-align="start" text-decoration-line="none" text-decoration-style="solid" text-decoration-color="#000000" text-transform="none" text-orientation="mixed" white-space="normal" shape-padding="0" isolation="auto" mix-blend-mode="normal" solid-color="#000000" solid-opacity="1" vector-effect="none"/><path id="path3700" d="m6.0859346 284.29893v1.85363c0 1.31464 1.0661007 2.38074 2.3807333 2.38074 1.3146408 0 2.3807271-1.0661 2.3807331-2.38074v-1.85363z" fill="#fdd5a6" font-variant-ligatures="normal" font-variant-position="normal" font-variant-caps="normal" font-variant-numeric="normal" font-variant-alternates="normal" font-feature-settings="normal" text-indent="0" text-align="start" text-decoration-line="none" text-decoration-style="solid" text-decoration-color="#000000" text-transform="none" text-orientation="mixed" white-space="normal" shape-padding="0" isolation="auto" mix-blend-mode="normal" solid-color="#000000" solid-opacity="1" vector-effect="none"/><path id="path16263" d="m2.646352 294.8833v1.32188c-.0005583.14612.11743.26503.2635491.26562h11.1135339c.146119-.00059.264108-.1195.263549-.26562v-1.32188z" fill="#fdd5a6" font-variant-ligatures="normal" font-variant-position="normal" font-variant-caps="normal" font-variant-numeric="normal" font-variant-alternates="normal" font-feature-settings="normal" text-indent="0" text-align="start" text-decoration-line="none" text-decoration-style="solid" text-decoration-color="#000000" text-transform="none" text-orientation="mixed" white-space="normal" shape-padding="0" isolation="auto" mix-blend-mode="normal" solid-color="#000000" solid-opacity="1" vector-effect="none"/><path id="path7225" d="m5.2911511 291.70933c-.4351607 0-.7932333.35756-.7932333.79272v3.70313a.26460982.26460982 0 0 0 .2635499.26562h7.4083333a.26460982.26460982 0 0 0 .265617-.26562v-3.70313c0-.43516-.357556-.79272-.792717-.79272z" fill="#e6b57c" font-variant-ligatures="normal" font-variant-position="normal" font-variant-caps="normal" font-variant-numeric="normal" font-variant-alternates="normal" font-feature-settings="normal" text-indent="0" text-align="start" text-decoration-line="none" text-decoration-style="solid" text-decoration-color="#000000" text-transform="none" text-orientation="mixed" white-space="normal" shape-padding="0" isolation="auto" mix-blend-mode="normal" solid-color="#000000" solid-opacity="1" vector-effect="none"/><path id="path7232" d="m6.6151013 291.70933v2.38073c-.0003969.0702.027114.13768.076481.18759l.5291667.5271c.1034449.10397.2717258.10397.3751707 0l.3415813-.33952.3415813.33952c.103445.10397.2717258.10397.3751707 0l.3420981-.33952.3415813.33952c.1034449.10397.271726.10397.375171 0l.5291666-.5271c.04918-.05.0765-.11746.07596-.18759v-2.38073z" fill="#fdd5a6" font-variant-ligatures="normal" font-variant-position="normal" font-variant-caps="normal" font-variant-numeric="normal" font-variant-alternates="normal" font-feature-settings="normal" text-indent="0" text-align="start" text-decoration-line="none" text-decoration-style="solid" text-decoration-color="#000000" text-transform="none" text-orientation="mixed" white-space="normal" shape-padding="0" isolation="auto" mix-blend-mode="normal" solid-color="#000000" solid-opacity="1" vector-effect="none"/><g fill="#e86262"><path id="path7241" d="m6.8769544 288.53343c-.069727.00058-.1364076.0286-.185547.0781l-.5292969.5293c-.079939.0806-.099584.20316-.048828.30469l.7929686 1.58789c.069356.13759.2411392.18705.3730469.10742l1.3242187-.79297c.1557372-.0938.1726822-.31308.033203-.42969l-1.5878908-1.32422c-.048316-.0399-.1092216-.0614-.1718749-.0605z" font-variant-ligatures="normal" font-variant-position="normal" font-variant-caps="normal" font-variant-numeric="normal" font-variant-alternates="normal" font-feature-settings="normal" text-indent="0" text-align="start" text-decoration-line="none" text-decoration-style="solid" text-decoration-color="#000000" text-transform="none" text-orientation="mixed" white-space="normal" shape-padding="0" isolation="auto" mix-blend-mode="normal" solid-color="#000000" solid-opacity="1" vector-effect="none"/><path id="path7245" d="m10.050782 288.53343c-.060642.00055-.1192501.0219-.1660152.0605l-1.5878905 1.32422c-.1394791.11661-.1225341.3359.033203.42969l1.324219.79297c.1314926.0782.3017102.0289.3710937-.10742l.794921-1.58789c.05026-.10193.02982-.22457-.05078-.30469l-.527344-.5293c-.05057-.0509-.11965-.0791-.191407-.0781z" font-variant-ligatures="normal" font-variant-position="normal" font-variant-caps="normal" font-variant-numeric="normal" font-variant-alternates="normal" font-feature-settings="normal" text-indent="0" text-align="start" text-decoration-line="none" text-decoration-style="solid" text-decoration-color="#000000" text-transform="none" text-orientation="mixed" white-space="normal" shape-padding="0" isolation="auto" mix-blend-mode="normal" solid-color="#000000" solid-opacity="1" vector-effect="none"/><path id="path3680" d="m8.4666679 283.50621c-1.6462777 0-2.7636555.55656-2.7636555.55656a.26452644.26452644 0 0 0 -.1328087.32039s.073547.22866.2284101.46096c.1548627.23229.4196516.51366.8164875.51366h3.7031327c.396831 0 .661623-.28137.816488-.51366.154864-.2323.22841-.46096.22841-.46096a.26452644.26452644 0 0 0 -.132809-.32039s-1.117378-.55656-2.7636551-.55656z" font-variant-ligatures="normal" font-variant-position="normal" font-variant-caps="normal" font-variant-numeric="normal" font-variant-alternates="normal" font-feature-settings="normal" text-indent="0" text-align="start" text-decoration-line="none" text-decoration-style="solid" text-decoration-color="#000000" text-transform="none" text-orientation="mixed" white-space="normal" shape-padding="0" isolation="auto" mix-blend-mode="normal" solid-color="#000000" solid-opacity="1" vector-effect="none"/></g></g></svg>