<svg id="glipy_copy" viewBox="0 0 64 64" xmlns="http://www.w3.org/2000/svg" xmlns:xlink="http://www.w3.org/1999/xlink" data-name="glipy copy"><linearGradient id="linear-gradient" gradientUnits="userSpaceOnUse" x1="4" x2="60" y1="32" y2="32"><stop offset="0" stop-color="#00c0ff"/><stop offset="1" stop-color="#5558ff"/></linearGradient><path d="m60 11.94423v32a3.00879 3.00879 0 0 1 -3 3h-50a3.00879 3.00879 0 0 1 -3-3v-32a3.00238 3.00238 0 0 1 3-3l12.55969.00006c-9.024 10.23932-4.29229 27.85608 12.36029 28.7a16.76262 16.76262 0 0 0 9.81-3.07c2.19428-.1986 5.07806 1.20093 6.46-1.22009 1.23834-1.77887-.56824-3.83441-.89014-5.29992a17.07967 17.07967 0 0 0 -2.9898-19.11h12.68996a3.00238 3.00238 0 0 1 3 2.99995zm-23.29 40.84a13.61848 13.61848 0 0 1 -.32995-3.84h-8.76005a13.55666 13.55666 0 0 1 -.33 3.84c-11.33.67-15.39 3.62994-15.58 3.75995a1.00438 1.00438 0 0 0 1.2 1.61c.05-.04 4.96-3.49994 19.09-3.49994 15.0575.06427 18.4245 3.46906 19.69 3.69007a1.007 1.007 0 0 0 .59992-1.80011c-.18992-.13-4.24992-3.08996-15.57992-3.75994zm-4.71-47.13999a14.99484 14.99484 0 0 1 13.15 22.21 17.51284 17.51284 0 0 0 1.36 3.52 1.00989 1.00989 0 0 1 -1.03 1.45007 23.18443 23.18443 0 0 0 -4.43-.23 14.76659 14.76659 0 0 1 -9.04987 3.05c-19.89631-.82398-19.8968-29.17548-.00013-30.00007zm8.03 19.6h-16.06a1.00012 1.00012 0 0 0 0 2h16.06a1.00012 1.00012 0 0 0 0-2.00002zm0-5.6h-16.06a1.00012 1.00012 0 0 0 0 2h16.06a1.00012 1.00012 0 0 0 0-2zm-16.06006-3.6h8.03a1.00011 1.00011 0 0 0 .00006-2h-8.03a1.00011 1.00011 0 0 0 0 1.99997z" fill="url(#linear-gradient)"/></svg>