<svg enable-background="new 0 0 128 128" viewBox="0 0 128 128" xmlns="http://www.w3.org/2000/svg"><g id="Guide" display="none"/><g id="Icon_Set"><g><path d="m110 98.643h-92c-6.341 0-11.5-5.159-11.5-11.5v-69.143c0-6.341 5.159-11.5 11.5-11.5h92c6.341 0 11.5 5.159 11.5 11.5v69.143c0 6.341-5.159 11.5-11.5 11.5zm-92-89.143c-4.687 0-8.5 3.813-8.5 8.5v69.143c0 4.687 3.813 8.5 8.5 8.5h92c4.687 0 8.5-3.813 8.5-8.5v-69.143c0-4.687-3.813-8.5-8.5-8.5z" fill="#0068ff"/></g><g><path d="m110 80.357h-92c-3.033 0-5.5-2.467-5.5-5.5v-56.857c0-3.033 2.467-5.5 5.5-5.5h92c3.033 0 5.5 2.467 5.5 5.5v56.857c0 3.033-2.467 5.5-5.5 5.5zm-92-64.857c-1.379 0-2.5 1.122-2.5 2.5v56.857c0 1.378 1.121 2.5 2.5 2.5h92c1.379 0 2.5-1.122 2.5-2.5v-56.857c0-1.378-1.121-2.5-2.5-2.5z" fill="#0068ff"/></g><g><path d="m77.393 113.786h-26.786c-.449 0-.875-.202-1.16-.549s-.399-.805-.311-1.246l3.035-15.143c.141-.701.756-1.205 1.471-1.205h20.715c.715 0 1.33.504 1.471 1.205l3.035 15.143c.089.441-.025.898-.311 1.246s-.71.549-1.159.549zm-24.956-3h23.125l-2.435-12.143h-18.255z" fill="#0068ff"/></g><g><path d="m94.75 121.5h-61.5c-2.954 0-5.357-2.403-5.357-5.357s2.403-5.357 5.357-5.357h61.5c2.954 0 5.357 2.403 5.357 5.357s-2.403 5.357-5.357 5.357zm-61.5-7.714c-1.3 0-2.357 1.058-2.357 2.357s1.058 2.357 2.357 2.357h61.5c1.3 0 2.357-1.057 2.357-2.357s-1.058-2.357-2.357-2.357z" fill="#0068ff"/></g><g><path d="m64 92.982c-2.747 0-4.982-2.235-4.982-4.982s2.235-4.982 4.982-4.982 4.982 2.235 4.982 4.982-2.235 4.982-4.982 4.982zm0-6.964c-1.093 0-1.982.889-1.982 1.982s.89 1.982 1.982 1.982 1.982-.889 1.982-1.982-.889-1.982-1.982-1.982z" fill="#0068ff"/></g><g><path d="m64.007 47.929c-.254 0-.508-.064-.735-.193l-21.827-12.286c-.473-.266-.765-.765-.765-1.307s.292-1.042.765-1.307l21.826-12.286c.455-.257 1.016-.257 1.471 0l21.826 12.286c.473.266.765.766.765 1.307 0 .542-.292 1.042-.765 1.307l-21.826 12.286c-.227.128-.481.193-.735.193zm-18.769-13.786 18.769 10.564 18.769-10.564-18.769-10.565z" fill="#2ecec6"/></g><g><path d="m64.007 47.929c-.254 0-.508-.064-.735-.193l-13.138-7.395c-.473-.266-.765-.765-.765-1.307s.292-1.042.765-1.307l13.138-7.395c.455-.257 1.016-.257 1.471 0l13.138 7.395c.473.266.765.765.765 1.307s-.292 1.042-.765 1.307l-13.138 7.395c-.228.128-.482.193-.736.193zm-10.08-8.895 10.08 5.674 10.08-5.674-10.08-5.674z" fill="#2ecec6"/></g><g><g><path d="m94.069 30.429c-.5 0-.99-.25-1.274-.707-.438-.703-.223-1.628.48-2.066l11.356-7.072c.702-.436 1.628-.224 2.066.48.438.703.223 1.628-.48 2.066l-11.356 7.072c-.247.153-.52.227-.792.227z" fill="#0068ff"/></g><g><path d="m98.56 32.016c-.166 0-.334-.028-.5-.086l-4.491-1.587c-.668-.236-1.079-.907-.987-1.609l.646-4.929c.107-.822.874-1.401 1.682-1.292.822.107 1.4.861 1.293 1.682l-.487 3.724 3.346 1.182c.781.276 1.19 1.133.914 1.914-.22.616-.798 1.001-1.416 1.001z" fill="#0068ff"/></g></g><g><g><path d="m33.944 30.429c-.271 0-.545-.073-.792-.227l-11.356-7.072c-.703-.438-.918-1.363-.48-2.066.438-.705 1.364-.916 2.066-.48l11.356 7.072c.703.438.918 1.363.48 2.066-.283.456-.774.707-1.274.707z" fill="#0068ff"/></g><g><path d="m29.454 32.016c-.618 0-1.196-.385-1.414-1.001-.276-.781.133-1.638.914-1.914l3.346-1.182-.487-3.724c-.107-.821.471-1.575 1.293-1.682.804-.109 1.574.47 1.682 1.292l.646 4.929c.092.702-.319 1.373-.987 1.609l-4.491 1.587c-.167.058-.336.086-.502.086z" fill="#0068ff"/></g></g><g><g><path d="m105.424 73.643c-.271 0-.545-.073-.792-.227l-11.356-7.072c-.703-.438-.918-1.363-.48-2.066.438-.704 1.365-.916 2.066-.48l11.356 7.072c.703.438.918 1.363.48 2.066-.284.457-.774.707-1.274.707z" fill="#0068ff"/></g><g><path d="m94.712 71.5c-.742 0-1.387-.55-1.485-1.305l-.646-4.929c-.092-.702.319-1.373.987-1.609l4.491-1.587c.78-.273 1.638.133 1.914.915.276.781-.133 1.638-.914 1.914l-3.346 1.182.487 3.724c.107.821-.471 1.575-1.293 1.682-.064.009-.13.013-.195.013z" fill="#0068ff"/></g></g><g><g><path d="m22.59 73.643c-.5 0-.99-.25-1.274-.707-.438-.703-.223-1.628.48-2.066l11.356-7.072c.703-.436 1.628-.224 2.066.48.438.703.223 1.628-.48 2.066l-11.356 7.072c-.247.154-.521.227-.792.227z" fill="#0068ff"/></g><g><path d="m33.302 71.5c-.065 0-.131-.004-.196-.013-.822-.107-1.4-.861-1.293-1.682l.487-3.724-3.346-1.182c-.781-.276-1.19-1.133-.914-1.914.276-.782 1.13-1.188 1.914-.915l4.491 1.587c.668.236 1.079.907.987 1.609l-.646 4.929c-.098.755-.743 1.305-1.484 1.305z" fill="#0068ff"/></g></g><g><path d="m64.007 72.5c-.254 0-.507-.064-.735-.193l-21.827-12.286c-.473-.266-.765-.765-.765-1.307v-11.747c0-.533.283-1.026.743-1.295s1.028-.273 1.492-.012l15.103 8.501 4.676-8.458c.33-.598 1.02-.901 1.688-.727.662.171 1.125.769 1.125 1.453v24.571c0 .533-.283 1.026-.743 1.295-.234.137-.495.205-.757.205zm-20.326-14.663 18.826 10.597v-16.191l-2.594 4.692c-.193.35-.519.608-.903.717-.383.109-.796.06-1.145-.136l-14.185-7.984v8.305z" fill="#2ecec6"/></g><g><path d="m64.007 72.5c-.262 0-.523-.068-.757-.205-.46-.269-.743-.762-.743-1.295v-24.571c0-.688.468-1.287 1.135-1.455.666-.169 1.362.139 1.687.745l4.525 8.433 15.244-8.58c.465-.261 1.032-.257 1.492.012s.743.762.743 1.295v11.835c0 .542-.292 1.042-.765 1.307l-21.826 12.286c-.228.129-.481.193-.735.193zm1.5-20.104v16.039l18.826-10.597v-8.393l-14.342 8.072c-.351.197-.765.247-1.154.133-.387-.112-.712-.376-.902-.731z" fill="#2ecec6"/></g><g><path d="m58.601 57.71c-.256 0-.509-.065-.735-.193l-21.827-12.286c-.719-.404-.976-1.312-.577-2.033l5.406-9.781c.193-.35.519-.608.903-.717.382-.109.796-.061 1.145.136l21.826 12.286c.719.404.976 1.312.577 2.033l-5.406 9.781c-.193.35-.519.608-.903.717-.134.038-.272.057-.409.057zm-19.793-14.363 19.211 10.814 3.955-7.155-19.211-10.814z" fill="#2ecec6"/></g><g><path d="m69.257 57.71c-.141 0-.281-.02-.419-.06-.387-.112-.712-.376-.902-.731l-5.25-9.781c-.387-.72-.126-1.616.586-2.017l21.826-12.286c.352-.197.767-.246 1.154-.133.387.112.712.376.902.731l5.249 9.781c.387.72.126 1.616-.586 2.017l-21.825 12.286c-.226.128-.479.193-.735.193zm-3.234-10.695 3.831 7.137 19.211-10.813-3.83-7.137z" fill="#2ecec6"/></g></g></svg>