<svg id="Layer_1" enable-background="new 0 0 512 512" height="512" viewBox="0 0 512 512" width="512" xmlns="http://www.w3.org/2000/svg"><g><g clip-rule="evenodd" fill-rule="evenodd"><path d="m50.66 29.91h418.82c23.39 0 42.52 19.13 42.52 42.52v99.92c0 23.41-19.13 42.55-42.52 42.55h-418.82c-23.39 0-42.52-19.13-42.52-42.55v-99.92c0-23.39 19.13-42.52 42.52-42.52z" fill="#3e5959"/><path d="m417.4 122.4v346.93c0 7-5.75 12.76-12.76 12.76h-289.13c-7.03 0-12.76-5.75-12.76-12.76v-346.93z" fill="#70da40"/><path d="m143.61 122.4h232.95v262.35c-31.21 0-56.47 25.29-56.47 56.47h-120.02c0-31.18-25.29-56.47-56.47-56.47v-262.35z" fill="#1fbf66"/><path d="m260.08 350c15.59 0 28.23 12.64 28.23 28.23s-12.64 28.23-28.23 28.23-28.23-12.64-28.23-28.23 12.64-28.23 28.23-28.23z" fill="#70da40"/><path d="m284.49 122.4c2.41 4.17 3.83 9.01 3.83 14.2 0 15.59-12.64 28.23-28.23 28.23s-28.23-12.64-28.23-28.23c0-5.19 1.39-10.03 3.83-14.2z" fill="#70da40"/><path d="m260.08 315.81c32.14 0 58.39-26.22 58.39-58.39 0-32.14-26.25-58.39-58.39-58.39-32.17 0-58.39 26.25-58.39 58.39 0 32.17 26.22 58.39 58.39 58.39z" fill="#70da40"/></g><path d="m66.28 130.54c-4.48 0-8.11-3.66-8.11-8.14s3.63-8.14 8.11-8.14h387.58c4.48 0 8.14 3.66 8.14 8.14s-3.66 8.14-8.14 8.14z" fill="#2d4141"/><path d="m226.49 265.55c-4.48 0-8.11-3.66-8.11-8.14s3.63-8.14 8.11-8.14h3.88c1.81-4.51 5.02-8.7 9.89-11.91 1.45-.96 3.09-1.81 4.9-2.58 4.14-1.73 8.87.25 10.6 4.37 1.73 4.14-.26 8.9-4.39 10.63-.79.34-1.56.74-2.24 1.16-2.21 1.47-3.51 3.4-4.05 5.39-.54 2.01-.37 4.08.31 5.75.14.34.31.65.54.99.14.23.31.43.45.57.45.43.96.71 1.47.77.4.06.79-.03 1.19-.28.2-.11.37-.26.51-.43.62-.62 1.25-3.23 1.87-5.98 1.33-5.58 2.75-11.54 7.77-16.44 1.96-1.9 4.28-3.29 6.8-4.14 3.26-1.11 6.83-1.3 10.2-.57 3.46.77 6.77 2.49 9.47 5.24 1.96 1.98 3.51 4.48 4.51 7.46h.03 3.43c4.48 0 8.14 3.66 8.14 8.14s-3.66 8.14-8.14 8.14h-3.15c-.14.45-.28.88-.45 1.33-2.04 5.53-6.04 10.21-12.36 12.36-.51.17-1.08.31-1.67.48-4.37 1.05-8.73-1.59-9.81-5.95-1.08-4.34 1.59-8.73 5.92-9.81.09-.03.2-.06.34-.11 1.13-.37 1.9-1.36 2.35-2.55.68-1.87.74-4.08.26-6.07-.09-.23-.14-.48-.26-.77-.2-.57-.45-1.02-.74-1.33-.37-.34-.79-.57-1.3-.68-.54-.11-1.11-.11-1.59.06-.28.08-.51.23-.68.4-1.62 1.56-2.47 5.16-3.26 8.5-1.16 5.02-2.3 9.72-6.07 13.61-1.05 1.08-2.15 1.98-3.26 2.72-3.83 2.5-8.11 3.32-12.22 2.75-3.97-.54-7.71-2.38-10.63-5.22-1.05-1.02-1.96-2.13-2.72-3.32-.74-1.11-1.39-2.32-1.93-3.66-.37-.88-.71-1.81-.96-2.75h-2.95z" fill="#1fbf66"/><path d="m30.65 281.34c0-4.48 3.63-8.14 8.11-8.14 4.51 0 8.14 3.66 8.14 8.14v108.77l16.75-16.75c3.17-3.17 8.33-3.17 11.51 0s3.17 8.33 0 11.51l-30.64 30.61c-3.17 3.17-8.31 3.17-11.48 0l-30.66-30.62c-3.17-3.17-3.17-8.33 0-11.51 3.17-3.17 8.33-3.17 11.51 0l16.75 16.75v-108.76z" fill="#cfcfcf"/></g></svg>